ISO-10303-21;
HEADER;
/* Generated by software containing ST-Developer
 * from STEP Tools, Inc. (www.steptools.com) 
 */

FILE_DESCRIPTION(
/* description */ (''),
/* implementation_level */ '2;1');

FILE_NAME(
/* name */ 'Knee_Axle_L.step',
/* time_stamp */ '2026-08-08T19:52:18-07:00',
/* author */ (''),
/* organization */ (''),
/* preprocessor_version */ 'ST-DEVELOPER v20.1',
/* originating_system */ 'Autodesk Translation Framework v15.8.0.0',
/* authorisation */ '');

FILE_SCHEMA (('AUTOMOTIVE_DESIGN { 1 0 10303 214 3 1 1 }'));
ENDSEC;

DATA;
#10=MECHANICAL_DESIGN_GEOMETRIC_PRESENTATION_REPRESENTATION('',(#13),#357);
#11=SHAPE_REPRESENTATION_RELATIONSHIP('SRR','None',#364,#12);
#12=ADVANCED_BREP_SHAPE_REPRESENTATION('',(#14),#356);
#13=STYLED_ITEM('',(#373),#14);
#14=MANIFOLD_SOLID_BREP('Knee_Axle_L',#197);
#15=FACE_BOUND('',#50,.T.);
#16=FACE_BOUND('',#52,.T.);
#17=FACE_BOUND('',#55,.T.);
#18=PLANE('',#214);
#19=PLANE('',#215);
#20=PLANE('',#218);
#21=PLANE('',#219);
#22=PLANE('',#222);
#23=PLANE('',#224);
#24=PLANE('',#225);
#25=PLANE('',#230);
#26=PLANE('',#234);
#27=PLANE('',#235);
#28=FACE_OUTER_BOUND('',#41,.T.);
#29=FACE_OUTER_BOUND('',#42,.T.);
#30=FACE_OUTER_BOUND('',#43,.T.);
#31=FACE_OUTER_BOUND('',#44,.T.);
#32=FACE_OUTER_BOUND('',#45,.T.);
#33=FACE_OUTER_BOUND('',#46,.T.);
#34=FACE_OUTER_BOUND('',#47,.T.);
#35=FACE_OUTER_BOUND('',#48,.T.);
#36=FACE_OUTER_BOUND('',#49,.T.);
#37=FACE_OUTER_BOUND('',#51,.T.);
#38=FACE_OUTER_BOUND('',#53,.T.);
#39=FACE_OUTER_BOUND('',#54,.T.);
#40=FACE_OUTER_BOUND('',#56,.T.);
#41=EDGE_LOOP('',(#133,#134,#135,#136));
#42=EDGE_LOOP('',(#137));
#43=EDGE_LOOP('',(#138,#139,#140));
#44=EDGE_LOOP('',(#141,#142,#143,#144));
#45=EDGE_LOOP('',(#145,#146,#147));
#46=EDGE_LOOP('',(#148,#149));
#47=EDGE_LOOP('',(#150,#151,#152,#153));
#48=EDGE_LOOP('',(#154,#155));
#49=EDGE_LOOP('',(#156,#157,#158,#159,#160,#161,#162,#163,#164,#165,#166,
#167));
#50=EDGE_LOOP('',(#168,#169,#170,#171));
#51=EDGE_LOOP('',(#172));
#52=EDGE_LOOP('',(#173));
#53=EDGE_LOOP('',(#174,#175,#176,#177));
#54=EDGE_LOOP('',(#178));
#55=EDGE_LOOP('',(#179));
#56=EDGE_LOOP('',(#180));
#57=LINE('',#305,#69);
#58=LINE('',#313,#70);
#59=LINE('',#317,#71);
#60=LINE('',#319,#72);
#61=LINE('',#320,#73);
#62=LINE('',#329,#74);
#63=LINE('',#332,#75);
#64=LINE('',#334,#76);
#65=LINE('',#335,#77);
#66=LINE('',#341,#78);
#67=LINE('',#343,#79);
#68=LINE('',#350,#80);
#69=VECTOR('',#242,1.64999999999999);
#70=VECTOR('',#251,10.);
#71=VECTOR('',#256,10.);
#72=VECTOR('',#257,10.);
#73=VECTOR('',#258,10.);
#74=VECTOR('',#269,10.);
#75=VECTOR('',#272,10.);
#76=VECTOR('',#273,10.);
#77=VECTOR('',#274,10.);
#78=VECTOR('',#283,5.);
#79=VECTOR('',#284,5.);
#80=VECTOR('',#293,7.5);
#81=CIRCLE('',#212,1.64999999999999);
#82=CIRCLE('',#213,1.64999999999999);
#83=CIRCLE('',#216,5.);
#84=CIRCLE('',#217,5.);
#85=CIRCLE('',#220,5.);
#86=CIRCLE('',#221,5.);
#87=CIRCLE('',#223,5.);
#88=CIRCLE('',#226,5.);
#89=CIRCLE('',#228,5.);
#90=CIRCLE('',#229,5.);
#91=CIRCLE('',#232,7.5);
#92=CIRCLE('',#233,7.5);
#93=VERTEX_POINT('',#302);
#94=VERTEX_POINT('',#304);
#95=VERTEX_POINT('',#309);
#96=VERTEX_POINT('',#310);
#97=VERTEX_POINT('',#312);
#98=VERTEX_POINT('',#316);
#99=VERTEX_POINT('',#318);
#100=VERTEX_POINT('',#322);
#101=VERTEX_POINT('',#326);
#102=VERTEX_POINT('',#327);
#103=VERTEX_POINT('',#331);
#104=VERTEX_POINT('',#333);
#105=VERTEX_POINT('',#339);
#106=VERTEX_POINT('',#342);
#107=VERTEX_POINT('',#347);
#108=VERTEX_POINT('',#349);
#109=EDGE_CURVE('',#93,#93,#81,.T.);
#110=EDGE_CURVE('',#93,#94,#57,.T.);
#111=EDGE_CURVE('',#94,#94,#82,.T.);
#112=EDGE_CURVE('',#95,#96,#83,.T.);
#113=EDGE_CURVE('',#97,#95,#58,.T.);
#114=EDGE_CURVE('',#96,#97,#84,.T.);
#115=EDGE_CURVE('',#98,#95,#59,.T.);
#116=EDGE_CURVE('',#99,#98,#60,.T.);
#117=EDGE_CURVE('',#97,#99,#61,.T.);
#118=EDGE_CURVE('',#99,#100,#85,.T.);
#119=EDGE_CURVE('',#100,#98,#86,.T.);
#120=EDGE_CURVE('',#101,#102,#87,.T.);
#121=EDGE_CURVE('',#102,#101,#62,.T.);
#122=EDGE_CURVE('',#103,#101,#63,.T.);
#123=EDGE_CURVE('',#103,#104,#64,.T.);
#124=EDGE_CURVE('',#102,#104,#65,.T.);
#125=EDGE_CURVE('',#104,#103,#88,.T.);
#126=EDGE_CURVE('',#105,#105,#89,.T.);
#127=EDGE_CURVE('',#105,#96,#66,.T.);
#128=EDGE_CURVE('',#100,#106,#67,.T.);
#129=EDGE_CURVE('',#106,#106,#90,.T.);
#130=EDGE_CURVE('',#107,#107,#91,.T.);
#131=EDGE_CURVE('',#107,#108,#68,.T.);
#132=EDGE_CURVE('',#108,#108,#92,.T.);
#133=ORIENTED_EDGE('',*,*,#109,.F.);
#134=ORIENTED_EDGE('',*,*,#110,.T.);
#135=ORIENTED_EDGE('',*,*,#111,.F.);
#136=ORIENTED_EDGE('',*,*,#110,.F.);
#137=ORIENTED_EDGE('',*,*,#109,.T.);
#138=ORIENTED_EDGE('',*,*,#112,.F.);
#139=ORIENTED_EDGE('',*,*,#113,.F.);
#140=ORIENTED_EDGE('',*,*,#114,.F.);
#141=ORIENTED_EDGE('',*,*,#115,.F.);
#142=ORIENTED_EDGE('',*,*,#116,.F.);
#143=ORIENTED_EDGE('',*,*,#117,.F.);
#144=ORIENTED_EDGE('',*,*,#113,.T.);
#145=ORIENTED_EDGE('',*,*,#118,.F.);
#146=ORIENTED_EDGE('',*,*,#116,.T.);
#147=ORIENTED_EDGE('',*,*,#119,.F.);
#148=ORIENTED_EDGE('',*,*,#120,.F.);
#149=ORIENTED_EDGE('',*,*,#121,.F.);
#150=ORIENTED_EDGE('',*,*,#122,.F.);
#151=ORIENTED_EDGE('',*,*,#123,.T.);
#152=ORIENTED_EDGE('',*,*,#124,.F.);
#153=ORIENTED_EDGE('',*,*,#121,.T.);
#154=ORIENTED_EDGE('',*,*,#125,.F.);
#155=ORIENTED_EDGE('',*,*,#123,.F.);
#156=ORIENTED_EDGE('',*,*,#126,.F.);
#157=ORIENTED_EDGE('',*,*,#127,.T.);
#158=ORIENTED_EDGE('',*,*,#114,.T.);
#159=ORIENTED_EDGE('',*,*,#117,.T.);
#160=ORIENTED_EDGE('',*,*,#118,.T.);
#161=ORIENTED_EDGE('',*,*,#128,.T.);
#162=ORIENTED_EDGE('',*,*,#129,.F.);
#163=ORIENTED_EDGE('',*,*,#128,.F.);
#164=ORIENTED_EDGE('',*,*,#119,.T.);
#165=ORIENTED_EDGE('',*,*,#115,.T.);
#166=ORIENTED_EDGE('',*,*,#112,.T.);
#167=ORIENTED_EDGE('',*,*,#127,.F.);
#168=ORIENTED_EDGE('',*,*,#124,.T.);
#169=ORIENTED_EDGE('',*,*,#125,.T.);
#170=ORIENTED_EDGE('',*,*,#122,.T.);
#171=ORIENTED_EDGE('',*,*,#120,.T.);
#172=ORIENTED_EDGE('',*,*,#126,.T.);
#173=ORIENTED_EDGE('',*,*,#111,.T.);
#174=ORIENTED_EDGE('',*,*,#130,.F.);
#175=ORIENTED_EDGE('',*,*,#131,.T.);
#176=ORIENTED_EDGE('',*,*,#132,.T.);
#177=ORIENTED_EDGE('',*,*,#131,.F.);
#178=ORIENTED_EDGE('',*,*,#130,.T.);
#179=ORIENTED_EDGE('',*,*,#129,.T.);
#180=ORIENTED_EDGE('',*,*,#132,.F.);
#181=CYLINDRICAL_SURFACE('',#211,1.64999999999999);
#182=CYLINDRICAL_SURFACE('',#227,5.);
#183=CYLINDRICAL_SURFACE('',#231,7.5);
#184=ADVANCED_FACE('',(#28),#181,.F.);
#185=ADVANCED_FACE('',(#29),#18,.T.);
#186=ADVANCED_FACE('',(#30),#19,.F.);
#187=ADVANCED_FACE('',(#31),#20,.F.);
#188=ADVANCED_FACE('',(#32),#21,.T.);
#189=ADVANCED_FACE('',(#33),#22,.T.);
#190=ADVANCED_FACE('',(#34),#23,.F.);
#191=ADVANCED_FACE('',(#35),#24,.F.);
#192=ADVANCED_FACE('',(#36,#15),#182,.T.);
#193=ADVANCED_FACE('',(#37,#16),#25,.T.);
#194=ADVANCED_FACE('',(#38),#183,.T.);
#195=ADVANCED_FACE('',(#39,#17),#26,.T.);
#196=ADVANCED_FACE('',(#40),#27,.F.);
#197=CLOSED_SHELL('',(#184,#185,#186,#187,#188,#189,#190,#191,#192,#193,
#194,#195,#196));
#198=DERIVED_UNIT_ELEMENT(#200,1.);
#199=DERIVED_UNIT_ELEMENT(#359,-3.);
#200=(
MASS_UNIT()
NAMED_UNIT(*)
SI_UNIT(.KILO.,.GRAM.)
);
#201=DERIVED_UNIT((#198,#199));
#202=MEASURE_REPRESENTATION_ITEM('density measure',
POSITIVE_RATIO_MEASURE(7850.),#201);
#203=PROPERTY_DEFINITION_REPRESENTATION(#208,#205);
#204=PROPERTY_DEFINITION_REPRESENTATION(#209,#206);
#205=REPRESENTATION('material name',(#207),#356);
#206=REPRESENTATION('density',(#202),#356);
#207=DESCRIPTIVE_REPRESENTATION_ITEM('Steel','Steel');
#208=PROPERTY_DEFINITION('material property','material name',#366);
#209=PROPERTY_DEFINITION('material property','density of part',#366);
#210=AXIS2_PLACEMENT_3D('',#300,#236,#237);
#211=AXIS2_PLACEMENT_3D('',#301,#238,#239);
#212=AXIS2_PLACEMENT_3D('',#303,#240,#241);
#213=AXIS2_PLACEMENT_3D('',#306,#243,#244);
#214=AXIS2_PLACEMENT_3D('',#307,#245,#246);
#215=AXIS2_PLACEMENT_3D('',#308,#247,#248);
#216=AXIS2_PLACEMENT_3D('',#311,#249,#250);
#217=AXIS2_PLACEMENT_3D('',#314,#252,#253);
#218=AXIS2_PLACEMENT_3D('',#315,#254,#255);
#219=AXIS2_PLACEMENT_3D('',#321,#259,#260);
#220=AXIS2_PLACEMENT_3D('',#323,#261,#262);
#221=AXIS2_PLACEMENT_3D('',#324,#263,#264);
#222=AXIS2_PLACEMENT_3D('',#325,#265,#266);
#223=AXIS2_PLACEMENT_3D('',#328,#267,#268);
#224=AXIS2_PLACEMENT_3D('',#330,#270,#271);
#225=AXIS2_PLACEMENT_3D('',#336,#275,#276);
#226=AXIS2_PLACEMENT_3D('',#337,#277,#278);
#227=AXIS2_PLACEMENT_3D('',#338,#279,#280);
#228=AXIS2_PLACEMENT_3D('',#340,#281,#282);
#229=AXIS2_PLACEMENT_3D('',#344,#285,#286);
#230=AXIS2_PLACEMENT_3D('',#345,#287,#288);
#231=AXIS2_PLACEMENT_3D('',#346,#289,#290);
#232=AXIS2_PLACEMENT_3D('',#348,#291,#292);
#233=AXIS2_PLACEMENT_3D('',#351,#294,#295);
#234=AXIS2_PLACEMENT_3D('',#352,#296,#297);
#235=AXIS2_PLACEMENT_3D('',#353,#298,#299);
#236=DIRECTION('axis',(0.,0.,1.));
#237=DIRECTION('refdir',(1.,0.,0.));
#238=DIRECTION('center_axis',(0.,1.,0.));
#239=DIRECTION('ref_axis',(1.,0.,0.));
#240=DIRECTION('center_axis',(0.,1.,0.));
#241=DIRECTION('ref_axis',(1.,0.,0.));
#242=DIRECTION('',(0.,1.,0.));
#243=DIRECTION('center_axis',(0.,-1.,0.));
#244=DIRECTION('ref_axis',(1.,0.,0.));
#245=DIRECTION('center_axis',(0.,1.,0.));
#246=DIRECTION('ref_axis',(1.,0.,0.));
#247=DIRECTION('center_axis',(0.,1.,0.));
#248=DIRECTION('ref_axis',(0.,0.,1.));
#249=DIRECTION('center_axis',(0.,1.,0.));
#250=DIRECTION('ref_axis',(1.,0.,0.));
#251=DIRECTION('',(0.,0.,-1.));
#252=DIRECTION('center_axis',(0.,1.,0.));
#253=DIRECTION('ref_axis',(1.,0.,0.));
#254=DIRECTION('center_axis',(1.,0.,0.));
#255=DIRECTION('ref_axis',(0.,0.,-1.));
#256=DIRECTION('',(0.,1.,0.));
#257=DIRECTION('',(0.,0.,-1.));
#258=DIRECTION('',(0.,-1.,0.));
#259=DIRECTION('center_axis',(0.,1.,0.));
#260=DIRECTION('ref_axis',(1.,0.,0.));
#261=DIRECTION('center_axis',(0.,-1.,0.));
#262=DIRECTION('ref_axis',(1.,0.,0.));
#263=DIRECTION('center_axis',(0.,-1.,0.));
#264=DIRECTION('ref_axis',(1.,0.,0.));
#265=DIRECTION('center_axis',(0.,1.,0.));
#266=DIRECTION('ref_axis',(1.,0.,0.));
#267=DIRECTION('center_axis',(0.,-1.,0.));
#268=DIRECTION('ref_axis',(1.,0.,0.));
#269=DIRECTION('',(0.,0.,-1.));
#270=DIRECTION('center_axis',(-1.,0.,0.));
#271=DIRECTION('ref_axis',(0.,0.,1.));
#272=DIRECTION('',(0.,-1.,0.));
#273=DIRECTION('',(0.,0.,1.));
#274=DIRECTION('',(0.,1.,0.));
#275=DIRECTION('center_axis',(0.,1.,0.));
#276=DIRECTION('ref_axis',(0.,0.,1.));
#277=DIRECTION('center_axis',(0.,1.,0.));
#278=DIRECTION('ref_axis',(1.,0.,0.));
#279=DIRECTION('center_axis',(0.,1.,0.));
#280=DIRECTION('ref_axis',(1.,0.,0.));
#281=DIRECTION('center_axis',(0.,1.,0.));
#282=DIRECTION('ref_axis',(1.,0.,0.));
#283=DIRECTION('',(0.,-1.,0.));
#284=DIRECTION('',(0.,-1.,0.));
#285=DIRECTION('center_axis',(0.,-1.,0.));
#286=DIRECTION('ref_axis',(1.,0.,0.));
#287=DIRECTION('center_axis',(0.,1.,0.));
#288=DIRECTION('ref_axis',(1.,0.,0.));
#289=DIRECTION('center_axis',(0.,1.,0.));
#290=DIRECTION('ref_axis',(1.,0.,0.));
#291=DIRECTION('center_axis',(0.,1.,0.));
#292=DIRECTION('ref_axis',(1.,0.,0.));
#293=DIRECTION('',(0.,-1.,0.));
#294=DIRECTION('center_axis',(0.,1.,0.));
#295=DIRECTION('ref_axis',(1.,0.,0.));
#296=DIRECTION('center_axis',(0.,1.,0.));
#297=DIRECTION('ref_axis',(1.,0.,0.));
#298=DIRECTION('center_axis',(0.,1.,0.));
#299=DIRECTION('ref_axis',(1.,0.,0.));
#300=CARTESIAN_POINT('',(0.,0.,0.));
#301=CARTESIAN_POINT('Origin',(91.9253331742773,82.3,-77.1345131623847));
#302=CARTESIAN_POINT('',(90.2753331742774,82.3,-77.1345131623847));
#303=CARTESIAN_POINT('Origin',(91.9253331742773,82.3,-77.1345131623847));
#304=CARTESIAN_POINT('',(90.2753331742774,90.3,-77.1345131623847));
#305=CARTESIAN_POINT('',(90.2753331742774,82.3,-77.1345131623847));
#306=CARTESIAN_POINT('Origin',(91.9253331742773,90.3,-77.1345131623847));
#307=CARTESIAN_POINT('Origin',(91.9253331742773,82.3,-77.1345131623847));
#308=CARTESIAN_POINT('Origin',(85.3253331742773,85.3,-77.1345131623847));
#309=CARTESIAN_POINT('',(87.7253331742774,85.3,-79.8474451556348));
#310=CARTESIAN_POINT('',(86.9253331742773,85.3,-77.1345131623847));
#311=CARTESIAN_POINT('Origin',(91.9253331742773,85.3,-77.1345131623847));
#312=CARTESIAN_POINT('',(87.7253331742774,85.3,-74.4215811691346));
#313=CARTESIAN_POINT('',(87.7253331742774,85.3,-68.1345131623847));
#314=CARTESIAN_POINT('Origin',(91.9253331742773,85.3,-77.1345131623847));
#315=CARTESIAN_POINT('Origin',(87.7253331742774,63.7,-68.1345131623847));
#316=CARTESIAN_POINT('',(87.7253331742774,63.7,-79.8474451556348));
#317=CARTESIAN_POINT('',(87.7253331742774,58.7,-79.8474451556348));
#318=CARTESIAN_POINT('',(87.7253331742774,63.7,-74.4215811691346));
#319=CARTESIAN_POINT('',(87.7253331742774,63.7,-68.1345131623847));
#320=CARTESIAN_POINT('',(87.7253331742774,58.7,-74.4215811691346));
#321=CARTESIAN_POINT('Origin',(85.3253331742773,63.7,-77.1345131623847));
#322=CARTESIAN_POINT('',(86.9253331742773,63.7,-77.1345131623847));
#323=CARTESIAN_POINT('Origin',(91.9253331742773,63.7,-77.1345131623847));
#324=CARTESIAN_POINT('Origin',(91.9253331742773,63.7,-77.1345131623847));
#325=CARTESIAN_POINT('Origin',(98.5253331742773,63.7,-77.1345131623847));
#326=CARTESIAN_POINT('',(96.1253331742774,63.7,-79.8474451556348));
#327=CARTESIAN_POINT('',(96.1253331742774,63.7,-74.4215811691346));
#328=CARTESIAN_POINT('Origin',(91.9253331742773,63.7,-77.1345131623847));
#329=CARTESIAN_POINT('',(96.1253331742774,63.7,-68.1345131623847));
#330=CARTESIAN_POINT('Origin',(96.1253331742774,63.7,-86.1345131623847));
#331=CARTESIAN_POINT('',(96.1253331742774,85.3,-79.8474451556348));
#332=CARTESIAN_POINT('',(96.1253331742774,58.7,-79.8474451556348));
#333=CARTESIAN_POINT('',(96.1253331742774,85.3,-74.4215811691346));
#334=CARTESIAN_POINT('',(96.1253331742774,85.3,-68.1345131623847));
#335=CARTESIAN_POINT('',(96.1253331742774,58.7,-74.4215811691346));
#336=CARTESIAN_POINT('Origin',(98.5253331742773,85.3,-77.1345131623847));
#337=CARTESIAN_POINT('Origin',(91.9253331742773,85.3,-77.1345131623847));
#338=CARTESIAN_POINT('Origin',(91.9253331742773,58.7,-77.1345131623847));
#339=CARTESIAN_POINT('',(86.9253331742773,90.3,-77.1345131623847));
#340=CARTESIAN_POINT('Origin',(91.9253331742773,90.3,-77.1345131623847));
#341=CARTESIAN_POINT('',(86.9253331742773,58.7,-77.1345131623847));
#342=CARTESIAN_POINT('',(86.9253331742773,58.7,-77.1345131623847));
#343=CARTESIAN_POINT('',(86.9253331742773,58.7,-77.1345131623847));
#344=CARTESIAN_POINT('Origin',(91.9253331742773,58.7,-77.1345131623847));
#345=CARTESIAN_POINT('Origin',(91.9253331742773,90.3,-77.1345131623847));
#346=CARTESIAN_POINT('Origin',(91.9253331742773,55.7,-77.1345131623847));
#347=CARTESIAN_POINT('',(84.4253331742773,58.7,-77.1345131623847));
#348=CARTESIAN_POINT('Origin',(91.9253331742773,58.7,-77.1345131623847));
#349=CARTESIAN_POINT('',(84.4253331742773,55.7,-77.1345131623847));
#350=CARTESIAN_POINT('',(84.4253331742773,55.7,-77.1345131623847));
#351=CARTESIAN_POINT('Origin',(91.9253331742773,55.7,-77.1345131623847));
#352=CARTESIAN_POINT('Origin',(91.9253331742773,58.7,-77.1345131623847));
#353=CARTESIAN_POINT('Origin',(91.9253331742773,55.7,-77.1345131623847));
#354=UNCERTAINTY_MEASURE_WITH_UNIT(LENGTH_MEASURE(0.01),#358,
'DISTANCE_ACCURACY_VALUE',
'Maximum model space distance between geometric entities at asserted c
onnectivities');
#355=UNCERTAINTY_MEASURE_WITH_UNIT(LENGTH_MEASURE(0.01),#358,
'DISTANCE_ACCURACY_VALUE',
'Maximum model space distance between geometric entities at asserted c
onnectivities');
#356=(
GEOMETRIC_REPRESENTATION_CONTEXT(3)
GLOBAL_UNCERTAINTY_ASSIGNED_CONTEXT((#354))
GLOBAL_UNIT_ASSIGNED_CONTEXT((#358,#360,#361))
REPRESENTATION_CONTEXT('','3D')
);
#357=(
GEOMETRIC_REPRESENTATION_CONTEXT(3)
GLOBAL_UNCERTAINTY_ASSIGNED_CONTEXT((#355))
GLOBAL_UNIT_ASSIGNED_CONTEXT((#358,#360,#361))
REPRESENTATION_CONTEXT('','3D')
);
#358=(
LENGTH_UNIT()
NAMED_UNIT(*)
SI_UNIT(.MILLI.,.METRE.)
);
#359=(
LENGTH_UNIT()
NAMED_UNIT(*)
SI_UNIT($,.METRE.)
);
#360=(
NAMED_UNIT(*)
PLANE_ANGLE_UNIT()
SI_UNIT($,.RADIAN.)
);
#361=(
NAMED_UNIT(*)
SI_UNIT($,.STERADIAN.)
SOLID_ANGLE_UNIT()
);
#362=SHAPE_DEFINITION_REPRESENTATION(#363,#364);
#363=PRODUCT_DEFINITION_SHAPE('',$,#366);
#364=SHAPE_REPRESENTATION('',(#210),#356);
#365=PRODUCT_DEFINITION_CONTEXT('part definition',#370,'design');
#366=PRODUCT_DEFINITION('2026-08-08-19-52-18-386','Knee_Axle_L',#367,#365);
#367=PRODUCT_DEFINITION_FORMATION('',$,#372);
#368=PRODUCT_RELATED_PRODUCT_CATEGORY('Knee_Axle_L','Knee_Axle_L',(#372));
#369=APPLICATION_PROTOCOL_DEFINITION('international standard',
'automotive_design',2009,#370);
#370=APPLICATION_CONTEXT(
'Core Data for Automotive Mechanical Design Process');
#371=PRODUCT_CONTEXT('part definition',#370,'mechanical');
#372=PRODUCT('2026-08-08-19-52-18-386','Knee_Axle_L',$,(#371));
#373=PRESENTATION_STYLE_ASSIGNMENT((#374));
#374=SURFACE_STYLE_USAGE(.BOTH.,#375);
#375=SURFACE_SIDE_STYLE('',(#376));
#376=SURFACE_STYLE_FILL_AREA(#377);
#377=FILL_AREA_STYLE('Steel - Satin',(#378));
#378=FILL_AREA_STYLE_COLOUR('Steel - Satin',#379);
#379=COLOUR_RGB('Steel - Satin',0.627450980392157,0.627450980392157,0.627450980392157);
ENDSEC;
END-ISO-10303-21;
