ISO-10303-21;
HEADER;
/* Generated by software containing ST-Developer
 * from STEP Tools, Inc. (www.steptools.com) 
 */

FILE_DESCRIPTION(
/* description */ (''),
/* implementation_level */ '2;1');

FILE_NAME(
/* name */ 'Knee_Sleeve_L.step',
/* time_stamp */ '2026-08-08T19:52:18-07:00',
/* author */ (''),
/* organization */ (''),
/* preprocessor_version */ 'ST-DEVELOPER v20.1',
/* originating_system */ 'Autodesk Translation Framework v15.8.0.0',
/* authorisation */ '');

FILE_SCHEMA (('AUTOMOTIVE_DESIGN { 1 0 10303 214 3 1 1 }'));
ENDSEC;

DATA;
#10=MECHANICAL_DESIGN_GEOMETRIC_PRESENTATION_REPRESENTATION('',(#13),#226);
#11=SHAPE_REPRESENTATION_RELATIONSHIP('SRR','None',#233,#12);
#12=ADVANCED_BREP_SHAPE_REPRESENTATION('',(#14),#225);
#13=STYLED_ITEM('',(#242),#14);
#14=MANIFOLD_SOLID_BREP('Knee_Sleeve_L',#126);
#15=CYLINDRICAL_SURFACE('',#145,5.);
#16=CYLINDRICAL_SURFACE('',#147,5.);
#17=CYLINDRICAL_SURFACE('',#152,8.00000000000001);
#18=FACE_BOUND('',#35,.T.);
#19=FACE_BOUND('',#40,.T.);
#20=CIRCLE('',#142,8.00000000000001);
#21=CIRCLE('',#143,5.);
#22=CIRCLE('',#144,5.);
#23=CIRCLE('',#146,5.);
#24=CIRCLE('',#148,5.);
#25=CIRCLE('',#151,8.00000000000001);
#26=FACE_OUTER_BOUND('',#33,.T.);
#27=FACE_OUTER_BOUND('',#34,.T.);
#28=FACE_OUTER_BOUND('',#36,.T.);
#29=FACE_OUTER_BOUND('',#37,.T.);
#30=FACE_OUTER_BOUND('',#38,.T.);
#31=FACE_OUTER_BOUND('',#39,.T.);
#32=FACE_OUTER_BOUND('',#41,.T.);
#33=EDGE_LOOP('',(#85,#86,#87,#88));
#34=EDGE_LOOP('',(#89));
#35=EDGE_LOOP('',(#90,#91,#92,#93));
#36=EDGE_LOOP('',(#94,#95,#96,#97));
#37=EDGE_LOOP('',(#98,#99,#100,#101));
#38=EDGE_LOOP('',(#102,#103,#104,#105));
#39=EDGE_LOOP('',(#106));
#40=EDGE_LOOP('',(#107,#108,#109,#110));
#41=EDGE_LOOP('',(#111,#112,#113,#114));
#42=LINE('',#194,#51);
#43=LINE('',#196,#52);
#44=LINE('',#198,#53);
#45=LINE('',#199,#54);
#46=LINE('',#206,#55);
#47=LINE('',#211,#56);
#48=LINE('',#214,#57);
#49=LINE('',#217,#58);
#50=LINE('',#222,#59);
#51=VECTOR('',#157,10.);
#52=VECTOR('',#158,10.);
#53=VECTOR('',#159,10.);
#54=VECTOR('',#160,10.);
#55=VECTOR('',#167,10.);
#56=VECTOR('',#174,10.);
#57=VECTOR('',#177,10.);
#58=VECTOR('',#182,10.);
#59=VECTOR('',#189,8.00000000000001);
#60=VERTEX_POINT('',#192);
#61=VERTEX_POINT('',#193);
#62=VERTEX_POINT('',#195);
#63=VERTEX_POINT('',#197);
#64=VERTEX_POINT('',#201);
#65=VERTEX_POINT('',#203);
#66=VERTEX_POINT('',#205);
#67=VERTEX_POINT('',#209);
#68=VERTEX_POINT('',#213);
#69=VERTEX_POINT('',#219);
#70=EDGE_CURVE('',#60,#61,#42,.T.);
#71=EDGE_CURVE('',#62,#60,#43,.T.);
#72=EDGE_CURVE('',#63,#62,#44,.T.);
#73=EDGE_CURVE('',#63,#61,#45,.T.);
#74=EDGE_CURVE('',#64,#64,#20,.T.);
#75=EDGE_CURVE('',#65,#63,#21,.T.);
#76=EDGE_CURVE('',#65,#66,#46,.T.);
#77=EDGE_CURVE('',#61,#66,#22,.T.);
#78=EDGE_CURVE('',#67,#62,#23,.T.);
#79=EDGE_CURVE('',#67,#65,#47,.T.);
#80=EDGE_CURVE('',#66,#68,#48,.T.);
#81=EDGE_CURVE('',#60,#68,#24,.T.);
#82=EDGE_CURVE('',#68,#67,#49,.T.);
#83=EDGE_CURVE('',#69,#69,#25,.T.);
#84=EDGE_CURVE('',#69,#64,#50,.T.);
#85=ORIENTED_EDGE('',*,*,#70,.F.);
#86=ORIENTED_EDGE('',*,*,#71,.F.);
#87=ORIENTED_EDGE('',*,*,#72,.F.);
#88=ORIENTED_EDGE('',*,*,#73,.T.);
#89=ORIENTED_EDGE('',*,*,#74,.F.);
#90=ORIENTED_EDGE('',*,*,#75,.F.);
#91=ORIENTED_EDGE('',*,*,#76,.T.);
#92=ORIENTED_EDGE('',*,*,#77,.F.);
#93=ORIENTED_EDGE('',*,*,#73,.F.);
#94=ORIENTED_EDGE('',*,*,#72,.T.);
#95=ORIENTED_EDGE('',*,*,#78,.F.);
#96=ORIENTED_EDGE('',*,*,#79,.T.);
#97=ORIENTED_EDGE('',*,*,#75,.T.);
#98=ORIENTED_EDGE('',*,*,#70,.T.);
#99=ORIENTED_EDGE('',*,*,#77,.T.);
#100=ORIENTED_EDGE('',*,*,#80,.T.);
#101=ORIENTED_EDGE('',*,*,#81,.F.);
#102=ORIENTED_EDGE('',*,*,#80,.F.);
#103=ORIENTED_EDGE('',*,*,#76,.F.);
#104=ORIENTED_EDGE('',*,*,#79,.F.);
#105=ORIENTED_EDGE('',*,*,#82,.F.);
#106=ORIENTED_EDGE('',*,*,#83,.T.);
#107=ORIENTED_EDGE('',*,*,#81,.T.);
#108=ORIENTED_EDGE('',*,*,#82,.T.);
#109=ORIENTED_EDGE('',*,*,#78,.T.);
#110=ORIENTED_EDGE('',*,*,#71,.T.);
#111=ORIENTED_EDGE('',*,*,#83,.F.);
#112=ORIENTED_EDGE('',*,*,#84,.T.);
#113=ORIENTED_EDGE('',*,*,#74,.T.);
#114=ORIENTED_EDGE('',*,*,#84,.F.);
#115=PLANE('',#140);
#116=PLANE('',#141);
#117=PLANE('',#149);
#118=PLANE('',#150);
#119=ADVANCED_FACE('',(#26),#115,.T.);
#120=ADVANCED_FACE('',(#27,#18),#116,.F.);
#121=ADVANCED_FACE('',(#28),#15,.F.);
#122=ADVANCED_FACE('',(#29),#16,.F.);
#123=ADVANCED_FACE('',(#30),#117,.T.);
#124=ADVANCED_FACE('',(#31,#19),#118,.T.);
#125=ADVANCED_FACE('',(#32),#17,.T.);
#126=CLOSED_SHELL('',(#119,#120,#121,#122,#123,#124,#125));
#127=DERIVED_UNIT_ELEMENT(#129,1.);
#128=DERIVED_UNIT_ELEMENT(#228,-3.);
#129=(
MASS_UNIT()
NAMED_UNIT(*)
SI_UNIT(.KILO.,.GRAM.)
);
#130=DERIVED_UNIT((#127,#128));
#131=MEASURE_REPRESENTATION_ITEM('density measure',
POSITIVE_RATIO_MEASURE(7850.),#130);
#132=PROPERTY_DEFINITION_REPRESENTATION(#137,#134);
#133=PROPERTY_DEFINITION_REPRESENTATION(#138,#135);
#134=REPRESENTATION('material name',(#136),#225);
#135=REPRESENTATION('density',(#131),#225);
#136=DESCRIPTIVE_REPRESENTATION_ITEM('Steel','Steel');
#137=PROPERTY_DEFINITION('material property','material name',#235);
#138=PROPERTY_DEFINITION('material property','density of part',#235);
#139=AXIS2_PLACEMENT_3D('',#190,#153,#154);
#140=AXIS2_PLACEMENT_3D('',#191,#155,#156);
#141=AXIS2_PLACEMENT_3D('',#200,#161,#162);
#142=AXIS2_PLACEMENT_3D('',#202,#163,#164);
#143=AXIS2_PLACEMENT_3D('',#204,#165,#166);
#144=AXIS2_PLACEMENT_3D('',#207,#168,#169);
#145=AXIS2_PLACEMENT_3D('',#208,#170,#171);
#146=AXIS2_PLACEMENT_3D('',#210,#172,#173);
#147=AXIS2_PLACEMENT_3D('',#212,#175,#176);
#148=AXIS2_PLACEMENT_3D('',#215,#178,#179);
#149=AXIS2_PLACEMENT_3D('',#216,#180,#181);
#150=AXIS2_PLACEMENT_3D('',#218,#183,#184);
#151=AXIS2_PLACEMENT_3D('',#220,#185,#186);
#152=AXIS2_PLACEMENT_3D('',#221,#187,#188);
#153=DIRECTION('axis',(0.,0.,1.));
#154=DIRECTION('refdir',(1.,0.,0.));
#155=DIRECTION('center_axis',(1.,0.,0.));
#156=DIRECTION('ref_axis',(0.,0.,-1.));
#157=DIRECTION('',(0.,-1.,0.));
#158=DIRECTION('',(0.,0.,-1.));
#159=DIRECTION('',(0.,1.,0.));
#160=DIRECTION('',(0.,0.,-1.));
#161=DIRECTION('center_axis',(0.,1.,0.));
#162=DIRECTION('ref_axis',(1.,0.,0.));
#163=DIRECTION('center_axis',(0.,1.,0.));
#164=DIRECTION('ref_axis',(1.,0.,0.));
#165=DIRECTION('center_axis',(0.,-1.,0.));
#166=DIRECTION('ref_axis',(1.,0.,0.));
#167=DIRECTION('',(0.,0.,-1.));
#168=DIRECTION('center_axis',(0.,-1.,0.));
#169=DIRECTION('ref_axis',(1.,0.,0.));
#170=DIRECTION('center_axis',(0.,1.,0.));
#171=DIRECTION('ref_axis',(1.,0.,0.));
#172=DIRECTION('center_axis',(0.,-1.,0.));
#173=DIRECTION('ref_axis',(1.,0.,0.));
#174=DIRECTION('',(0.,-1.,0.));
#175=DIRECTION('center_axis',(0.,1.,0.));
#176=DIRECTION('ref_axis',(1.,0.,0.));
#177=DIRECTION('',(0.,1.,0.));
#178=DIRECTION('center_axis',(0.,-1.,0.));
#179=DIRECTION('ref_axis',(1.,0.,0.));
#180=DIRECTION('center_axis',(-1.,0.,0.));
#181=DIRECTION('ref_axis',(0.,0.,1.));
#182=DIRECTION('',(0.,0.,1.));
#183=DIRECTION('center_axis',(0.,1.,0.));
#184=DIRECTION('ref_axis',(1.,0.,0.));
#185=DIRECTION('center_axis',(0.,1.,0.));
#186=DIRECTION('ref_axis',(1.,0.,0.));
#187=DIRECTION('center_axis',(0.,1.,0.));
#188=DIRECTION('ref_axis',(1.,0.,0.));
#189=DIRECTION('',(0.,-1.,0.));
#190=CARTESIAN_POINT('',(0.,0.,0.));
#191=CARTESIAN_POINT('Origin',(87.6253331742774,63.7,-74.3845131623847));
#192=CARTESIAN_POINT('',(87.6253331742774,85.3,-79.6859833268193));
#193=CARTESIAN_POINT('',(87.6253331742774,63.7,-79.6859833268193));
#194=CARTESIAN_POINT('',(87.6253331742774,63.7,-79.6859833268193));
#195=CARTESIAN_POINT('',(87.6253331742774,85.3,-74.5830429979501));
#196=CARTESIAN_POINT('',(87.6253331742774,85.3,-74.3845131623847));
#197=CARTESIAN_POINT('',(87.6253331742774,63.7,-74.5830429979501));
#198=CARTESIAN_POINT('',(87.6253331742774,63.7,-74.5830429979501));
#199=CARTESIAN_POINT('',(87.6253331742774,63.7,-74.3845131623847));
#200=CARTESIAN_POINT('Origin',(91.9253331742773,63.7,-77.1345131623847));
#201=CARTESIAN_POINT('',(83.9253331742773,63.7,-77.1345131623847));
#202=CARTESIAN_POINT('Origin',(91.9253331742773,63.7,-77.1345131623847));
#203=CARTESIAN_POINT('',(96.2253331742774,63.7,-74.5830429979501));
#204=CARTESIAN_POINT('Origin',(91.9253331742773,63.7,-77.1345131623847));
#205=CARTESIAN_POINT('',(96.2253331742774,63.7,-79.6859833268193));
#206=CARTESIAN_POINT('',(96.2253331742774,63.7,-74.3845131623847));
#207=CARTESIAN_POINT('Origin',(91.9253331742773,63.7,-77.1345131623847));
#208=CARTESIAN_POINT('Origin',(91.9253331742773,63.7,-77.1345131623847));
#209=CARTESIAN_POINT('',(96.2253331742774,85.3,-74.5830429979501));
#210=CARTESIAN_POINT('Origin',(91.9253331742773,85.3,-77.1345131623847));
#211=CARTESIAN_POINT('',(96.2253331742774,63.7,-74.5830429979501));
#212=CARTESIAN_POINT('Origin',(91.9253331742773,63.7,-77.1345131623847));
#213=CARTESIAN_POINT('',(96.2253331742774,85.3,-79.6859833268193));
#214=CARTESIAN_POINT('',(96.2253331742774,63.7,-79.6859833268193));
#215=CARTESIAN_POINT('Origin',(91.9253331742773,85.3,-77.1345131623847));
#216=CARTESIAN_POINT('Origin',(96.2253331742774,63.7,-79.8845131623847));
#217=CARTESIAN_POINT('',(96.2253331742774,85.3,-74.3845131623847));
#218=CARTESIAN_POINT('Origin',(91.9253331742773,85.3,-77.1345131623847));
#219=CARTESIAN_POINT('',(83.9253331742773,85.3,-77.1345131623847));
#220=CARTESIAN_POINT('Origin',(91.9253331742773,85.3,-77.1345131623847));
#221=CARTESIAN_POINT('Origin',(91.9253331742773,63.7,-77.1345131623847));
#222=CARTESIAN_POINT('',(83.9253331742773,63.7,-77.1345131623847));
#223=UNCERTAINTY_MEASURE_WITH_UNIT(LENGTH_MEASURE(0.01),#227,
'DISTANCE_ACCURACY_VALUE',
'Maximum model space distance between geometric entities at asserted c
onnectivities');
#224=UNCERTAINTY_MEASURE_WITH_UNIT(LENGTH_MEASURE(0.01),#227,
'DISTANCE_ACCURACY_VALUE',
'Maximum model space distance between geometric entities at asserted c
onnectivities');
#225=(
GEOMETRIC_REPRESENTATION_CONTEXT(3)
GLOBAL_UNCERTAINTY_ASSIGNED_CONTEXT((#223))
GLOBAL_UNIT_ASSIGNED_CONTEXT((#227,#229,#230))
REPRESENTATION_CONTEXT('','3D')
);
#226=(
GEOMETRIC_REPRESENTATION_CONTEXT(3)
GLOBAL_UNCERTAINTY_ASSIGNED_CONTEXT((#224))
GLOBAL_UNIT_ASSIGNED_CONTEXT((#227,#229,#230))
REPRESENTATION_CONTEXT('','3D')
);
#227=(
LENGTH_UNIT()
NAMED_UNIT(*)
SI_UNIT(.MILLI.,.METRE.)
);
#228=(
LENGTH_UNIT()
NAMED_UNIT(*)
SI_UNIT($,.METRE.)
);
#229=(
NAMED_UNIT(*)
PLANE_ANGLE_UNIT()
SI_UNIT($,.RADIAN.)
);
#230=(
NAMED_UNIT(*)
SI_UNIT($,.STERADIAN.)
SOLID_ANGLE_UNIT()
);
#231=SHAPE_DEFINITION_REPRESENTATION(#232,#233);
#232=PRODUCT_DEFINITION_SHAPE('',$,#235);
#233=SHAPE_REPRESENTATION('',(#139),#225);
#234=PRODUCT_DEFINITION_CONTEXT('part definition',#239,'design');
#235=PRODUCT_DEFINITION('2026-08-08-19-52-18-602','Knee_Sleeve_L',#236,
#234);
#236=PRODUCT_DEFINITION_FORMATION('',$,#241);
#237=PRODUCT_RELATED_PRODUCT_CATEGORY('Knee_Sleeve_L','Knee_Sleeve_L',(#241));
#238=APPLICATION_PROTOCOL_DEFINITION('international standard',
'automotive_design',2009,#239);
#239=APPLICATION_CONTEXT(
'Core Data for Automotive Mechanical Design Process');
#240=PRODUCT_CONTEXT('part definition',#239,'mechanical');
#241=PRODUCT('2026-08-08-19-52-18-602','Knee_Sleeve_L',$,(#240));
#242=PRESENTATION_STYLE_ASSIGNMENT((#243));
#243=SURFACE_STYLE_USAGE(.BOTH.,#244);
#244=SURFACE_SIDE_STYLE('',(#245));
#245=SURFACE_STYLE_FILL_AREA(#246);
#246=FILL_AREA_STYLE('Steel - Satin',(#247));
#247=FILL_AREA_STYLE_COLOUR('Steel - Satin',#248);
#248=COLOUR_RGB('Steel - Satin',0.627450980392157,0.627450980392157,0.627450980392157);
ENDSEC;
END-ISO-10303-21;
