ISO-10303-21;
HEADER;
/* Generated by software containing ST-Developer
 * from STEP Tools, Inc. (www.steptools.com) 
 */

FILE_DESCRIPTION(
/* description */ (''),
/* implementation_level */ '2;1');

FILE_NAME(
/* name */ 'Cart_Lower_Eye_L.step',
/* time_stamp */ '2026-08-08T19:52:18-07:00',
/* author */ (''),
/* organization */ (''),
/* preprocessor_version */ 'ST-DEVELOPER v20.1',
/* originating_system */ 'Autodesk Translation Framework v15.8.0.0',
/* authorisation */ '');

FILE_SCHEMA (('AUTOMOTIVE_DESIGN { 1 0 10303 214 3 1 1 }'));
ENDSEC;

DATA;
#10=MECHANICAL_DESIGN_GEOMETRIC_PRESENTATION_REPRESENTATION('',(#13),#446);
#11=SHAPE_REPRESENTATION_RELATIONSHIP('SRR','None',#453,#12);
#12=ADVANCED_BREP_SHAPE_REPRESENTATION('',(#14),#445);
#13=STYLED_ITEM('',(#463),#14);
#14=MANIFOLD_SOLID_BREP('Cart_Lower_Eye_L',#262);
#15=FACE_BOUND('',#49,.T.);
#16=FACE_BOUND('',#53,.T.);
#17=FACE_BOUND('',#58,.T.);
#18=FACE_BOUND('',#63,.T.);
#19=PLANE('',#279);
#20=PLANE('',#283);
#21=PLANE('',#287);
#22=PLANE('',#288);
#23=PLANE('',#289);
#24=PLANE('',#290);
#25=PLANE('',#291);
#26=PLANE('',#292);
#27=PLANE('',#294);
#28=PLANE('',#295);
#29=PLANE('',#298);
#30=FACE_OUTER_BOUND('',#45,.T.);
#31=FACE_OUTER_BOUND('',#46,.T.);
#32=FACE_OUTER_BOUND('',#47,.T.);
#33=FACE_OUTER_BOUND('',#48,.T.);
#34=FACE_OUTER_BOUND('',#50,.T.);
#35=FACE_OUTER_BOUND('',#51,.T.);
#36=FACE_OUTER_BOUND('',#52,.T.);
#37=FACE_OUTER_BOUND('',#54,.T.);
#38=FACE_OUTER_BOUND('',#55,.T.);
#39=FACE_OUTER_BOUND('',#56,.T.);
#40=FACE_OUTER_BOUND('',#57,.T.);
#41=FACE_OUTER_BOUND('',#59,.T.);
#42=FACE_OUTER_BOUND('',#60,.T.);
#43=FACE_OUTER_BOUND('',#61,.T.);
#44=FACE_OUTER_BOUND('',#62,.T.);
#45=EDGE_LOOP('',(#177,#178,#179,#180));
#46=EDGE_LOOP('',(#181));
#47=EDGE_LOOP('',(#182,#183,#184,#185));
#48=EDGE_LOOP('',(#186));
#49=EDGE_LOOP('',(#187));
#50=EDGE_LOOP('',(#188,#189,#190,#191));
#51=EDGE_LOOP('',(#192,#193,#194,#195));
#52=EDGE_LOOP('',(#196,#197,#198,#199));
#53=EDGE_LOOP('',(#200));
#54=EDGE_LOOP('',(#201,#202,#203,#204));
#55=EDGE_LOOP('',(#205,#206,#207,#208));
#56=EDGE_LOOP('',(#209,#210,#211,#212));
#57=EDGE_LOOP('',(#213,#214,#215,#216,#217,#218,#219,#220));
#58=EDGE_LOOP('',(#221));
#59=EDGE_LOOP('',(#222,#223,#224,#225));
#60=EDGE_LOOP('',(#226,#227,#228,#229));
#61=EDGE_LOOP('',(#230,#231,#232,#233));
#62=EDGE_LOOP('',(#234,#235,#236,#237,#238,#239,#240,#241));
#63=EDGE_LOOP('',(#242));
#64=LINE('',#377,#89);
#65=LINE('',#384,#90);
#66=LINE('',#391,#91);
#67=LINE('',#396,#92);
#68=LINE('',#398,#93);
#69=LINE('',#400,#94);
#70=LINE('',#401,#95);
#71=LINE('',#405,#96);
#72=LINE('',#407,#97);
#73=LINE('',#409,#98);
#74=LINE('',#410,#99);
#75=LINE('',#412,#100);
#76=LINE('',#413,#101);
#77=LINE('',#417,#102);
#78=LINE('',#419,#103);
#79=LINE('',#421,#104);
#80=LINE('',#422,#105);
#81=LINE('',#424,#106);
#82=LINE('',#425,#107);
#83=LINE('',#428,#108);
#84=LINE('',#431,#109);
#85=LINE('',#434,#110);
#86=LINE('',#435,#111);
#87=LINE('',#438,#112);
#88=LINE('',#439,#113);
#89=VECTOR('',#305,2.075);
#90=VECTOR('',#314,2.8);
#91=VECTOR('',#323,6.69999999999999);
#92=VECTOR('',#328,10.);
#93=VECTOR('',#329,10.);
#94=VECTOR('',#330,10.);
#95=VECTOR('',#331,10.);
#96=VECTOR('',#334,10.);
#97=VECTOR('',#335,10.);
#98=VECTOR('',#336,10.);
#99=VECTOR('',#337,10.);
#100=VECTOR('',#340,10.);
#101=VECTOR('',#341,10.);
#102=VECTOR('',#344,10.);
#103=VECTOR('',#345,10.);
#104=VECTOR('',#346,10.);
#105=VECTOR('',#347,10.);
#106=VECTOR('',#350,10.);
#107=VECTOR('',#351,10.);
#108=VECTOR('',#354,10.);
#109=VECTOR('',#357,10.);
#110=VECTOR('',#360,10.);
#111=VECTOR('',#361,10.);
#112=VECTOR('',#364,10.);
#113=VECTOR('',#365,10.);
#114=CIRCLE('',#277,2.075);
#115=CIRCLE('',#278,2.075);
#116=CIRCLE('',#280,2.8);
#117=CIRCLE('',#282,2.8);
#118=CIRCLE('',#284,6.7);
#119=CIRCLE('',#286,6.69999999999999);
#120=CIRCLE('',#293,6.49999999999999);
#121=CIRCLE('',#297,6.49999999999999);
#122=VERTEX_POINT('',#374);
#123=VERTEX_POINT('',#376);
#124=VERTEX_POINT('',#380);
#125=VERTEX_POINT('',#383);
#126=VERTEX_POINT('',#387);
#127=VERTEX_POINT('',#390);
#128=VERTEX_POINT('',#394);
#129=VERTEX_POINT('',#395);
#130=VERTEX_POINT('',#397);
#131=VERTEX_POINT('',#399);
#132=VERTEX_POINT('',#403);
#133=VERTEX_POINT('',#404);
#134=VERTEX_POINT('',#406);
#135=VERTEX_POINT('',#408);
#136=VERTEX_POINT('',#415);
#137=VERTEX_POINT('',#416);
#138=VERTEX_POINT('',#418);
#139=VERTEX_POINT('',#420);
#140=VERTEX_POINT('',#427);
#141=VERTEX_POINT('',#429);
#142=VERTEX_POINT('',#433);
#143=VERTEX_POINT('',#437);
#144=EDGE_CURVE('',#122,#122,#114,.T.);
#145=EDGE_CURVE('',#122,#123,#64,.T.);
#146=EDGE_CURVE('',#123,#123,#115,.T.);
#147=EDGE_CURVE('',#124,#124,#116,.T.);
#148=EDGE_CURVE('',#124,#125,#65,.T.);
#149=EDGE_CURVE('',#125,#125,#117,.T.);
#150=EDGE_CURVE('',#126,#126,#118,.T.);
#151=EDGE_CURVE('',#126,#127,#66,.T.);
#152=EDGE_CURVE('',#127,#127,#119,.T.);
#153=EDGE_CURVE('',#128,#129,#67,.T.);
#154=EDGE_CURVE('',#130,#128,#68,.T.);
#155=EDGE_CURVE('',#130,#131,#69,.T.);
#156=EDGE_CURVE('',#129,#131,#70,.T.);
#157=EDGE_CURVE('',#132,#133,#71,.T.);
#158=EDGE_CURVE('',#132,#134,#72,.T.);
#159=EDGE_CURVE('',#135,#134,#73,.T.);
#160=EDGE_CURVE('',#133,#135,#74,.T.);
#161=EDGE_CURVE('',#133,#130,#75,.T.);
#162=EDGE_CURVE('',#131,#135,#76,.T.);
#163=EDGE_CURVE('',#136,#137,#77,.T.);
#164=EDGE_CURVE('',#138,#137,#78,.T.);
#165=EDGE_CURVE('',#139,#138,#79,.T.);
#166=EDGE_CURVE('',#136,#139,#80,.T.);
#167=EDGE_CURVE('',#139,#132,#81,.T.);
#168=EDGE_CURVE('',#134,#138,#82,.T.);
#169=EDGE_CURVE('',#140,#128,#83,.T.);
#170=EDGE_CURVE('',#141,#140,#120,.T.);
#171=EDGE_CURVE('',#136,#141,#84,.T.);
#172=EDGE_CURVE('',#141,#142,#85,.T.);
#173=EDGE_CURVE('',#137,#142,#86,.T.);
#174=EDGE_CURVE('',#143,#129,#87,.T.);
#175=EDGE_CURVE('',#140,#143,#88,.T.);
#176=EDGE_CURVE('',#142,#143,#121,.T.);
#177=ORIENTED_EDGE('',*,*,#144,.F.);
#178=ORIENTED_EDGE('',*,*,#145,.T.);
#179=ORIENTED_EDGE('',*,*,#146,.F.);
#180=ORIENTED_EDGE('',*,*,#145,.F.);
#181=ORIENTED_EDGE('',*,*,#147,.T.);
#182=ORIENTED_EDGE('',*,*,#147,.F.);
#183=ORIENTED_EDGE('',*,*,#148,.T.);
#184=ORIENTED_EDGE('',*,*,#149,.F.);
#185=ORIENTED_EDGE('',*,*,#148,.F.);
#186=ORIENTED_EDGE('',*,*,#150,.T.);
#187=ORIENTED_EDGE('',*,*,#149,.T.);
#188=ORIENTED_EDGE('',*,*,#150,.F.);
#189=ORIENTED_EDGE('',*,*,#151,.T.);
#190=ORIENTED_EDGE('',*,*,#152,.F.);
#191=ORIENTED_EDGE('',*,*,#151,.F.);
#192=ORIENTED_EDGE('',*,*,#153,.F.);
#193=ORIENTED_EDGE('',*,*,#154,.F.);
#194=ORIENTED_EDGE('',*,*,#155,.T.);
#195=ORIENTED_EDGE('',*,*,#156,.F.);
#196=ORIENTED_EDGE('',*,*,#157,.F.);
#197=ORIENTED_EDGE('',*,*,#158,.T.);
#198=ORIENTED_EDGE('',*,*,#159,.F.);
#199=ORIENTED_EDGE('',*,*,#160,.F.);
#200=ORIENTED_EDGE('',*,*,#152,.T.);
#201=ORIENTED_EDGE('',*,*,#161,.F.);
#202=ORIENTED_EDGE('',*,*,#160,.T.);
#203=ORIENTED_EDGE('',*,*,#162,.F.);
#204=ORIENTED_EDGE('',*,*,#155,.F.);
#205=ORIENTED_EDGE('',*,*,#163,.T.);
#206=ORIENTED_EDGE('',*,*,#164,.F.);
#207=ORIENTED_EDGE('',*,*,#165,.F.);
#208=ORIENTED_EDGE('',*,*,#166,.F.);
#209=ORIENTED_EDGE('',*,*,#167,.F.);
#210=ORIENTED_EDGE('',*,*,#165,.T.);
#211=ORIENTED_EDGE('',*,*,#168,.F.);
#212=ORIENTED_EDGE('',*,*,#158,.F.);
#213=ORIENTED_EDGE('',*,*,#169,.F.);
#214=ORIENTED_EDGE('',*,*,#170,.F.);
#215=ORIENTED_EDGE('',*,*,#171,.F.);
#216=ORIENTED_EDGE('',*,*,#166,.T.);
#217=ORIENTED_EDGE('',*,*,#167,.T.);
#218=ORIENTED_EDGE('',*,*,#157,.T.);
#219=ORIENTED_EDGE('',*,*,#161,.T.);
#220=ORIENTED_EDGE('',*,*,#154,.T.);
#221=ORIENTED_EDGE('',*,*,#144,.T.);
#222=ORIENTED_EDGE('',*,*,#171,.T.);
#223=ORIENTED_EDGE('',*,*,#172,.T.);
#224=ORIENTED_EDGE('',*,*,#173,.F.);
#225=ORIENTED_EDGE('',*,*,#163,.F.);
#226=ORIENTED_EDGE('',*,*,#169,.T.);
#227=ORIENTED_EDGE('',*,*,#153,.T.);
#228=ORIENTED_EDGE('',*,*,#174,.F.);
#229=ORIENTED_EDGE('',*,*,#175,.F.);
#230=ORIENTED_EDGE('',*,*,#170,.T.);
#231=ORIENTED_EDGE('',*,*,#175,.T.);
#232=ORIENTED_EDGE('',*,*,#176,.F.);
#233=ORIENTED_EDGE('',*,*,#172,.F.);
#234=ORIENTED_EDGE('',*,*,#173,.T.);
#235=ORIENTED_EDGE('',*,*,#176,.T.);
#236=ORIENTED_EDGE('',*,*,#174,.T.);
#237=ORIENTED_EDGE('',*,*,#156,.T.);
#238=ORIENTED_EDGE('',*,*,#162,.T.);
#239=ORIENTED_EDGE('',*,*,#159,.T.);
#240=ORIENTED_EDGE('',*,*,#168,.T.);
#241=ORIENTED_EDGE('',*,*,#164,.T.);
#242=ORIENTED_EDGE('',*,*,#146,.T.);
#243=CYLINDRICAL_SURFACE('',#276,2.075);
#244=CYLINDRICAL_SURFACE('',#281,2.8);
#245=CYLINDRICAL_SURFACE('',#285,6.69999999999999);
#246=CYLINDRICAL_SURFACE('',#296,6.49999999999999);
#247=ADVANCED_FACE('',(#30),#243,.F.);
#248=ADVANCED_FACE('',(#31),#19,.F.);
#249=ADVANCED_FACE('',(#32),#244,.F.);
#250=ADVANCED_FACE('',(#33,#15),#20,.T.);
#251=ADVANCED_FACE('',(#34),#245,.T.);
#252=ADVANCED_FACE('',(#35),#21,.T.);
#253=ADVANCED_FACE('',(#36,#16),#22,.T.);
#254=ADVANCED_FACE('',(#37),#23,.T.);
#255=ADVANCED_FACE('',(#38),#24,.T.);
#256=ADVANCED_FACE('',(#39),#25,.T.);
#257=ADVANCED_FACE('',(#40,#17),#26,.F.);
#258=ADVANCED_FACE('',(#41),#27,.T.);
#259=ADVANCED_FACE('',(#42),#28,.T.);
#260=ADVANCED_FACE('',(#43),#246,.T.);
#261=ADVANCED_FACE('',(#44,#18),#29,.T.);
#262=CLOSED_SHELL('',(#247,#248,#249,#250,#251,#252,#253,#254,#255,#256,
#257,#258,#259,#260,#261));
#263=DERIVED_UNIT_ELEMENT(#265,1.);
#264=DERIVED_UNIT_ELEMENT(#448,-3.);
#265=(
MASS_UNIT()
NAMED_UNIT(*)
SI_UNIT(.KILO.,.GRAM.)
);
#266=DERIVED_UNIT((#263,#264));
#267=MEASURE_REPRESENTATION_ITEM('density measure',
POSITIVE_RATIO_MEASURE(7850.),#266);
#268=PROPERTY_DEFINITION_REPRESENTATION(#273,#270);
#269=PROPERTY_DEFINITION_REPRESENTATION(#274,#271);
#270=REPRESENTATION('material name',(#272),#445);
#271=REPRESENTATION('density',(#267),#445);
#272=DESCRIPTIVE_REPRESENTATION_ITEM('Steel','Steel');
#273=PROPERTY_DEFINITION('material property','material name',#455);
#274=PROPERTY_DEFINITION('material property','density of part',#455);
#275=AXIS2_PLACEMENT_3D('',#372,#299,#300);
#276=AXIS2_PLACEMENT_3D('',#373,#301,#302);
#277=AXIS2_PLACEMENT_3D('',#375,#303,#304);
#278=AXIS2_PLACEMENT_3D('',#378,#306,#307);
#279=AXIS2_PLACEMENT_3D('',#379,#308,#309);
#280=AXIS2_PLACEMENT_3D('',#381,#310,#311);
#281=AXIS2_PLACEMENT_3D('',#382,#312,#313);
#282=AXIS2_PLACEMENT_3D('',#385,#315,#316);
#283=AXIS2_PLACEMENT_3D('',#386,#317,#318);
#284=AXIS2_PLACEMENT_3D('',#388,#319,#320);
#285=AXIS2_PLACEMENT_3D('',#389,#321,#322);
#286=AXIS2_PLACEMENT_3D('',#392,#324,#325);
#287=AXIS2_PLACEMENT_3D('',#393,#326,#327);
#288=AXIS2_PLACEMENT_3D('',#402,#332,#333);
#289=AXIS2_PLACEMENT_3D('',#411,#338,#339);
#290=AXIS2_PLACEMENT_3D('',#414,#342,#343);
#291=AXIS2_PLACEMENT_3D('',#423,#348,#349);
#292=AXIS2_PLACEMENT_3D('',#426,#352,#353);
#293=AXIS2_PLACEMENT_3D('',#430,#355,#356);
#294=AXIS2_PLACEMENT_3D('',#432,#358,#359);
#295=AXIS2_PLACEMENT_3D('',#436,#362,#363);
#296=AXIS2_PLACEMENT_3D('',#440,#366,#367);
#297=AXIS2_PLACEMENT_3D('',#441,#368,#369);
#298=AXIS2_PLACEMENT_3D('',#442,#370,#371);
#299=DIRECTION('axis',(0.,0.,1.));
#300=DIRECTION('refdir',(1.,0.,0.));
#301=DIRECTION('center_axis',(0.,1.,0.));
#302=DIRECTION('ref_axis',(1.,0.,0.));
#303=DIRECTION('center_axis',(0.,1.,0.));
#304=DIRECTION('ref_axis',(1.,0.,0.));
#305=DIRECTION('',(0.,1.,0.));
#306=DIRECTION('center_axis',(0.,-1.,0.));
#307=DIRECTION('ref_axis',(1.,0.,0.));
#308=DIRECTION('center_axis',(-0.138688160736021,0.,-0.990336101569391));
#309=DIRECTION('ref_axis',(-0.990336101569391,0.,0.138688160736021));
#310=DIRECTION('center_axis',(0.138688160736021,0.,0.990336101569391));
#311=DIRECTION('ref_axis',(0.990336101569391,0.,-0.138688160736021));
#312=DIRECTION('center_axis',(0.138688160736021,0.,0.990336101569391));
#313=DIRECTION('ref_axis',(0.990336101569391,0.,-0.138688160736021));
#314=DIRECTION('',(0.138688160736021,0.,0.990336101569391));
#315=DIRECTION('center_axis',(-0.138688160736021,0.,-0.990336101569391));
#316=DIRECTION('ref_axis',(0.990336101569391,0.,-0.138688160736021));
#317=DIRECTION('center_axis',(0.138688160736021,0.,0.990336101569391));
#318=DIRECTION('ref_axis',(0.990336101569391,0.,-0.138688160736021));
#319=DIRECTION('center_axis',(0.138688160736021,0.,0.990336101569391));
#320=DIRECTION('ref_axis',(0.990336101569391,0.,-0.138688160736021));
#321=DIRECTION('center_axis',(0.138688160736021,0.,0.990336101569391));
#322=DIRECTION('ref_axis',(0.990336101569391,0.,-0.138688160736021));
#323=DIRECTION('',(-0.138688160736021,0.,-0.990336101569391));
#324=DIRECTION('center_axis',(-0.138688160736021,0.,-0.990336101569391));
#325=DIRECTION('ref_axis',(0.990336101569391,0.,-0.138688160736021));
#326=DIRECTION('center_axis',(-0.138688160736021,0.,-0.990336101569391));
#327=DIRECTION('ref_axis',(-0.990336101569391,0.,0.138688160736021));
#328=DIRECTION('',(0.,1.,0.));
#329=DIRECTION('',(0.990336101569391,0.,-0.138688160736021));
#330=DIRECTION('',(0.,1.,0.));
#331=DIRECTION('',(-0.990336101569391,0.,0.138688160736021));
#332=DIRECTION('center_axis',(0.138688160736021,0.,0.990336101569391));
#333=DIRECTION('ref_axis',(0.990336101569391,0.,-0.138688160736021));
#334=DIRECTION('',(-0.990336101569391,0.,0.138688160736021));
#335=DIRECTION('',(0.,1.,0.));
#336=DIRECTION('',(0.990336101569391,0.,-0.138688160736021));
#337=DIRECTION('',(0.,1.,0.));
#338=DIRECTION('center_axis',(-0.990336101569391,0.,0.138688160736021));
#339=DIRECTION('ref_axis',(0.138688160736021,0.,0.990336101569391));
#340=DIRECTION('',(-0.138688160736021,0.,-0.990336101569391));
#341=DIRECTION('',(0.138688160736021,0.,0.990336101569391));
#342=DIRECTION('center_axis',(-0.138688160736021,0.,-0.990336101569391));
#343=DIRECTION('ref_axis',(-0.990336101569391,0.,0.138688160736021));
#344=DIRECTION('',(0.,1.,0.));
#345=DIRECTION('',(-0.990336101569391,0.,0.138688160736021));
#346=DIRECTION('',(0.,1.,0.));
#347=DIRECTION('',(0.990336101569391,0.,-0.138688160736021));
#348=DIRECTION('center_axis',(0.990336101569391,0.,-0.138688160736022));
#349=DIRECTION('ref_axis',(-0.138688160736022,0.,-0.990336101569391));
#350=DIRECTION('',(0.138688160736022,0.,0.990336101569391));
#351=DIRECTION('',(-0.138688160736022,0.,-0.990336101569391));
#352=DIRECTION('center_axis',(0.,1.,0.));
#353=DIRECTION('ref_axis',(1.,0.,0.));
#354=DIRECTION('',(0.138688160736021,0.,0.990336101569391));
#355=DIRECTION('center_axis',(0.,1.,0.));
#356=DIRECTION('ref_axis',(0.990336101569392,0.,-0.138688160736019));
#357=DIRECTION('',(-0.138688160736025,0.,-0.990336101569391));
#358=DIRECTION('center_axis',(0.990336101569391,0.,-0.138688160736025));
#359=DIRECTION('ref_axis',(-0.138688160736025,0.,-0.990336101569391));
#360=DIRECTION('',(0.,1.,0.));
#361=DIRECTION('',(-0.138688160736025,0.,-0.990336101569391));
#362=DIRECTION('center_axis',(-0.990336101569391,0.,0.138688160736021));
#363=DIRECTION('ref_axis',(0.138688160736021,0.,0.990336101569391));
#364=DIRECTION('',(0.138688160736021,0.,0.990336101569391));
#365=DIRECTION('',(0.,1.,0.));
#366=DIRECTION('center_axis',(0.,1.,0.));
#367=DIRECTION('ref_axis',(0.990336101569392,0.,-0.138688160736019));
#368=DIRECTION('center_axis',(0.,1.,0.));
#369=DIRECTION('ref_axis',(0.990336101569392,0.,-0.138688160736019));
#370=DIRECTION('center_axis',(0.,1.,0.));
#371=DIRECTION('ref_axis',(1.,0.,0.));
#372=CARTESIAN_POINT('',(0.,0.,0.));
#373=CARTESIAN_POINT('Origin',(60.9522056113208,64.,-121.36872355399));
#374=CARTESIAN_POINT('',(58.8772056113208,65.,-121.36872355399));
#375=CARTESIAN_POINT('Origin',(60.9522056113208,65.,-121.36872355399));
#376=CARTESIAN_POINT('',(58.8772056113208,84.,-121.36872355399));
#377=CARTESIAN_POINT('',(58.8772056113208,64.,-121.36872355399));
#378=CARTESIAN_POINT('Origin',(60.9522056113208,84.,-121.36872355399));
#379=CARTESIAN_POINT('Origin',(64.2896075099108,74.5,-117.726382470664));
#380=CARTESIAN_POINT('',(58.7437253411222,74.5,-116.949728770542));
#381=CARTESIAN_POINT('Origin',(61.5166664255165,74.5,-117.338055620603));
#382=CARTESIAN_POINT('Origin',(62.5568276310366,74.5,-109.910534858832));
#383=CARTESIAN_POINT('',(60.7547036717945,74.5,-102.589855297786));
#384=CARTESIAN_POINT('',(59.7838865466423,74.5,-109.522208008772));
#385=CARTESIAN_POINT('Origin',(63.5276447561888,74.5,-102.978182147847));
#386=CARTESIAN_POINT('Origin',(63.5276447561888,74.5,-102.978182147847));
#387=CARTESIAN_POINT('',(56.8923928756739,74.5,-102.048971470915));
#388=CARTESIAN_POINT('Origin',(63.5276447561888,74.5,-102.978182147847));
#389=CARTESIAN_POINT('Origin',(63.1115802739807,74.5,-105.949190452555));
#390=CARTESIAN_POINT('',(56.0602639112577,74.5,-107.990988080332));
#391=CARTESIAN_POINT('',(56.4763283934658,74.5,-105.019979775624));
#392=CARTESIAN_POINT('Origin',(62.6955157917726,74.5,-108.920198757263));
#393=CARTESIAN_POINT('Origin',(71.1329429484868,65.,-120.774932958212));
#394=CARTESIAN_POINT('',(54.7923972725918,65.,-118.486578306067));
#395=CARTESIAN_POINT('',(54.7923972725918,84.,-118.486578306067));
#396=CARTESIAN_POINT('',(54.7923972725918,65.,-118.486578306067));
#397=CARTESIAN_POINT('',(51.326220917099,65.,-118.001169743491));
#398=CARTESIAN_POINT('',(51.326220917099,65.,-118.001169743491));
#399=CARTESIAN_POINT('',(51.326220917099,84.,-118.001169743491));
#400=CARTESIAN_POINT('',(51.326220917099,65.,-118.001169743491));
#401=CARTESIAN_POINT('',(51.326220917099,84.,-118.001169743491));
#402=CARTESIAN_POINT('Origin',(52.7921547760787,65.,-107.533317149903));
#403=CARTESIAN_POINT('',(72.5988768074666,65.,-110.307080364623));
#404=CARTESIAN_POINT('',(52.7921547760787,65.,-107.533317149903));
#405=CARTESIAN_POINT('',(72.5988768074666,65.,-110.307080364623));
#406=CARTESIAN_POINT('',(72.5988768074666,84.,-110.307080364623));
#407=CARTESIAN_POINT('',(72.5988768074666,65.,-110.307080364623));
#408=CARTESIAN_POINT('',(52.7921547760787,84.,-107.533317149903));
#409=CARTESIAN_POINT('',(72.5988768074666,84.,-110.307080364623));
#410=CARTESIAN_POINT('',(52.7921547760787,65.,-107.533317149903));
#411=CARTESIAN_POINT('Origin',(51.326220917099,65.,-118.001169743491));
#412=CARTESIAN_POINT('',(52.7921547760787,65.,-107.533317149903));
#413=CARTESIAN_POINT('',(52.7921547760787,84.,-107.533317149903));
#414=CARTESIAN_POINT('Origin',(71.1329429484868,65.,-120.774932958212));
#415=CARTESIAN_POINT('',(67.6667665929939,65.,-120.289524395636));
#416=CARTESIAN_POINT('',(67.6667665929939,84.,-120.289524395636));
#417=CARTESIAN_POINT('',(67.6667665929939,65.,-120.289524395636));
#418=CARTESIAN_POINT('',(71.1329429484868,84.,-120.774932958212));
#419=CARTESIAN_POINT('',(51.326220917099,84.,-118.001169743491));
#420=CARTESIAN_POINT('',(71.1329429484868,65.,-120.774932958212));
#421=CARTESIAN_POINT('',(71.1329429484868,65.,-120.774932958212));
#422=CARTESIAN_POINT('',(51.326220917099,65.,-118.001169743491));
#423=CARTESIAN_POINT('Origin',(72.5988768074666,65.,-110.307080364623));
#424=CARTESIAN_POINT('',(71.1329429484868,65.,-120.774932958212));
#425=CARTESIAN_POINT('',(71.1329429484868,84.,-120.774932958212));
#426=CARTESIAN_POINT('Origin',(61.0908937720569,65.,-120.378387452421));
#427=CARTESIAN_POINT('',(54.5150209511198,65.,-120.467250509206));
#428=CARTESIAN_POINT('',(54.5150209511198,65.,-120.467250509206));
#429=CARTESIAN_POINT('',(67.3893902715219,65.,-122.270196598774));
#430=CARTESIAN_POINT('Origin',(60.9522056113209,65.,-121.36872355399));
#431=CARTESIAN_POINT('',(67.6667665929939,65.,-120.289524395636));
#432=CARTESIAN_POINT('Origin',(67.6667665929939,65.,-120.289524395636));
#433=CARTESIAN_POINT('',(67.3893902715219,84.,-122.270196598774));
#434=CARTESIAN_POINT('',(67.3893902715219,65.,-122.270196598774));
#435=CARTESIAN_POINT('',(67.6667665929939,84.,-120.289524395636));
#436=CARTESIAN_POINT('Origin',(54.5150209511198,65.,-120.467250509206));
#437=CARTESIAN_POINT('',(54.5150209511198,84.,-120.467250509206));
#438=CARTESIAN_POINT('',(54.5150209511198,84.,-120.467250509206));
#439=CARTESIAN_POINT('',(54.5150209511198,65.,-120.467250509206));
#440=CARTESIAN_POINT('Origin',(60.9522056113209,65.,-121.36872355399));
#441=CARTESIAN_POINT('Origin',(60.9522056113209,84.,-121.36872355399));
#442=CARTESIAN_POINT('Origin',(61.0908937720569,84.,-120.378387452421));
#443=UNCERTAINTY_MEASURE_WITH_UNIT(LENGTH_MEASURE(0.01),#447,
'DISTANCE_ACCURACY_VALUE',
'Maximum model space distance between geometric entities at asserted c
onnectivities');
#444=UNCERTAINTY_MEASURE_WITH_UNIT(LENGTH_MEASURE(0.01),#447,
'DISTANCE_ACCURACY_VALUE',
'Maximum model space distance between geometric entities at asserted c
onnectivities');
#445=(
GEOMETRIC_REPRESENTATION_CONTEXT(3)
GLOBAL_UNCERTAINTY_ASSIGNED_CONTEXT((#443))
GLOBAL_UNIT_ASSIGNED_CONTEXT((#447,#449,#450))
REPRESENTATION_CONTEXT('','3D')
);
#446=(
GEOMETRIC_REPRESENTATION_CONTEXT(3)
GLOBAL_UNCERTAINTY_ASSIGNED_CONTEXT((#444))
GLOBAL_UNIT_ASSIGNED_CONTEXT((#447,#449,#450))
REPRESENTATION_CONTEXT('','3D')
);
#447=(
LENGTH_UNIT()
NAMED_UNIT(*)
SI_UNIT(.MILLI.,.METRE.)
);
#448=(
LENGTH_UNIT()
NAMED_UNIT(*)
SI_UNIT($,.METRE.)
);
#449=(
NAMED_UNIT(*)
PLANE_ANGLE_UNIT()
SI_UNIT($,.RADIAN.)
);
#450=(
NAMED_UNIT(*)
SI_UNIT($,.STERADIAN.)
SOLID_ANGLE_UNIT()
);
#451=SHAPE_DEFINITION_REPRESENTATION(#452,#453);
#452=PRODUCT_DEFINITION_SHAPE('',$,#455);
#453=SHAPE_REPRESENTATION('',(#275),#445);
#454=PRODUCT_DEFINITION_CONTEXT('part definition',#459,'design');
#455=PRODUCT_DEFINITION('2026-08-08-19-52-18-023','Cart_Lower_Eye_L',#456,
#454);
#456=PRODUCT_DEFINITION_FORMATION('',$,#461);
#457=PRODUCT_RELATED_PRODUCT_CATEGORY('Cart_Lower_Eye_L',
'Cart_Lower_Eye_L',(#461));
#458=APPLICATION_PROTOCOL_DEFINITION('international standard',
'automotive_design',2009,#459);
#459=APPLICATION_CONTEXT(
'Core Data for Automotive Mechanical Design Process');
#460=PRODUCT_CONTEXT('part definition',#459,'mechanical');
#461=PRODUCT('2026-08-08-19-52-18-023','Cart_Lower_Eye_L',$,(#460));
#462=PRESENTATION_STYLE_ASSIGNMENT((#464));
#463=PRESENTATION_STYLE_ASSIGNMENT((#465));
#464=SURFACE_STYLE_USAGE(.BOTH.,#466);
#465=SURFACE_STYLE_USAGE(.BOTH.,#467);
#466=SURFACE_SIDE_STYLE('',(#468));
#467=SURFACE_SIDE_STYLE('',(#469));
#468=SURFACE_STYLE_FILL_AREA(#470);
#469=SURFACE_STYLE_FILL_AREA(#471);
#470=FILL_AREA_STYLE('Steel - Satin',(#472));
#471=FILL_AREA_STYLE('Aluminum - Satin',(#473));
#472=FILL_AREA_STYLE_COLOUR('Steel - Satin',#474);
#473=FILL_AREA_STYLE_COLOUR('Aluminum - Satin',#475);
#474=COLOUR_RGB('Steel - Satin',0.627450980392157,0.627450980392157,0.627450980392157);
#475=COLOUR_RGB('Aluminum - Satin',0.96078431372549,0.96078431372549,0.964705882352941);
ENDSEC;
END-ISO-10303-21;
