ISO-10303-21;
HEADER;
/* Generated by software containing ST-Developer
 * from STEP Tools, Inc. (www.steptools.com) 
 */

FILE_DESCRIPTION(
/* description */ (''),
/* implementation_level */ '2;1');

FILE_NAME(
/* name */ 'Shoulder_Output_Hub_L.step',
/* time_stamp */ '2026-08-08T19:52:18-07:00',
/* author */ (''),
/* organization */ (''),
/* preprocessor_version */ 'ST-DEVELOPER v20.1',
/* originating_system */ 'Autodesk Translation Framework v15.8.0.0',
/* authorisation */ '');

FILE_SCHEMA (('AUTOMOTIVE_DESIGN { 1 0 10303 214 3 1 1 }'));
ENDSEC;

DATA;
#10=MECHANICAL_DESIGN_GEOMETRIC_PRESENTATION_REPRESENTATION('',(#13),#1435);
#11=SHAPE_REPRESENTATION_RELATIONSHIP('SRR','None',#1442,#12);
#12=ADVANCED_BREP_SHAPE_REPRESENTATION('',(#14),#1434);
#13=STYLED_ITEM('',(#1452),#14);
#14=MANIFOLD_SOLID_BREP('Shoulder_Output_Hub_L',#803);
#15=FACE_BOUND('',#224,.T.);
#16=FACE_BOUND('',#227,.T.);
#17=FACE_BOUND('',#230,.T.);
#18=FACE_BOUND('',#235,.T.);
#19=FACE_BOUND('',#238,.T.);
#20=FACE_BOUND('',#241,.T.);
#21=FACE_BOUND('',#243,.T.);
#22=FACE_BOUND('',#246,.T.);
#23=FACE_BOUND('',#249,.T.);
#24=FACE_BOUND('',#258,.T.);
#25=FACE_BOUND('',#261,.T.);
#26=FACE_BOUND('',#262,.T.);
#27=FACE_BOUND('',#263,.T.);
#28=FACE_BOUND('',#264,.T.);
#29=FACE_BOUND('',#265,.T.);
#30=FACE_BOUND('',#266,.T.);
#31=FACE_BOUND('',#267,.T.);
#32=FACE_BOUND('',#268,.T.);
#33=FACE_BOUND('',#269,.T.);
#34=FACE_BOUND('',#270,.T.);
#35=FACE_BOUND('',#271,.T.);
#36=FACE_BOUND('',#272,.T.);
#37=FACE_BOUND('',#273,.T.);
#38=FACE_BOUND('',#274,.T.);
#39=FACE_BOUND('',#275,.T.);
#40=FACE_BOUND('',#276,.T.);
#41=FACE_BOUND('',#277,.T.);
#42=FACE_BOUND('',#279,.T.);
#43=FACE_BOUND('',#280,.T.);
#44=FACE_BOUND('',#281,.T.);
#45=FACE_BOUND('',#282,.T.);
#46=FACE_BOUND('',#283,.T.);
#47=FACE_BOUND('',#284,.T.);
#48=FACE_BOUND('',#285,.T.);
#49=FACE_BOUND('',#286,.T.);
#50=FACE_BOUND('',#287,.T.);
#51=FACE_BOUND('',#288,.T.);
#52=LINE('',#1218,#86);
#53=LINE('',#1221,#87);
#54=LINE('',#1226,#88);
#55=LINE('',#1236,#89);
#56=LINE('',#1239,#90);
#57=LINE('',#1244,#91);
#58=LINE('',#1256,#92);
#59=LINE('',#1259,#93);
#60=LINE('',#1261,#94);
#61=LINE('',#1267,#95);
#62=LINE('',#1274,#96);
#63=LINE('',#1281,#97);
#64=LINE('',#1288,#98);
#65=LINE('',#1295,#99);
#66=LINE('',#1302,#100);
#67=LINE('',#1309,#101);
#68=LINE('',#1316,#102);
#69=LINE('',#1325,#103);
#70=LINE('',#1334,#104);
#71=LINE('',#1341,#105);
#72=LINE('',#1345,#106);
#73=LINE('',#1349,#107);
#74=LINE('',#1358,#108);
#75=LINE('',#1367,#109);
#76=LINE('',#1379,#110);
#77=LINE('',#1388,#111);
#78=LINE('',#1396,#112);
#79=LINE('',#1400,#113);
#80=LINE('',#1404,#114);
#81=LINE('',#1408,#115);
#82=LINE('',#1412,#116);
#83=LINE('',#1416,#117);
#84=LINE('',#1421,#118);
#85=LINE('',#1429,#119);
#86=VECTOR('',#946,10.);
#87=VECTOR('',#949,10.);
#88=VECTOR('',#954,3.1);
#89=VECTOR('',#967,10.);
#90=VECTOR('',#970,10.);
#91=VECTOR('',#975,3.1);
#92=VECTOR('',#990,10.);
#93=VECTOR('',#993,10.);
#94=VECTOR('',#994,3.);
#95=VECTOR('',#1001,19.);
#96=VECTOR('',#1010,1.65);
#97=VECTOR('',#1019,1.65);
#98=VECTOR('',#1028,1.65);
#99=VECTOR('',#1037,1.65);
#100=VECTOR('',#1046,1.65);
#101=VECTOR('',#1055,1.65);
#102=VECTOR('',#1064,2.6);
#103=VECTOR('',#1075,2.6);
#104=VECTOR('',#1086,2.6);
#105=VECTOR('',#1095,2.025);
#106=VECTOR('',#1100,2.025);
#107=VECTOR('',#1105,2.025);
#108=VECTOR('',#1116,3.1);
#109=VECTOR('',#1127,3.1);
#110=VECTOR('',#1142,3.1);
#111=VECTOR('',#1153,3.1);
#112=VECTOR('',#1164,1.7);
#113=VECTOR('',#1169,1.7);
#114=VECTOR('',#1174,1.7);
#115=VECTOR('',#1179,1.7);
#116=VECTOR('',#1184,1.7);
#117=VECTOR('',#1189,1.7);
#118=VECTOR('',#1194,6.);
#119=VECTOR('',#1205,28.);
#120=CYLINDRICAL_SURFACE('',#820,5.5);
#121=CYLINDRICAL_SURFACE('',#822,3.1);
#122=CYLINDRICAL_SURFACE('',#829,5.5);
#123=CYLINDRICAL_SURFACE('',#831,3.1);
#124=CYLINDRICAL_SURFACE('',#839,3.);
#125=CYLINDRICAL_SURFACE('',#842,19.);
#126=CYLINDRICAL_SURFACE('',#846,1.65);
#127=CYLINDRICAL_SURFACE('',#850,1.65);
#128=CYLINDRICAL_SURFACE('',#854,1.65);
#129=CYLINDRICAL_SURFACE('',#858,1.65);
#130=CYLINDRICAL_SURFACE('',#862,1.65);
#131=CYLINDRICAL_SURFACE('',#866,1.65);
#132=CYLINDRICAL_SURFACE('',#870,2.6);
#133=CYLINDRICAL_SURFACE('',#875,2.6);
#134=CYLINDRICAL_SURFACE('',#880,2.6);
#135=CYLINDRICAL_SURFACE('',#885,2.025);
#136=CYLINDRICAL_SURFACE('',#887,2.025);
#137=CYLINDRICAL_SURFACE('',#889,2.025);
#138=CYLINDRICAL_SURFACE('',#893,3.1);
#139=CYLINDRICAL_SURFACE('',#898,3.1);
#140=CYLINDRICAL_SURFACE('',#905,3.1);
#141=CYLINDRICAL_SURFACE('',#910,3.1);
#142=CYLINDRICAL_SURFACE('',#915,1.7);
#143=CYLINDRICAL_SURFACE('',#917,1.7);
#144=CYLINDRICAL_SURFACE('',#919,1.7);
#145=CYLINDRICAL_SURFACE('',#921,1.7);
#146=CYLINDRICAL_SURFACE('',#923,1.7);
#147=CYLINDRICAL_SURFACE('',#925,1.7);
#148=CYLINDRICAL_SURFACE('',#927,6.);
#149=CYLINDRICAL_SURFACE('',#932,28.);
#150=FACE_OUTER_BOUND('',#201,.T.);
#151=FACE_OUTER_BOUND('',#202,.T.);
#152=FACE_OUTER_BOUND('',#203,.T.);
#153=FACE_OUTER_BOUND('',#204,.T.);
#154=FACE_OUTER_BOUND('',#205,.T.);
#155=FACE_OUTER_BOUND('',#206,.T.);
#156=FACE_OUTER_BOUND('',#207,.T.);
#157=FACE_OUTER_BOUND('',#208,.T.);
#158=FACE_OUTER_BOUND('',#209,.T.);
#159=FACE_OUTER_BOUND('',#210,.T.);
#160=FACE_OUTER_BOUND('',#211,.T.);
#161=FACE_OUTER_BOUND('',#212,.T.);
#162=FACE_OUTER_BOUND('',#213,.T.);
#163=FACE_OUTER_BOUND('',#214,.T.);
#164=FACE_OUTER_BOUND('',#215,.T.);
#165=FACE_OUTER_BOUND('',#216,.T.);
#166=FACE_OUTER_BOUND('',#217,.T.);
#167=FACE_OUTER_BOUND('',#218,.T.);
#168=FACE_OUTER_BOUND('',#219,.T.);
#169=FACE_OUTER_BOUND('',#220,.T.);
#170=FACE_OUTER_BOUND('',#221,.T.);
#171=FACE_OUTER_BOUND('',#222,.T.);
#172=FACE_OUTER_BOUND('',#223,.T.);
#173=FACE_OUTER_BOUND('',#225,.T.);
#174=FACE_OUTER_BOUND('',#226,.T.);
#175=FACE_OUTER_BOUND('',#228,.T.);
#176=FACE_OUTER_BOUND('',#229,.T.);
#177=FACE_OUTER_BOUND('',#231,.T.);
#178=FACE_OUTER_BOUND('',#232,.T.);
#179=FACE_OUTER_BOUND('',#233,.T.);
#180=FACE_OUTER_BOUND('',#234,.T.);
#181=FACE_OUTER_BOUND('',#236,.T.);
#182=FACE_OUTER_BOUND('',#237,.T.);
#183=FACE_OUTER_BOUND('',#239,.T.);
#184=FACE_OUTER_BOUND('',#240,.T.);
#185=FACE_OUTER_BOUND('',#242,.T.);
#186=FACE_OUTER_BOUND('',#244,.T.);
#187=FACE_OUTER_BOUND('',#245,.T.);
#188=FACE_OUTER_BOUND('',#247,.T.);
#189=FACE_OUTER_BOUND('',#248,.T.);
#190=FACE_OUTER_BOUND('',#250,.T.);
#191=FACE_OUTER_BOUND('',#251,.T.);
#192=FACE_OUTER_BOUND('',#252,.T.);
#193=FACE_OUTER_BOUND('',#253,.T.);
#194=FACE_OUTER_BOUND('',#254,.T.);
#195=FACE_OUTER_BOUND('',#255,.T.);
#196=FACE_OUTER_BOUND('',#256,.T.);
#197=FACE_OUTER_BOUND('',#257,.T.);
#198=FACE_OUTER_BOUND('',#259,.T.);
#199=FACE_OUTER_BOUND('',#260,.T.);
#200=FACE_OUTER_BOUND('',#278,.T.);
#201=EDGE_LOOP('',(#527,#528));
#202=EDGE_LOOP('',(#529,#530,#531,#532));
#203=EDGE_LOOP('',(#533,#534,#535,#536,#537,#538,#539,#540));
#204=EDGE_LOOP('',(#541,#542));
#205=EDGE_LOOP('',(#543,#544,#545,#546));
#206=EDGE_LOOP('',(#547,#548,#549,#550,#551,#552,#553,#554));
#207=EDGE_LOOP('',(#555,#556,#557));
#208=EDGE_LOOP('',(#558,#559,#560,#561,#562,#563,#564,#565));
#209=EDGE_LOOP('',(#566,#567,#568,#569,#570,#571,#572,#573));
#210=EDGE_LOOP('',(#574,#575,#576,#577));
#211=EDGE_LOOP('',(#578));
#212=EDGE_LOOP('',(#579,#580,#581,#582));
#213=EDGE_LOOP('',(#583));
#214=EDGE_LOOP('',(#584,#585,#586,#587));
#215=EDGE_LOOP('',(#588));
#216=EDGE_LOOP('',(#589,#590,#591,#592));
#217=EDGE_LOOP('',(#593));
#218=EDGE_LOOP('',(#594,#595,#596,#597));
#219=EDGE_LOOP('',(#598));
#220=EDGE_LOOP('',(#599,#600,#601,#602));
#221=EDGE_LOOP('',(#603));
#222=EDGE_LOOP('',(#604,#605,#606,#607));
#223=EDGE_LOOP('',(#608));
#224=EDGE_LOOP('',(#609));
#225=EDGE_LOOP('',(#610,#611,#612,#613));
#226=EDGE_LOOP('',(#614));
#227=EDGE_LOOP('',(#615));
#228=EDGE_LOOP('',(#616,#617,#618,#619));
#229=EDGE_LOOP('',(#620));
#230=EDGE_LOOP('',(#621));
#231=EDGE_LOOP('',(#622,#623,#624,#625));
#232=EDGE_LOOP('',(#626,#627,#628,#629));
#233=EDGE_LOOP('',(#630,#631,#632,#633));
#234=EDGE_LOOP('',(#634));
#235=EDGE_LOOP('',(#635));
#236=EDGE_LOOP('',(#636,#637,#638,#639));
#237=EDGE_LOOP('',(#640));
#238=EDGE_LOOP('',(#641));
#239=EDGE_LOOP('',(#642,#643,#644,#645));
#240=EDGE_LOOP('',(#646));
#241=EDGE_LOOP('',(#647));
#242=EDGE_LOOP('',(#648));
#243=EDGE_LOOP('',(#649));
#244=EDGE_LOOP('',(#650,#651,#652,#653));
#245=EDGE_LOOP('',(#654));
#246=EDGE_LOOP('',(#655));
#247=EDGE_LOOP('',(#656,#657,#658,#659));
#248=EDGE_LOOP('',(#660));
#249=EDGE_LOOP('',(#661));
#250=EDGE_LOOP('',(#662,#663,#664,#665));
#251=EDGE_LOOP('',(#666,#667,#668,#669));
#252=EDGE_LOOP('',(#670,#671,#672,#673));
#253=EDGE_LOOP('',(#674,#675,#676,#677));
#254=EDGE_LOOP('',(#678,#679,#680,#681));
#255=EDGE_LOOP('',(#682,#683,#684,#685));
#256=EDGE_LOOP('',(#686,#687,#688,#689));
#257=EDGE_LOOP('',(#690));
#258=EDGE_LOOP('',(#691,#692,#693));
#259=EDGE_LOOP('',(#694,#695,#696,#697));
#260=EDGE_LOOP('',(#698));
#261=EDGE_LOOP('',(#699,#700,#701));
#262=EDGE_LOOP('',(#702));
#263=EDGE_LOOP('',(#703));
#264=EDGE_LOOP('',(#704));
#265=EDGE_LOOP('',(#705));
#266=EDGE_LOOP('',(#706));
#267=EDGE_LOOP('',(#707));
#268=EDGE_LOOP('',(#708));
#269=EDGE_LOOP('',(#709));
#270=EDGE_LOOP('',(#710));
#271=EDGE_LOOP('',(#711));
#272=EDGE_LOOP('',(#712));
#273=EDGE_LOOP('',(#713));
#274=EDGE_LOOP('',(#714));
#275=EDGE_LOOP('',(#715));
#276=EDGE_LOOP('',(#716));
#277=EDGE_LOOP('',(#717,#718,#719));
#278=EDGE_LOOP('',(#720));
#279=EDGE_LOOP('',(#721));
#280=EDGE_LOOP('',(#722));
#281=EDGE_LOOP('',(#723));
#282=EDGE_LOOP('',(#724));
#283=EDGE_LOOP('',(#725));
#284=EDGE_LOOP('',(#726));
#285=EDGE_LOOP('',(#727));
#286=EDGE_LOOP('',(#728));
#287=EDGE_LOOP('',(#729));
#288=EDGE_LOOP('',(#730));
#289=CIRCLE('',#818,3.1);
#290=CIRCLE('',#819,5.5);
#291=CIRCLE('',#821,5.5);
#292=CIRCLE('',#823,3.1);
#293=CIRCLE('',#824,3.1);
#294=CIRCLE('',#825,3.1);
#295=CIRCLE('',#827,3.1);
#296=CIRCLE('',#828,5.5);
#297=CIRCLE('',#830,5.5);
#298=CIRCLE('',#832,3.1);
#299=CIRCLE('',#833,3.1);
#300=CIRCLE('',#834,3.1);
#301=CIRCLE('',#836,19.);
#302=CIRCLE('',#837,3.);
#303=CIRCLE('',#838,3.);
#304=CIRCLE('',#840,3.);
#305=CIRCLE('',#841,3.);
#306=CIRCLE('',#843,19.);
#307=CIRCLE('',#844,19.);
#308=CIRCLE('',#845,19.);
#309=CIRCLE('',#847,1.65);
#310=CIRCLE('',#848,1.65);
#311=CIRCLE('',#851,1.65);
#312=CIRCLE('',#852,1.65);
#313=CIRCLE('',#855,1.65);
#314=CIRCLE('',#856,1.65);
#315=CIRCLE('',#859,1.65);
#316=CIRCLE('',#860,1.65);
#317=CIRCLE('',#863,1.65);
#318=CIRCLE('',#864,1.65);
#319=CIRCLE('',#867,1.65);
#320=CIRCLE('',#868,1.65);
#321=CIRCLE('',#871,2.6);
#322=CIRCLE('',#872,2.6);
#323=CIRCLE('',#874,2.025);
#324=CIRCLE('',#876,2.6);
#325=CIRCLE('',#877,2.6);
#326=CIRCLE('',#879,2.025);
#327=CIRCLE('',#881,2.6);
#328=CIRCLE('',#882,2.6);
#329=CIRCLE('',#884,2.025);
#330=CIRCLE('',#886,2.025);
#331=CIRCLE('',#888,2.025);
#332=CIRCLE('',#890,2.025);
#333=CIRCLE('',#892,1.7);
#334=CIRCLE('',#894,3.1);
#335=CIRCLE('',#895,3.1);
#336=CIRCLE('',#897,1.7);
#337=CIRCLE('',#899,3.1);
#338=CIRCLE('',#900,3.1);
#339=CIRCLE('',#902,1.7);
#340=CIRCLE('',#904,1.7);
#341=CIRCLE('',#906,3.1);
#342=CIRCLE('',#907,3.1);
#343=CIRCLE('',#909,1.7);
#344=CIRCLE('',#911,3.1);
#345=CIRCLE('',#912,3.1);
#346=CIRCLE('',#914,1.7);
#347=CIRCLE('',#916,1.7);
#348=CIRCLE('',#918,1.7);
#349=CIRCLE('',#920,1.7);
#350=CIRCLE('',#922,1.7);
#351=CIRCLE('',#924,1.7);
#352=CIRCLE('',#926,1.7);
#353=CIRCLE('',#928,6.);
#354=CIRCLE('',#929,6.);
#355=CIRCLE('',#931,28.);
#356=CIRCLE('',#933,28.);
#357=VERTEX_POINT('',#1212);
#358=VERTEX_POINT('',#1213);
#359=VERTEX_POINT('',#1217);
#360=VERTEX_POINT('',#1219);
#361=VERTEX_POINT('',#1223);
#362=VERTEX_POINT('',#1225);
#363=VERTEX_POINT('',#1230);
#364=VERTEX_POINT('',#1231);
#365=VERTEX_POINT('',#1235);
#366=VERTEX_POINT('',#1237);
#367=VERTEX_POINT('',#1241);
#368=VERTEX_POINT('',#1243);
#369=VERTEX_POINT('',#1248);
#370=VERTEX_POINT('',#1249);
#371=VERTEX_POINT('',#1251);
#372=VERTEX_POINT('',#1255);
#373=VERTEX_POINT('',#1257);
#374=VERTEX_POINT('',#1260);
#375=VERTEX_POINT('',#1264);
#376=VERTEX_POINT('',#1266);
#377=VERTEX_POINT('',#1271);
#378=VERTEX_POINT('',#1273);
#379=VERTEX_POINT('',#1278);
#380=VERTEX_POINT('',#1280);
#381=VERTEX_POINT('',#1285);
#382=VERTEX_POINT('',#1287);
#383=VERTEX_POINT('',#1292);
#384=VERTEX_POINT('',#1294);
#385=VERTEX_POINT('',#1299);
#386=VERTEX_POINT('',#1301);
#387=VERTEX_POINT('',#1306);
#388=VERTEX_POINT('',#1308);
#389=VERTEX_POINT('',#1313);
#390=VERTEX_POINT('',#1315);
#391=VERTEX_POINT('',#1319);
#392=VERTEX_POINT('',#1322);
#393=VERTEX_POINT('',#1324);
#394=VERTEX_POINT('',#1328);
#395=VERTEX_POINT('',#1331);
#396=VERTEX_POINT('',#1333);
#397=VERTEX_POINT('',#1337);
#398=VERTEX_POINT('',#1340);
#399=VERTEX_POINT('',#1344);
#400=VERTEX_POINT('',#1348);
#401=VERTEX_POINT('',#1352);
#402=VERTEX_POINT('',#1355);
#403=VERTEX_POINT('',#1357);
#404=VERTEX_POINT('',#1361);
#405=VERTEX_POINT('',#1364);
#406=VERTEX_POINT('',#1366);
#407=VERTEX_POINT('',#1370);
#408=VERTEX_POINT('',#1373);
#409=VERTEX_POINT('',#1376);
#410=VERTEX_POINT('',#1378);
#411=VERTEX_POINT('',#1382);
#412=VERTEX_POINT('',#1385);
#413=VERTEX_POINT('',#1387);
#414=VERTEX_POINT('',#1391);
#415=VERTEX_POINT('',#1394);
#416=VERTEX_POINT('',#1398);
#417=VERTEX_POINT('',#1402);
#418=VERTEX_POINT('',#1406);
#419=VERTEX_POINT('',#1410);
#420=VERTEX_POINT('',#1414);
#421=VERTEX_POINT('',#1418);
#422=VERTEX_POINT('',#1420);
#423=VERTEX_POINT('',#1424);
#424=VERTEX_POINT('',#1427);
#425=EDGE_CURVE('',#357,#358,#289,.T.);
#426=EDGE_CURVE('',#357,#358,#290,.T.);
#427=EDGE_CURVE('',#359,#357,#52,.T.);
#428=EDGE_CURVE('',#360,#359,#291,.T.);
#429=EDGE_CURVE('',#358,#360,#53,.T.);
#430=EDGE_CURVE('',#361,#361,#292,.T.);
#431=EDGE_CURVE('',#361,#362,#54,.T.);
#432=EDGE_CURVE('',#359,#362,#293,.T.);
#433=EDGE_CURVE('',#362,#360,#294,.T.);
#434=EDGE_CURVE('',#363,#364,#295,.T.);
#435=EDGE_CURVE('',#363,#364,#296,.T.);
#436=EDGE_CURVE('',#365,#363,#55,.T.);
#437=EDGE_CURVE('',#366,#365,#297,.T.);
#438=EDGE_CURVE('',#364,#366,#56,.T.);
#439=EDGE_CURVE('',#367,#367,#298,.T.);
#440=EDGE_CURVE('',#367,#368,#57,.T.);
#441=EDGE_CURVE('',#365,#368,#299,.T.);
#442=EDGE_CURVE('',#368,#366,#300,.T.);
#443=EDGE_CURVE('',#369,#370,#301,.T.);
#444=EDGE_CURVE('',#369,#371,#302,.T.);
#445=EDGE_CURVE('',#371,#370,#303,.T.);
#446=EDGE_CURVE('',#372,#369,#58,.T.);
#447=EDGE_CURVE('',#373,#372,#304,.T.);
#448=EDGE_CURVE('',#370,#373,#59,.T.);
#449=EDGE_CURVE('',#371,#374,#60,.T.);
#450=EDGE_CURVE('',#374,#374,#305,.T.);
#451=EDGE_CURVE('',#375,#373,#306,.T.);
#452=EDGE_CURVE('',#375,#376,#61,.T.);
#453=EDGE_CURVE('',#376,#376,#307,.T.);
#454=EDGE_CURVE('',#372,#375,#308,.T.);
#455=EDGE_CURVE('',#377,#377,#309,.T.);
#456=EDGE_CURVE('',#377,#378,#62,.T.);
#457=EDGE_CURVE('',#378,#378,#310,.T.);
#458=EDGE_CURVE('',#379,#379,#311,.T.);
#459=EDGE_CURVE('',#379,#380,#63,.T.);
#460=EDGE_CURVE('',#380,#380,#312,.T.);
#461=EDGE_CURVE('',#381,#381,#313,.T.);
#462=EDGE_CURVE('',#381,#382,#64,.T.);
#463=EDGE_CURVE('',#382,#382,#314,.T.);
#464=EDGE_CURVE('',#383,#383,#315,.T.);
#465=EDGE_CURVE('',#383,#384,#65,.T.);
#466=EDGE_CURVE('',#384,#384,#316,.T.);
#467=EDGE_CURVE('',#385,#385,#317,.T.);
#468=EDGE_CURVE('',#385,#386,#66,.T.);
#469=EDGE_CURVE('',#386,#386,#318,.T.);
#470=EDGE_CURVE('',#387,#387,#319,.T.);
#471=EDGE_CURVE('',#387,#388,#67,.T.);
#472=EDGE_CURVE('',#388,#388,#320,.T.);
#473=EDGE_CURVE('',#389,#389,#321,.T.);
#474=EDGE_CURVE('',#389,#390,#68,.T.);
#475=EDGE_CURVE('',#390,#390,#322,.T.);
#476=EDGE_CURVE('',#391,#391,#323,.T.);
#477=EDGE_CURVE('',#392,#392,#324,.T.);
#478=EDGE_CURVE('',#392,#393,#69,.T.);
#479=EDGE_CURVE('',#393,#393,#325,.T.);
#480=EDGE_CURVE('',#394,#394,#326,.T.);
#481=EDGE_CURVE('',#395,#395,#327,.T.);
#482=EDGE_CURVE('',#395,#396,#70,.T.);
#483=EDGE_CURVE('',#396,#396,#328,.T.);
#484=EDGE_CURVE('',#397,#397,#329,.T.);
#485=EDGE_CURVE('',#391,#398,#71,.T.);
#486=EDGE_CURVE('',#398,#398,#330,.T.);
#487=EDGE_CURVE('',#394,#399,#72,.T.);
#488=EDGE_CURVE('',#399,#399,#331,.T.);
#489=EDGE_CURVE('',#397,#400,#73,.T.);
#490=EDGE_CURVE('',#400,#400,#332,.T.);
#491=EDGE_CURVE('',#401,#401,#333,.T.);
#492=EDGE_CURVE('',#402,#402,#334,.T.);
#493=EDGE_CURVE('',#402,#403,#74,.T.);
#494=EDGE_CURVE('',#403,#403,#335,.T.);
#495=EDGE_CURVE('',#404,#404,#336,.T.);
#496=EDGE_CURVE('',#405,#405,#337,.T.);
#497=EDGE_CURVE('',#405,#406,#75,.T.);
#498=EDGE_CURVE('',#406,#406,#338,.T.);
#499=EDGE_CURVE('',#407,#407,#339,.T.);
#500=EDGE_CURVE('',#408,#408,#340,.T.);
#501=EDGE_CURVE('',#409,#409,#341,.T.);
#502=EDGE_CURVE('',#409,#410,#76,.T.);
#503=EDGE_CURVE('',#410,#410,#342,.T.);
#504=EDGE_CURVE('',#411,#411,#343,.T.);
#505=EDGE_CURVE('',#412,#412,#344,.T.);
#506=EDGE_CURVE('',#412,#413,#77,.T.);
#507=EDGE_CURVE('',#413,#413,#345,.T.);
#508=EDGE_CURVE('',#414,#414,#346,.T.);
#509=EDGE_CURVE('',#415,#415,#347,.T.);
#510=EDGE_CURVE('',#415,#401,#78,.T.);
#511=EDGE_CURVE('',#416,#416,#348,.T.);
#512=EDGE_CURVE('',#416,#404,#79,.T.);
#513=EDGE_CURVE('',#417,#417,#349,.T.);
#514=EDGE_CURVE('',#417,#407,#80,.T.);
#515=EDGE_CURVE('',#418,#418,#350,.T.);
#516=EDGE_CURVE('',#418,#408,#81,.T.);
#517=EDGE_CURVE('',#419,#419,#351,.T.);
#518=EDGE_CURVE('',#419,#411,#82,.T.);
#519=EDGE_CURVE('',#420,#420,#352,.T.);
#520=EDGE_CURVE('',#420,#414,#83,.T.);
#521=EDGE_CURVE('',#421,#421,#353,.T.);
#522=EDGE_CURVE('',#421,#422,#84,.T.);
#523=EDGE_CURVE('',#422,#422,#354,.T.);
#524=EDGE_CURVE('',#423,#423,#355,.T.);
#525=EDGE_CURVE('',#424,#424,#356,.T.);
#526=EDGE_CURVE('',#424,#423,#85,.T.);
#527=ORIENTED_EDGE('',*,*,#425,.F.);
#528=ORIENTED_EDGE('',*,*,#426,.T.);
#529=ORIENTED_EDGE('',*,*,#427,.F.);
#530=ORIENTED_EDGE('',*,*,#428,.F.);
#531=ORIENTED_EDGE('',*,*,#429,.F.);
#532=ORIENTED_EDGE('',*,*,#426,.F.);
#533=ORIENTED_EDGE('',*,*,#430,.F.);
#534=ORIENTED_EDGE('',*,*,#431,.T.);
#535=ORIENTED_EDGE('',*,*,#432,.F.);
#536=ORIENTED_EDGE('',*,*,#427,.T.);
#537=ORIENTED_EDGE('',*,*,#425,.T.);
#538=ORIENTED_EDGE('',*,*,#429,.T.);
#539=ORIENTED_EDGE('',*,*,#433,.F.);
#540=ORIENTED_EDGE('',*,*,#431,.F.);
#541=ORIENTED_EDGE('',*,*,#434,.F.);
#542=ORIENTED_EDGE('',*,*,#435,.T.);
#543=ORIENTED_EDGE('',*,*,#436,.F.);
#544=ORIENTED_EDGE('',*,*,#437,.F.);
#545=ORIENTED_EDGE('',*,*,#438,.F.);
#546=ORIENTED_EDGE('',*,*,#435,.F.);
#547=ORIENTED_EDGE('',*,*,#439,.F.);
#548=ORIENTED_EDGE('',*,*,#440,.T.);
#549=ORIENTED_EDGE('',*,*,#441,.F.);
#550=ORIENTED_EDGE('',*,*,#436,.T.);
#551=ORIENTED_EDGE('',*,*,#434,.T.);
#552=ORIENTED_EDGE('',*,*,#438,.T.);
#553=ORIENTED_EDGE('',*,*,#442,.F.);
#554=ORIENTED_EDGE('',*,*,#440,.F.);
#555=ORIENTED_EDGE('',*,*,#443,.F.);
#556=ORIENTED_EDGE('',*,*,#444,.T.);
#557=ORIENTED_EDGE('',*,*,#445,.T.);
#558=ORIENTED_EDGE('',*,*,#446,.F.);
#559=ORIENTED_EDGE('',*,*,#447,.F.);
#560=ORIENTED_EDGE('',*,*,#448,.F.);
#561=ORIENTED_EDGE('',*,*,#445,.F.);
#562=ORIENTED_EDGE('',*,*,#449,.T.);
#563=ORIENTED_EDGE('',*,*,#450,.F.);
#564=ORIENTED_EDGE('',*,*,#449,.F.);
#565=ORIENTED_EDGE('',*,*,#444,.F.);
#566=ORIENTED_EDGE('',*,*,#446,.T.);
#567=ORIENTED_EDGE('',*,*,#443,.T.);
#568=ORIENTED_EDGE('',*,*,#448,.T.);
#569=ORIENTED_EDGE('',*,*,#451,.F.);
#570=ORIENTED_EDGE('',*,*,#452,.T.);
#571=ORIENTED_EDGE('',*,*,#453,.T.);
#572=ORIENTED_EDGE('',*,*,#452,.F.);
#573=ORIENTED_EDGE('',*,*,#454,.F.);
#574=ORIENTED_EDGE('',*,*,#455,.F.);
#575=ORIENTED_EDGE('',*,*,#456,.T.);
#576=ORIENTED_EDGE('',*,*,#457,.F.);
#577=ORIENTED_EDGE('',*,*,#456,.F.);
#578=ORIENTED_EDGE('',*,*,#455,.T.);
#579=ORIENTED_EDGE('',*,*,#458,.F.);
#580=ORIENTED_EDGE('',*,*,#459,.T.);
#581=ORIENTED_EDGE('',*,*,#460,.F.);
#582=ORIENTED_EDGE('',*,*,#459,.F.);
#583=ORIENTED_EDGE('',*,*,#458,.T.);
#584=ORIENTED_EDGE('',*,*,#461,.F.);
#585=ORIENTED_EDGE('',*,*,#462,.T.);
#586=ORIENTED_EDGE('',*,*,#463,.F.);
#587=ORIENTED_EDGE('',*,*,#462,.F.);
#588=ORIENTED_EDGE('',*,*,#461,.T.);
#589=ORIENTED_EDGE('',*,*,#464,.F.);
#590=ORIENTED_EDGE('',*,*,#465,.T.);
#591=ORIENTED_EDGE('',*,*,#466,.F.);
#592=ORIENTED_EDGE('',*,*,#465,.F.);
#593=ORIENTED_EDGE('',*,*,#464,.T.);
#594=ORIENTED_EDGE('',*,*,#467,.F.);
#595=ORIENTED_EDGE('',*,*,#468,.T.);
#596=ORIENTED_EDGE('',*,*,#469,.F.);
#597=ORIENTED_EDGE('',*,*,#468,.F.);
#598=ORIENTED_EDGE('',*,*,#467,.T.);
#599=ORIENTED_EDGE('',*,*,#470,.F.);
#600=ORIENTED_EDGE('',*,*,#471,.T.);
#601=ORIENTED_EDGE('',*,*,#472,.F.);
#602=ORIENTED_EDGE('',*,*,#471,.F.);
#603=ORIENTED_EDGE('',*,*,#470,.T.);
#604=ORIENTED_EDGE('',*,*,#473,.F.);
#605=ORIENTED_EDGE('',*,*,#474,.T.);
#606=ORIENTED_EDGE('',*,*,#475,.T.);
#607=ORIENTED_EDGE('',*,*,#474,.F.);
#608=ORIENTED_EDGE('',*,*,#475,.F.);
#609=ORIENTED_EDGE('',*,*,#476,.F.);
#610=ORIENTED_EDGE('',*,*,#477,.F.);
#611=ORIENTED_EDGE('',*,*,#478,.T.);
#612=ORIENTED_EDGE('',*,*,#479,.T.);
#613=ORIENTED_EDGE('',*,*,#478,.F.);
#614=ORIENTED_EDGE('',*,*,#479,.F.);
#615=ORIENTED_EDGE('',*,*,#480,.F.);
#616=ORIENTED_EDGE('',*,*,#481,.F.);
#617=ORIENTED_EDGE('',*,*,#482,.T.);
#618=ORIENTED_EDGE('',*,*,#483,.T.);
#619=ORIENTED_EDGE('',*,*,#482,.F.);
#620=ORIENTED_EDGE('',*,*,#483,.F.);
#621=ORIENTED_EDGE('',*,*,#484,.F.);
#622=ORIENTED_EDGE('',*,*,#476,.T.);
#623=ORIENTED_EDGE('',*,*,#485,.T.);
#624=ORIENTED_EDGE('',*,*,#486,.F.);
#625=ORIENTED_EDGE('',*,*,#485,.F.);
#626=ORIENTED_EDGE('',*,*,#480,.T.);
#627=ORIENTED_EDGE('',*,*,#487,.T.);
#628=ORIENTED_EDGE('',*,*,#488,.F.);
#629=ORIENTED_EDGE('',*,*,#487,.F.);
#630=ORIENTED_EDGE('',*,*,#484,.T.);
#631=ORIENTED_EDGE('',*,*,#489,.T.);
#632=ORIENTED_EDGE('',*,*,#490,.F.);
#633=ORIENTED_EDGE('',*,*,#489,.F.);
#634=ORIENTED_EDGE('',*,*,#430,.T.);
#635=ORIENTED_EDGE('',*,*,#491,.F.);
#636=ORIENTED_EDGE('',*,*,#492,.F.);
#637=ORIENTED_EDGE('',*,*,#493,.T.);
#638=ORIENTED_EDGE('',*,*,#494,.F.);
#639=ORIENTED_EDGE('',*,*,#493,.F.);
#640=ORIENTED_EDGE('',*,*,#492,.T.);
#641=ORIENTED_EDGE('',*,*,#495,.F.);
#642=ORIENTED_EDGE('',*,*,#496,.F.);
#643=ORIENTED_EDGE('',*,*,#497,.T.);
#644=ORIENTED_EDGE('',*,*,#498,.F.);
#645=ORIENTED_EDGE('',*,*,#497,.F.);
#646=ORIENTED_EDGE('',*,*,#496,.T.);
#647=ORIENTED_EDGE('',*,*,#499,.F.);
#648=ORIENTED_EDGE('',*,*,#439,.T.);
#649=ORIENTED_EDGE('',*,*,#500,.F.);
#650=ORIENTED_EDGE('',*,*,#501,.F.);
#651=ORIENTED_EDGE('',*,*,#502,.T.);
#652=ORIENTED_EDGE('',*,*,#503,.F.);
#653=ORIENTED_EDGE('',*,*,#502,.F.);
#654=ORIENTED_EDGE('',*,*,#501,.T.);
#655=ORIENTED_EDGE('',*,*,#504,.F.);
#656=ORIENTED_EDGE('',*,*,#505,.F.);
#657=ORIENTED_EDGE('',*,*,#506,.T.);
#658=ORIENTED_EDGE('',*,*,#507,.F.);
#659=ORIENTED_EDGE('',*,*,#506,.F.);
#660=ORIENTED_EDGE('',*,*,#505,.T.);
#661=ORIENTED_EDGE('',*,*,#508,.F.);
#662=ORIENTED_EDGE('',*,*,#509,.F.);
#663=ORIENTED_EDGE('',*,*,#510,.T.);
#664=ORIENTED_EDGE('',*,*,#491,.T.);
#665=ORIENTED_EDGE('',*,*,#510,.F.);
#666=ORIENTED_EDGE('',*,*,#511,.F.);
#667=ORIENTED_EDGE('',*,*,#512,.T.);
#668=ORIENTED_EDGE('',*,*,#495,.T.);
#669=ORIENTED_EDGE('',*,*,#512,.F.);
#670=ORIENTED_EDGE('',*,*,#513,.F.);
#671=ORIENTED_EDGE('',*,*,#514,.T.);
#672=ORIENTED_EDGE('',*,*,#499,.T.);
#673=ORIENTED_EDGE('',*,*,#514,.F.);
#674=ORIENTED_EDGE('',*,*,#515,.F.);
#675=ORIENTED_EDGE('',*,*,#516,.T.);
#676=ORIENTED_EDGE('',*,*,#500,.T.);
#677=ORIENTED_EDGE('',*,*,#516,.F.);
#678=ORIENTED_EDGE('',*,*,#517,.F.);
#679=ORIENTED_EDGE('',*,*,#518,.T.);
#680=ORIENTED_EDGE('',*,*,#504,.T.);
#681=ORIENTED_EDGE('',*,*,#518,.F.);
#682=ORIENTED_EDGE('',*,*,#519,.F.);
#683=ORIENTED_EDGE('',*,*,#520,.T.);
#684=ORIENTED_EDGE('',*,*,#508,.T.);
#685=ORIENTED_EDGE('',*,*,#520,.F.);
#686=ORIENTED_EDGE('',*,*,#521,.F.);
#687=ORIENTED_EDGE('',*,*,#522,.T.);
#688=ORIENTED_EDGE('',*,*,#523,.F.);
#689=ORIENTED_EDGE('',*,*,#522,.F.);
#690=ORIENTED_EDGE('',*,*,#524,.F.);
#691=ORIENTED_EDGE('',*,*,#447,.T.);
#692=ORIENTED_EDGE('',*,*,#454,.T.);
#693=ORIENTED_EDGE('',*,*,#451,.T.);
#694=ORIENTED_EDGE('',*,*,#525,.F.);
#695=ORIENTED_EDGE('',*,*,#526,.T.);
#696=ORIENTED_EDGE('',*,*,#524,.T.);
#697=ORIENTED_EDGE('',*,*,#526,.F.);
#698=ORIENTED_EDGE('',*,*,#525,.T.);
#699=ORIENTED_EDGE('',*,*,#437,.T.);
#700=ORIENTED_EDGE('',*,*,#441,.T.);
#701=ORIENTED_EDGE('',*,*,#442,.T.);
#702=ORIENTED_EDGE('',*,*,#457,.T.);
#703=ORIENTED_EDGE('',*,*,#460,.T.);
#704=ORIENTED_EDGE('',*,*,#463,.T.);
#705=ORIENTED_EDGE('',*,*,#466,.T.);
#706=ORIENTED_EDGE('',*,*,#469,.T.);
#707=ORIENTED_EDGE('',*,*,#472,.T.);
#708=ORIENTED_EDGE('',*,*,#494,.T.);
#709=ORIENTED_EDGE('',*,*,#498,.T.);
#710=ORIENTED_EDGE('',*,*,#503,.T.);
#711=ORIENTED_EDGE('',*,*,#507,.T.);
#712=ORIENTED_EDGE('',*,*,#523,.T.);
#713=ORIENTED_EDGE('',*,*,#490,.T.);
#714=ORIENTED_EDGE('',*,*,#488,.T.);
#715=ORIENTED_EDGE('',*,*,#486,.T.);
#716=ORIENTED_EDGE('',*,*,#450,.T.);
#717=ORIENTED_EDGE('',*,*,#428,.T.);
#718=ORIENTED_EDGE('',*,*,#432,.T.);
#719=ORIENTED_EDGE('',*,*,#433,.T.);
#720=ORIENTED_EDGE('',*,*,#453,.F.);
#721=ORIENTED_EDGE('',*,*,#521,.T.);
#722=ORIENTED_EDGE('',*,*,#519,.T.);
#723=ORIENTED_EDGE('',*,*,#517,.T.);
#724=ORIENTED_EDGE('',*,*,#515,.T.);
#725=ORIENTED_EDGE('',*,*,#513,.T.);
#726=ORIENTED_EDGE('',*,*,#511,.T.);
#727=ORIENTED_EDGE('',*,*,#509,.T.);
#728=ORIENTED_EDGE('',*,*,#481,.T.);
#729=ORIENTED_EDGE('',*,*,#477,.T.);
#730=ORIENTED_EDGE('',*,*,#473,.T.);
#731=PLANE('',#817);
#732=PLANE('',#826);
#733=PLANE('',#835);
#734=PLANE('',#849);
#735=PLANE('',#853);
#736=PLANE('',#857);
#737=PLANE('',#861);
#738=PLANE('',#865);
#739=PLANE('',#869);
#740=PLANE('',#873);
#741=PLANE('',#878);
#742=PLANE('',#883);
#743=PLANE('',#891);
#744=PLANE('',#896);
#745=PLANE('',#901);
#746=PLANE('',#903);
#747=PLANE('',#908);
#748=PLANE('',#913);
#749=PLANE('',#930);
#750=PLANE('',#934);
#751=PLANE('',#935);
#752=ADVANCED_FACE('',(#150),#731,.T.);
#753=ADVANCED_FACE('',(#151),#120,.F.);
#754=ADVANCED_FACE('',(#152),#121,.F.);
#755=ADVANCED_FACE('',(#153),#732,.T.);
#756=ADVANCED_FACE('',(#154),#122,.F.);
#757=ADVANCED_FACE('',(#155),#123,.F.);
#758=ADVANCED_FACE('',(#156),#733,.T.);
#759=ADVANCED_FACE('',(#157),#124,.F.);
#760=ADVANCED_FACE('',(#158),#125,.T.);
#761=ADVANCED_FACE('',(#159),#126,.F.);
#762=ADVANCED_FACE('',(#160),#734,.T.);
#763=ADVANCED_FACE('',(#161),#127,.F.);
#764=ADVANCED_FACE('',(#162),#735,.T.);
#765=ADVANCED_FACE('',(#163),#128,.F.);
#766=ADVANCED_FACE('',(#164),#736,.T.);
#767=ADVANCED_FACE('',(#165),#129,.F.);
#768=ADVANCED_FACE('',(#166),#737,.T.);
#769=ADVANCED_FACE('',(#167),#130,.F.);
#770=ADVANCED_FACE('',(#168),#738,.T.);
#771=ADVANCED_FACE('',(#169),#131,.F.);
#772=ADVANCED_FACE('',(#170),#739,.T.);
#773=ADVANCED_FACE('',(#171),#132,.F.);
#774=ADVANCED_FACE('',(#172,#15),#740,.F.);
#775=ADVANCED_FACE('',(#173),#133,.F.);
#776=ADVANCED_FACE('',(#174,#16),#741,.F.);
#777=ADVANCED_FACE('',(#175),#134,.F.);
#778=ADVANCED_FACE('',(#176,#17),#742,.F.);
#779=ADVANCED_FACE('',(#177),#135,.F.);
#780=ADVANCED_FACE('',(#178),#136,.F.);
#781=ADVANCED_FACE('',(#179),#137,.F.);
#782=ADVANCED_FACE('',(#180,#18),#743,.T.);
#783=ADVANCED_FACE('',(#181),#138,.F.);
#784=ADVANCED_FACE('',(#182,#19),#744,.T.);
#785=ADVANCED_FACE('',(#183),#139,.F.);
#786=ADVANCED_FACE('',(#184,#20),#745,.T.);
#787=ADVANCED_FACE('',(#185,#21),#746,.T.);
#788=ADVANCED_FACE('',(#186),#140,.F.);
#789=ADVANCED_FACE('',(#187,#22),#747,.T.);
#790=ADVANCED_FACE('',(#188),#141,.F.);
#791=ADVANCED_FACE('',(#189,#23),#748,.T.);
#792=ADVANCED_FACE('',(#190),#142,.F.);
#793=ADVANCED_FACE('',(#191),#143,.F.);
#794=ADVANCED_FACE('',(#192),#144,.F.);
#795=ADVANCED_FACE('',(#193),#145,.F.);
#796=ADVANCED_FACE('',(#194),#146,.F.);
#797=ADVANCED_FACE('',(#195),#147,.F.);
#798=ADVANCED_FACE('',(#196),#148,.F.);
#799=ADVANCED_FACE('',(#197,#24),#749,.F.);
#800=ADVANCED_FACE('',(#198),#149,.T.);
#801=ADVANCED_FACE('',(#199,#25,#26,#27,#28,#29,#30,#31,#32,#33,#34,#35,
#36,#37,#38,#39,#40,#41),#750,.T.);
#802=ADVANCED_FACE('',(#200,#42,#43,#44,#45,#46,#47,#48,#49,#50,#51),#751,
 .F.);
#803=CLOSED_SHELL('',(#752,#753,#754,#755,#756,#757,#758,#759,#760,#761,
#762,#763,#764,#765,#766,#767,#768,#769,#770,#771,#772,#773,#774,#775,#776,
#777,#778,#779,#780,#781,#782,#783,#784,#785,#786,#787,#788,#789,#790,#791,
#792,#793,#794,#795,#796,#797,#798,#799,#800,#801,#802));
#804=DERIVED_UNIT_ELEMENT(#806,1.);
#805=DERIVED_UNIT_ELEMENT(#1437,-3.);
#806=(
MASS_UNIT()
NAMED_UNIT(*)
SI_UNIT(.KILO.,.GRAM.)
);
#807=DERIVED_UNIT((#804,#805));
#808=MEASURE_REPRESENTATION_ITEM('density measure',
POSITIVE_RATIO_MEASURE(7850.),#807);
#809=PROPERTY_DEFINITION_REPRESENTATION(#814,#811);
#810=PROPERTY_DEFINITION_REPRESENTATION(#815,#812);
#811=REPRESENTATION('material name',(#813),#1434);
#812=REPRESENTATION('density',(#808),#1434);
#813=DESCRIPTIVE_REPRESENTATION_ITEM('Steel','Steel');
#814=PROPERTY_DEFINITION('material property','material name',#1444);
#815=PROPERTY_DEFINITION('material property','density of part',#1444);
#816=AXIS2_PLACEMENT_3D('',#1210,#936,#937);
#817=AXIS2_PLACEMENT_3D('',#1211,#938,#939);
#818=AXIS2_PLACEMENT_3D('',#1214,#940,#941);
#819=AXIS2_PLACEMENT_3D('',#1215,#942,#943);
#820=AXIS2_PLACEMENT_3D('',#1216,#944,#945);
#821=AXIS2_PLACEMENT_3D('',#1220,#947,#948);
#822=AXIS2_PLACEMENT_3D('',#1222,#950,#951);
#823=AXIS2_PLACEMENT_3D('',#1224,#952,#953);
#824=AXIS2_PLACEMENT_3D('',#1227,#955,#956);
#825=AXIS2_PLACEMENT_3D('',#1228,#957,#958);
#826=AXIS2_PLACEMENT_3D('',#1229,#959,#960);
#827=AXIS2_PLACEMENT_3D('',#1232,#961,#962);
#828=AXIS2_PLACEMENT_3D('',#1233,#963,#964);
#829=AXIS2_PLACEMENT_3D('',#1234,#965,#966);
#830=AXIS2_PLACEMENT_3D('',#1238,#968,#969);
#831=AXIS2_PLACEMENT_3D('',#1240,#971,#972);
#832=AXIS2_PLACEMENT_3D('',#1242,#973,#974);
#833=AXIS2_PLACEMENT_3D('',#1245,#976,#977);
#834=AXIS2_PLACEMENT_3D('',#1246,#978,#979);
#835=AXIS2_PLACEMENT_3D('',#1247,#980,#981);
#836=AXIS2_PLACEMENT_3D('',#1250,#982,#983);
#837=AXIS2_PLACEMENT_3D('',#1252,#984,#985);
#838=AXIS2_PLACEMENT_3D('',#1253,#986,#987);
#839=AXIS2_PLACEMENT_3D('',#1254,#988,#989);
#840=AXIS2_PLACEMENT_3D('',#1258,#991,#992);
#841=AXIS2_PLACEMENT_3D('',#1262,#995,#996);
#842=AXIS2_PLACEMENT_3D('',#1263,#997,#998);
#843=AXIS2_PLACEMENT_3D('',#1265,#999,#1000);
#844=AXIS2_PLACEMENT_3D('',#1268,#1002,#1003);
#845=AXIS2_PLACEMENT_3D('',#1269,#1004,#1005);
#846=AXIS2_PLACEMENT_3D('',#1270,#1006,#1007);
#847=AXIS2_PLACEMENT_3D('',#1272,#1008,#1009);
#848=AXIS2_PLACEMENT_3D('',#1275,#1011,#1012);
#849=AXIS2_PLACEMENT_3D('',#1276,#1013,#1014);
#850=AXIS2_PLACEMENT_3D('',#1277,#1015,#1016);
#851=AXIS2_PLACEMENT_3D('',#1279,#1017,#1018);
#852=AXIS2_PLACEMENT_3D('',#1282,#1020,#1021);
#853=AXIS2_PLACEMENT_3D('',#1283,#1022,#1023);
#854=AXIS2_PLACEMENT_3D('',#1284,#1024,#1025);
#855=AXIS2_PLACEMENT_3D('',#1286,#1026,#1027);
#856=AXIS2_PLACEMENT_3D('',#1289,#1029,#1030);
#857=AXIS2_PLACEMENT_3D('',#1290,#1031,#1032);
#858=AXIS2_PLACEMENT_3D('',#1291,#1033,#1034);
#859=AXIS2_PLACEMENT_3D('',#1293,#1035,#1036);
#860=AXIS2_PLACEMENT_3D('',#1296,#1038,#1039);
#861=AXIS2_PLACEMENT_3D('',#1297,#1040,#1041);
#862=AXIS2_PLACEMENT_3D('',#1298,#1042,#1043);
#863=AXIS2_PLACEMENT_3D('',#1300,#1044,#1045);
#864=AXIS2_PLACEMENT_3D('',#1303,#1047,#1048);
#865=AXIS2_PLACEMENT_3D('',#1304,#1049,#1050);
#866=AXIS2_PLACEMENT_3D('',#1305,#1051,#1052);
#867=AXIS2_PLACEMENT_3D('',#1307,#1053,#1054);
#868=AXIS2_PLACEMENT_3D('',#1310,#1056,#1057);
#869=AXIS2_PLACEMENT_3D('',#1311,#1058,#1059);
#870=AXIS2_PLACEMENT_3D('',#1312,#1060,#1061);
#871=AXIS2_PLACEMENT_3D('',#1314,#1062,#1063);
#872=AXIS2_PLACEMENT_3D('',#1317,#1065,#1066);
#873=AXIS2_PLACEMENT_3D('',#1318,#1067,#1068);
#874=AXIS2_PLACEMENT_3D('',#1320,#1069,#1070);
#875=AXIS2_PLACEMENT_3D('',#1321,#1071,#1072);
#876=AXIS2_PLACEMENT_3D('',#1323,#1073,#1074);
#877=AXIS2_PLACEMENT_3D('',#1326,#1076,#1077);
#878=AXIS2_PLACEMENT_3D('',#1327,#1078,#1079);
#879=AXIS2_PLACEMENT_3D('',#1329,#1080,#1081);
#880=AXIS2_PLACEMENT_3D('',#1330,#1082,#1083);
#881=AXIS2_PLACEMENT_3D('',#1332,#1084,#1085);
#882=AXIS2_PLACEMENT_3D('',#1335,#1087,#1088);
#883=AXIS2_PLACEMENT_3D('',#1336,#1089,#1090);
#884=AXIS2_PLACEMENT_3D('',#1338,#1091,#1092);
#885=AXIS2_PLACEMENT_3D('',#1339,#1093,#1094);
#886=AXIS2_PLACEMENT_3D('',#1342,#1096,#1097);
#887=AXIS2_PLACEMENT_3D('',#1343,#1098,#1099);
#888=AXIS2_PLACEMENT_3D('',#1346,#1101,#1102);
#889=AXIS2_PLACEMENT_3D('',#1347,#1103,#1104);
#890=AXIS2_PLACEMENT_3D('',#1350,#1106,#1107);
#891=AXIS2_PLACEMENT_3D('',#1351,#1108,#1109);
#892=AXIS2_PLACEMENT_3D('',#1353,#1110,#1111);
#893=AXIS2_PLACEMENT_3D('',#1354,#1112,#1113);
#894=AXIS2_PLACEMENT_3D('',#1356,#1114,#1115);
#895=AXIS2_PLACEMENT_3D('',#1359,#1117,#1118);
#896=AXIS2_PLACEMENT_3D('',#1360,#1119,#1120);
#897=AXIS2_PLACEMENT_3D('',#1362,#1121,#1122);
#898=AXIS2_PLACEMENT_3D('',#1363,#1123,#1124);
#899=AXIS2_PLACEMENT_3D('',#1365,#1125,#1126);
#900=AXIS2_PLACEMENT_3D('',#1368,#1128,#1129);
#901=AXIS2_PLACEMENT_3D('',#1369,#1130,#1131);
#902=AXIS2_PLACEMENT_3D('',#1371,#1132,#1133);
#903=AXIS2_PLACEMENT_3D('',#1372,#1134,#1135);
#904=AXIS2_PLACEMENT_3D('',#1374,#1136,#1137);
#905=AXIS2_PLACEMENT_3D('',#1375,#1138,#1139);
#906=AXIS2_PLACEMENT_3D('',#1377,#1140,#1141);
#907=AXIS2_PLACEMENT_3D('',#1380,#1143,#1144);
#908=AXIS2_PLACEMENT_3D('',#1381,#1145,#1146);
#909=AXIS2_PLACEMENT_3D('',#1383,#1147,#1148);
#910=AXIS2_PLACEMENT_3D('',#1384,#1149,#1150);
#911=AXIS2_PLACEMENT_3D('',#1386,#1151,#1152);
#912=AXIS2_PLACEMENT_3D('',#1389,#1154,#1155);
#913=AXIS2_PLACEMENT_3D('',#1390,#1156,#1157);
#914=AXIS2_PLACEMENT_3D('',#1392,#1158,#1159);
#915=AXIS2_PLACEMENT_3D('',#1393,#1160,#1161);
#916=AXIS2_PLACEMENT_3D('',#1395,#1162,#1163);
#917=AXIS2_PLACEMENT_3D('',#1397,#1165,#1166);
#918=AXIS2_PLACEMENT_3D('',#1399,#1167,#1168);
#919=AXIS2_PLACEMENT_3D('',#1401,#1170,#1171);
#920=AXIS2_PLACEMENT_3D('',#1403,#1172,#1173);
#921=AXIS2_PLACEMENT_3D('',#1405,#1175,#1176);
#922=AXIS2_PLACEMENT_3D('',#1407,#1177,#1178);
#923=AXIS2_PLACEMENT_3D('',#1409,#1180,#1181);
#924=AXIS2_PLACEMENT_3D('',#1411,#1182,#1183);
#925=AXIS2_PLACEMENT_3D('',#1413,#1185,#1186);
#926=AXIS2_PLACEMENT_3D('',#1415,#1187,#1188);
#927=AXIS2_PLACEMENT_3D('',#1417,#1190,#1191);
#928=AXIS2_PLACEMENT_3D('',#1419,#1192,#1193);
#929=AXIS2_PLACEMENT_3D('',#1422,#1195,#1196);
#930=AXIS2_PLACEMENT_3D('',#1423,#1197,#1198);
#931=AXIS2_PLACEMENT_3D('',#1425,#1199,#1200);
#932=AXIS2_PLACEMENT_3D('',#1426,#1201,#1202);
#933=AXIS2_PLACEMENT_3D('',#1428,#1203,#1204);
#934=AXIS2_PLACEMENT_3D('',#1430,#1206,#1207);
#935=AXIS2_PLACEMENT_3D('',#1431,#1208,#1209);
#936=DIRECTION('axis',(0.,0.,1.));
#937=DIRECTION('refdir',(1.,0.,0.));
#938=DIRECTION('center_axis',(0.,1.,0.));
#939=DIRECTION('ref_axis',(1.,0.,0.));
#940=DIRECTION('center_axis',(0.,1.,0.));
#941=DIRECTION('ref_axis',(1.,0.,0.));
#942=DIRECTION('center_axis',(0.,1.,0.));
#943=DIRECTION('ref_axis',(1.,0.,0.));
#944=DIRECTION('center_axis',(0.,1.,0.));
#945=DIRECTION('ref_axis',(0.00698126029796118,0.,-0.999975630705395));
#946=DIRECTION('',(0.,-1.,0.));
#947=DIRECTION('center_axis',(0.,-1.,0.));
#948=DIRECTION('ref_axis',(1.,0.,0.));
#949=DIRECTION('',(0.,1.,0.));
#950=DIRECTION('center_axis',(0.,1.,0.));
#951=DIRECTION('ref_axis',(1.,0.,0.));
#952=DIRECTION('center_axis',(0.,1.,0.));
#953=DIRECTION('ref_axis',(1.,0.,0.));
#954=DIRECTION('',(0.,1.,0.));
#955=DIRECTION('center_axis',(0.,-1.,0.));
#956=DIRECTION('ref_axis',(1.,0.,0.));
#957=DIRECTION('center_axis',(0.,-1.,0.));
#958=DIRECTION('ref_axis',(1.,0.,0.));
#959=DIRECTION('center_axis',(0.,1.,0.));
#960=DIRECTION('ref_axis',(1.,0.,0.));
#961=DIRECTION('center_axis',(0.,1.,0.));
#962=DIRECTION('ref_axis',(1.,0.,0.));
#963=DIRECTION('center_axis',(0.,1.,0.));
#964=DIRECTION('ref_axis',(1.,0.,0.));
#965=DIRECTION('center_axis',(0.,1.,0.));
#966=DIRECTION('ref_axis',(-0.869494929505219,0.,0.493941866584231));
#967=DIRECTION('',(0.,-1.,0.));
#968=DIRECTION('center_axis',(0.,-1.,0.));
#969=DIRECTION('ref_axis',(1.,0.,0.));
#970=DIRECTION('',(0.,1.,0.));
#971=DIRECTION('center_axis',(0.,1.,0.));
#972=DIRECTION('ref_axis',(1.,0.,0.));
#973=DIRECTION('center_axis',(0.,1.,0.));
#974=DIRECTION('ref_axis',(1.,0.,0.));
#975=DIRECTION('',(0.,1.,0.));
#976=DIRECTION('center_axis',(0.,-1.,0.));
#977=DIRECTION('ref_axis',(1.,0.,0.));
#978=DIRECTION('center_axis',(0.,-1.,0.));
#979=DIRECTION('ref_axis',(1.,0.,0.));
#980=DIRECTION('center_axis',(0.,1.,0.));
#981=DIRECTION('ref_axis',(1.,0.,0.));
#982=DIRECTION('center_axis',(0.,-1.,0.));
#983=DIRECTION('ref_axis',(1.,0.,0.));
#984=DIRECTION('center_axis',(0.,1.,0.));
#985=DIRECTION('ref_axis',(1.,0.,0.));
#986=DIRECTION('center_axis',(0.,1.,0.));
#987=DIRECTION('ref_axis',(1.,0.,0.));
#988=DIRECTION('center_axis',(0.,1.,0.));
#989=DIRECTION('ref_axis',(1.,0.,0.));
#990=DIRECTION('',(0.,-1.,0.));
#991=DIRECTION('center_axis',(0.,1.,0.));
#992=DIRECTION('ref_axis',(1.,0.,0.));
#993=DIRECTION('',(0.,1.,0.));
#994=DIRECTION('',(0.,1.,0.));
#995=DIRECTION('center_axis',(0.,-1.,0.));
#996=DIRECTION('ref_axis',(1.,0.,0.));
#997=DIRECTION('center_axis',(0.,1.,0.));
#998=DIRECTION('ref_axis',(1.,0.,0.));
#999=DIRECTION('center_axis',(0.,1.,0.));
#1000=DIRECTION('ref_axis',(1.,0.,0.));
#1001=DIRECTION('',(0.,-1.,0.));
#1002=DIRECTION('center_axis',(0.,1.,0.));
#1003=DIRECTION('ref_axis',(1.,0.,0.));
#1004=DIRECTION('center_axis',(0.,1.,0.));
#1005=DIRECTION('ref_axis',(1.,0.,0.));
#1006=DIRECTION('center_axis',(0.,1.,0.));
#1007=DIRECTION('ref_axis',(1.,0.,0.));
#1008=DIRECTION('center_axis',(0.,1.,0.));
#1009=DIRECTION('ref_axis',(1.,0.,0.));
#1010=DIRECTION('',(0.,1.,0.));
#1011=DIRECTION('center_axis',(0.,-1.,0.));
#1012=DIRECTION('ref_axis',(1.,0.,0.));
#1013=DIRECTION('center_axis',(0.,1.,0.));
#1014=DIRECTION('ref_axis',(1.,0.,0.));
#1015=DIRECTION('center_axis',(0.,1.,0.));
#1016=DIRECTION('ref_axis',(1.,0.,0.));
#1017=DIRECTION('center_axis',(0.,1.,0.));
#1018=DIRECTION('ref_axis',(1.,0.,0.));
#1019=DIRECTION('',(0.,1.,0.));
#1020=DIRECTION('center_axis',(0.,-1.,0.));
#1021=DIRECTION('ref_axis',(1.,0.,0.));
#1022=DIRECTION('center_axis',(0.,1.,0.));
#1023=DIRECTION('ref_axis',(1.,0.,0.));
#1024=DIRECTION('center_axis',(0.,1.,0.));
#1025=DIRECTION('ref_axis',(1.,0.,0.));
#1026=DIRECTION('center_axis',(0.,1.,0.));
#1027=DIRECTION('ref_axis',(1.,0.,0.));
#1028=DIRECTION('',(0.,1.,0.));
#1029=DIRECTION('center_axis',(0.,-1.,0.));
#1030=DIRECTION('ref_axis',(1.,0.,0.));
#1031=DIRECTION('center_axis',(0.,1.,0.));
#1032=DIRECTION('ref_axis',(1.,0.,0.));
#1033=DIRECTION('center_axis',(0.,1.,0.));
#1034=DIRECTION('ref_axis',(1.,0.,0.));
#1035=DIRECTION('center_axis',(0.,1.,0.));
#1036=DIRECTION('ref_axis',(1.,0.,0.));
#1037=DIRECTION('',(0.,1.,0.));
#1038=DIRECTION('center_axis',(0.,-1.,0.));
#1039=DIRECTION('ref_axis',(1.,0.,0.));
#1040=DIRECTION('center_axis',(0.,1.,0.));
#1041=DIRECTION('ref_axis',(1.,0.,0.));
#1042=DIRECTION('center_axis',(0.,1.,0.));
#1043=DIRECTION('ref_axis',(1.,0.,0.));
#1044=DIRECTION('center_axis',(0.,1.,0.));
#1045=DIRECTION('ref_axis',(1.,0.,0.));
#1046=DIRECTION('',(0.,1.,0.));
#1047=DIRECTION('center_axis',(0.,-1.,0.));
#1048=DIRECTION('ref_axis',(1.,0.,0.));
#1049=DIRECTION('center_axis',(0.,1.,0.));
#1050=DIRECTION('ref_axis',(1.,0.,0.));
#1051=DIRECTION('center_axis',(0.,1.,0.));
#1052=DIRECTION('ref_axis',(1.,0.,0.));
#1053=DIRECTION('center_axis',(0.,1.,0.));
#1054=DIRECTION('ref_axis',(1.,0.,0.));
#1055=DIRECTION('',(0.,1.,0.));
#1056=DIRECTION('center_axis',(0.,-1.,0.));
#1057=DIRECTION('ref_axis',(1.,0.,0.));
#1058=DIRECTION('center_axis',(0.,1.,0.));
#1059=DIRECTION('ref_axis',(1.,0.,0.));
#1060=DIRECTION('center_axis',(0.,1.,0.));
#1061=DIRECTION('ref_axis',(1.,0.,0.));
#1062=DIRECTION('center_axis',(0.,1.,0.));
#1063=DIRECTION('ref_axis',(1.,0.,0.));
#1064=DIRECTION('',(0.,1.,0.));
#1065=DIRECTION('center_axis',(0.,1.,0.));
#1066=DIRECTION('ref_axis',(1.,0.,0.));
#1067=DIRECTION('center_axis',(0.,1.,0.));
#1068=DIRECTION('ref_axis',(1.,0.,0.));
#1069=DIRECTION('center_axis',(0.,-1.,0.));
#1070=DIRECTION('ref_axis',(1.,0.,0.));
#1071=DIRECTION('center_axis',(0.,1.,0.));
#1072=DIRECTION('ref_axis',(1.,0.,0.));
#1073=DIRECTION('center_axis',(0.,1.,0.));
#1074=DIRECTION('ref_axis',(1.,0.,0.));
#1075=DIRECTION('',(0.,1.,0.));
#1076=DIRECTION('center_axis',(0.,1.,0.));
#1077=DIRECTION('ref_axis',(1.,0.,0.));
#1078=DIRECTION('center_axis',(0.,1.,0.));
#1079=DIRECTION('ref_axis',(1.,0.,0.));
#1080=DIRECTION('center_axis',(0.,-1.,0.));
#1081=DIRECTION('ref_axis',(1.,0.,0.));
#1082=DIRECTION('center_axis',(0.,1.,0.));
#1083=DIRECTION('ref_axis',(1.,0.,0.));
#1084=DIRECTION('center_axis',(0.,1.,0.));
#1085=DIRECTION('ref_axis',(1.,0.,0.));
#1086=DIRECTION('',(0.,1.,0.));
#1087=DIRECTION('center_axis',(0.,1.,0.));
#1088=DIRECTION('ref_axis',(1.,0.,0.));
#1089=DIRECTION('center_axis',(0.,1.,0.));
#1090=DIRECTION('ref_axis',(1.,0.,0.));
#1091=DIRECTION('center_axis',(0.,-1.,0.));
#1092=DIRECTION('ref_axis',(1.,0.,0.));
#1093=DIRECTION('center_axis',(0.,1.,0.));
#1094=DIRECTION('ref_axis',(1.,0.,0.));
#1095=DIRECTION('',(0.,1.,0.));
#1096=DIRECTION('center_axis',(0.,-1.,0.));
#1097=DIRECTION('ref_axis',(1.,0.,0.));
#1098=DIRECTION('center_axis',(0.,1.,0.));
#1099=DIRECTION('ref_axis',(1.,0.,0.));
#1100=DIRECTION('',(0.,1.,0.));
#1101=DIRECTION('center_axis',(0.,-1.,0.));
#1102=DIRECTION('ref_axis',(1.,0.,0.));
#1103=DIRECTION('center_axis',(0.,1.,0.));
#1104=DIRECTION('ref_axis',(1.,0.,0.));
#1105=DIRECTION('',(0.,1.,0.));
#1106=DIRECTION('center_axis',(0.,-1.,0.));
#1107=DIRECTION('ref_axis',(1.,0.,0.));
#1108=DIRECTION('center_axis',(0.,1.,0.));
#1109=DIRECTION('ref_axis',(1.,0.,0.));
#1110=DIRECTION('center_axis',(0.,1.,0.));
#1111=DIRECTION('ref_axis',(1.,0.,0.));
#1112=DIRECTION('center_axis',(0.,1.,0.));
#1113=DIRECTION('ref_axis',(1.,0.,0.));
#1114=DIRECTION('center_axis',(0.,1.,0.));
#1115=DIRECTION('ref_axis',(1.,0.,0.));
#1116=DIRECTION('',(0.,1.,0.));
#1117=DIRECTION('center_axis',(0.,-1.,0.));
#1118=DIRECTION('ref_axis',(1.,0.,0.));
#1119=DIRECTION('center_axis',(0.,1.,0.));
#1120=DIRECTION('ref_axis',(1.,0.,0.));
#1121=DIRECTION('center_axis',(0.,1.,0.));
#1122=DIRECTION('ref_axis',(1.,0.,0.));
#1123=DIRECTION('center_axis',(0.,1.,0.));
#1124=DIRECTION('ref_axis',(1.,0.,0.));
#1125=DIRECTION('center_axis',(0.,1.,0.));
#1126=DIRECTION('ref_axis',(1.,0.,0.));
#1127=DIRECTION('',(0.,1.,0.));
#1128=DIRECTION('center_axis',(0.,-1.,0.));
#1129=DIRECTION('ref_axis',(1.,0.,0.));
#1130=DIRECTION('center_axis',(0.,1.,0.));
#1131=DIRECTION('ref_axis',(1.,0.,0.));
#1132=DIRECTION('center_axis',(0.,1.,0.));
#1133=DIRECTION('ref_axis',(1.,0.,0.));
#1134=DIRECTION('center_axis',(0.,1.,0.));
#1135=DIRECTION('ref_axis',(1.,0.,0.));
#1136=DIRECTION('center_axis',(0.,1.,0.));
#1137=DIRECTION('ref_axis',(1.,0.,0.));
#1138=DIRECTION('center_axis',(0.,1.,0.));
#1139=DIRECTION('ref_axis',(1.,0.,0.));
#1140=DIRECTION('center_axis',(0.,1.,0.));
#1141=DIRECTION('ref_axis',(1.,0.,0.));
#1142=DIRECTION('',(0.,1.,0.));
#1143=DIRECTION('center_axis',(0.,-1.,0.));
#1144=DIRECTION('ref_axis',(1.,0.,0.));
#1145=DIRECTION('center_axis',(0.,1.,0.));
#1146=DIRECTION('ref_axis',(1.,0.,0.));
#1147=DIRECTION('center_axis',(0.,1.,0.));
#1148=DIRECTION('ref_axis',(1.,0.,0.));
#1149=DIRECTION('center_axis',(0.,1.,0.));
#1150=DIRECTION('ref_axis',(1.,0.,0.));
#1151=DIRECTION('center_axis',(0.,1.,0.));
#1152=DIRECTION('ref_axis',(1.,0.,0.));
#1153=DIRECTION('',(0.,1.,0.));
#1154=DIRECTION('center_axis',(0.,-1.,0.));
#1155=DIRECTION('ref_axis',(1.,0.,0.));
#1156=DIRECTION('center_axis',(0.,1.,0.));
#1157=DIRECTION('ref_axis',(1.,0.,0.));
#1158=DIRECTION('center_axis',(0.,1.,0.));
#1159=DIRECTION('ref_axis',(1.,0.,0.));
#1160=DIRECTION('center_axis',(0.,1.,0.));
#1161=DIRECTION('ref_axis',(1.,0.,0.));
#1162=DIRECTION('center_axis',(0.,1.,0.));
#1163=DIRECTION('ref_axis',(1.,0.,0.));
#1164=DIRECTION('',(0.,1.,0.));
#1165=DIRECTION('center_axis',(0.,1.,0.));
#1166=DIRECTION('ref_axis',(1.,0.,0.));
#1167=DIRECTION('center_axis',(0.,1.,0.));
#1168=DIRECTION('ref_axis',(1.,0.,0.));
#1169=DIRECTION('',(0.,1.,0.));
#1170=DIRECTION('center_axis',(0.,1.,0.));
#1171=DIRECTION('ref_axis',(1.,0.,0.));
#1172=DIRECTION('center_axis',(0.,1.,0.));
#1173=DIRECTION('ref_axis',(1.,0.,0.));
#1174=DIRECTION('',(0.,1.,0.));
#1175=DIRECTION('center_axis',(0.,1.,0.));
#1176=DIRECTION('ref_axis',(1.,0.,0.));
#1177=DIRECTION('center_axis',(0.,1.,0.));
#1178=DIRECTION('ref_axis',(1.,0.,0.));
#1179=DIRECTION('',(0.,1.,0.));
#1180=DIRECTION('center_axis',(0.,1.,0.));
#1181=DIRECTION('ref_axis',(1.,0.,0.));
#1182=DIRECTION('center_axis',(0.,1.,0.));
#1183=DIRECTION('ref_axis',(1.,0.,0.));
#1184=DIRECTION('',(0.,1.,0.));
#1185=DIRECTION('center_axis',(0.,1.,0.));
#1186=DIRECTION('ref_axis',(1.,0.,0.));
#1187=DIRECTION('center_axis',(0.,1.,0.));
#1188=DIRECTION('ref_axis',(1.,0.,0.));
#1189=DIRECTION('',(0.,1.,0.));
#1190=DIRECTION('center_axis',(0.,1.,0.));
#1191=DIRECTION('ref_axis',(1.,0.,0.));
#1192=DIRECTION('center_axis',(0.,1.,0.));
#1193=DIRECTION('ref_axis',(1.,0.,0.));
#1194=DIRECTION('',(0.,1.,0.));
#1195=DIRECTION('center_axis',(0.,-1.,0.));
#1196=DIRECTION('ref_axis',(1.,0.,0.));
#1197=DIRECTION('center_axis',(0.,1.,0.));
#1198=DIRECTION('ref_axis',(1.,0.,0.));
#1199=DIRECTION('center_axis',(0.,1.,0.));
#1200=DIRECTION('ref_axis',(1.,0.,0.));
#1201=DIRECTION('center_axis',(0.,1.,0.));
#1202=DIRECTION('ref_axis',(1.,0.,0.));
#1203=DIRECTION('center_axis',(0.,1.,0.));
#1204=DIRECTION('ref_axis',(1.,0.,0.));
#1205=DIRECTION('',(0.,-1.,0.));
#1206=DIRECTION('center_axis',(0.,1.,0.));
#1207=DIRECTION('ref_axis',(1.,0.,0.));
#1208=DIRECTION('center_axis',(0.,1.,0.));
#1209=DIRECTION('ref_axis',(1.,0.,0.));
#1210=CARTESIAN_POINT('',(0.,0.,0.));
#1211=CARTESIAN_POINT('Origin',(0.14660646625718,54.,-20.9994882448133));
#1212=CARTESIAN_POINT('',(0.735675443991105,54.,-15.5311248937299));
#1213=CARTESIAN_POINT('',(-0.518755366662345,54.,-15.5398826151644));
#1214=CARTESIAN_POINT('Origin',(0.0872657537245117,54.,-12.4996953838174));
#1215=CARTESIAN_POINT('Origin',(0.14660646625718,54.,-20.9994882448133));
#1216=CARTESIAN_POINT('Origin',(0.14660646625718,54.,-20.9994882448133));
#1217=CARTESIAN_POINT('',(0.735675443991105,59.5,-15.5311248937299));
#1218=CARTESIAN_POINT('',(0.735675443991105,54.,-15.5311248937299));
#1219=CARTESIAN_POINT('',(-0.518755366662345,59.5,-15.5398826151644));
#1220=CARTESIAN_POINT('Origin',(0.14660646625718,59.5,-20.9994882448133));
#1221=CARTESIAN_POINT('',(-0.518755366662345,54.,-15.5398826151644));
#1222=CARTESIAN_POINT('Origin',(0.0872657537245117,50.5,-12.4996953838174));
#1223=CARTESIAN_POINT('',(-3.01273424627549,50.5,-12.4996953838174));
#1224=CARTESIAN_POINT('Origin',(0.0872657537245117,50.5,-12.4996953838174));
#1225=CARTESIAN_POINT('',(-3.01273424627549,59.5,-12.4996953838174));
#1226=CARTESIAN_POINT('',(-3.01273424627549,50.5,-12.4996953838174));
#1227=CARTESIAN_POINT('Origin',(0.0872657537245117,59.5,-12.4996953838174));
#1228=CARTESIAN_POINT('Origin',(0.0872657537245117,59.5,-12.4996953838174));
#1229=CARTESIAN_POINT('Origin',(-18.2593935196096,54.,10.3727791982688));
#1230=CARTESIAN_POINT('',(-13.8181864293146,54.,7.12844882342827));
#1231=CARTESIAN_POINT('',(-13.1985554332294,54.,8.21919663346129));
#1232=CARTESIAN_POINT('Origin',(-10.8686866188152,54.,6.17427333230289));
#1233=CARTESIAN_POINT('Origin',(-18.2593935196096,54.,10.3727791982688));
#1234=CARTESIAN_POINT('Origin',(-18.2593935196096,54.,10.3727791982688));
#1235=CARTESIAN_POINT('',(-13.8181864293146,59.5,7.12844882342827));
#1236=CARTESIAN_POINT('',(-13.8181864293146,54.,7.12844882342827));
#1237=CARTESIAN_POINT('',(-13.1985554332294,59.5,8.21919663346129));
#1238=CARTESIAN_POINT('Origin',(-18.2593935196096,59.5,10.3727791982688));
#1239=CARTESIAN_POINT('',(-13.1985554332294,54.,8.21919663346129));
#1240=CARTESIAN_POINT('Origin',(-10.8686866188152,50.5,6.17427333230289));
#1241=CARTESIAN_POINT('',(-13.9686866188152,50.5,6.17427333230289));
#1242=CARTESIAN_POINT('Origin',(-10.8686866188152,50.5,6.17427333230289));
#1243=CARTESIAN_POINT('',(-13.9686866188152,59.5,6.17427333230289));
#1244=CARTESIAN_POINT('',(-13.9686866188152,50.5,6.17427333230289));
#1245=CARTESIAN_POINT('Origin',(-10.8686866188152,59.5,6.17427333230289));
#1246=CARTESIAN_POINT('Origin',(-10.8686866188152,59.5,6.17427333230289));
#1247=CARTESIAN_POINT('Origin',(18.1127870533524,50.5,10.6267090465444));
#1248=CARTESIAN_POINT('',(17.3596880790794,50.5,7.72277345239829));
#1249=CARTESIAN_POINT('',(15.2104709533661,50.5,11.3860253546533));
#1250=CARTESIAN_POINT('Origin',(0.,50.5,0.));
#1251=CARTESIAN_POINT('',(15.1127870533524,50.5,10.6267090465444));
#1252=CARTESIAN_POINT('Origin',(18.1127870533524,50.5,10.6267090465444));
#1253=CARTESIAN_POINT('Origin',(18.1127870533524,50.5,10.6267090465444));
#1254=CARTESIAN_POINT('Origin',(18.1127870533524,50.5,10.6267090465444));
#1255=CARTESIAN_POINT('',(17.3596880790794,51.5,7.72277345239829));
#1256=CARTESIAN_POINT('',(17.3596880790794,50.5,7.72277345239829));
#1257=CARTESIAN_POINT('',(15.2104709533661,51.5,11.3860253546533));
#1258=CARTESIAN_POINT('Origin',(18.1127870533524,51.5,10.6267090465444));
#1259=CARTESIAN_POINT('',(15.2104709533661,50.5,11.3860253546533));
#1260=CARTESIAN_POINT('',(15.1127870533524,59.5,10.6267090465444));
#1261=CARTESIAN_POINT('',(15.1127870533524,50.5,10.6267090465444));
#1262=CARTESIAN_POINT('Origin',(18.1127870533524,59.5,10.6267090465444));
#1263=CARTESIAN_POINT('Origin',(0.,45.5,0.));
#1264=CARTESIAN_POINT('',(-19.,51.5,2.32682891837997E-15));
#1265=CARTESIAN_POINT('Origin',(0.,51.5,0.));
#1266=CARTESIAN_POINT('',(-19.,45.5,2.32682891837997E-15));
#1267=CARTESIAN_POINT('',(-19.,45.5,2.32682891837997E-15));
#1268=CARTESIAN_POINT('Origin',(0.,45.5,0.));
#1269=CARTESIAN_POINT('Origin',(0.,51.5,0.));
#1270=CARTESIAN_POINT('Origin',(-10.8667210648531,52.5,-19.1288884491148));
#1271=CARTESIAN_POINT('',(-12.5167210648531,52.5,-19.1288884491148));
#1272=CARTESIAN_POINT('Origin',(-10.8667210648531,52.5,-19.1288884491148));
#1273=CARTESIAN_POINT('',(-12.5167210648531,59.5,-19.1288884491148));
#1274=CARTESIAN_POINT('',(-12.5167210648531,52.5,-19.1288884491148));
#1275=CARTESIAN_POINT('Origin',(-10.8667210648531,59.5,-19.1288884491148));
#1276=CARTESIAN_POINT('Origin',(-10.8667210648531,52.5,-19.1288884491148));
#1277=CARTESIAN_POINT('Origin',(21.9994638755187,52.5,0.153587726555154));
#1278=CARTESIAN_POINT('',(20.3494638755187,52.5,0.153587726555154));
#1279=CARTESIAN_POINT('Origin',(21.9994638755187,52.5,0.153587726555154));
#1280=CARTESIAN_POINT('',(20.3494638755187,59.5,0.153587726555154));
#1281=CARTESIAN_POINT('',(20.3494638755187,52.5,0.153587726555154));
#1282=CARTESIAN_POINT('Origin',(21.9994638755187,59.5,0.153587726555154));
#1283=CARTESIAN_POINT('Origin',(21.9994638755187,52.5,0.153587726555154));
#1284=CARTESIAN_POINT('Origin',(10.8667210648531,52.5,19.1288884491148));
#1285=CARTESIAN_POINT('',(9.21672106485308,52.5,19.1288884491148));
#1286=CARTESIAN_POINT('Origin',(10.8667210648531,52.5,19.1288884491148));
#1287=CARTESIAN_POINT('',(9.21672106485308,59.5,19.1288884491148));
#1288=CARTESIAN_POINT('',(9.21672106485308,52.5,19.1288884491148));
#1289=CARTESIAN_POINT('Origin',(10.8667210648531,59.5,19.1288884491148));
#1290=CARTESIAN_POINT('Origin',(10.8667210648531,52.5,19.1288884491148));
#1291=CARTESIAN_POINT('Origin',(-11.1327428106656,52.5,18.9753007225597));
#1292=CARTESIAN_POINT('',(-12.7827428106656,52.5,18.9753007225597));
#1293=CARTESIAN_POINT('Origin',(-11.1327428106656,52.5,18.9753007225597));
#1294=CARTESIAN_POINT('',(-12.7827428106656,59.5,18.9753007225597));
#1295=CARTESIAN_POINT('',(-12.7827428106656,52.5,18.9753007225597));
#1296=CARTESIAN_POINT('Origin',(-11.1327428106656,59.5,18.9753007225597));
#1297=CARTESIAN_POINT('Origin',(-11.1327428106656,52.5,18.9753007225597));
#1298=CARTESIAN_POINT('Origin',(-21.9994638755187,52.5,-0.153587726555152));
#1299=CARTESIAN_POINT('',(-23.6494638755187,52.5,-0.153587726555151));
#1300=CARTESIAN_POINT('Origin',(-21.9994638755187,52.5,-0.153587726555152));
#1301=CARTESIAN_POINT('',(-23.6494638755187,59.5,-0.153587726555151));
#1302=CARTESIAN_POINT('',(-23.6494638755187,52.5,-0.153587726555151));
#1303=CARTESIAN_POINT('Origin',(-21.9994638755187,59.5,-0.153587726555152));
#1304=CARTESIAN_POINT('Origin',(-21.9994638755187,52.5,-0.153587726555152));
#1305=CARTESIAN_POINT('Origin',(11.1327428106656,52.5,-18.9753007225597));
#1306=CARTESIAN_POINT('',(9.4827428106656,52.5,-18.9753007225597));
#1307=CARTESIAN_POINT('Origin',(11.1327428106656,52.5,-18.9753007225597));
#1308=CARTESIAN_POINT('',(9.4827428106656,59.5,-18.9753007225597));
#1309=CARTESIAN_POINT('',(9.4827428106656,52.5,-18.9753007225597));
#1310=CARTESIAN_POINT('Origin',(11.1327428106656,59.5,-18.9753007225597));
#1311=CARTESIAN_POINT('Origin',(11.1327428106656,52.5,-18.9753007225597));
#1312=CARTESIAN_POINT('Origin',(5.03820703915916,45.5,8.86884828095323));
#1313=CARTESIAN_POINT('',(2.43820703915916,45.5,8.86884828095323));
#1314=CARTESIAN_POINT('Origin',(5.03820703915916,45.5,8.86884828095323));
#1315=CARTESIAN_POINT('',(2.43820703915916,46.2,8.86884828095323));
#1316=CARTESIAN_POINT('',(2.43820703915916,45.5,8.86884828095323));
#1317=CARTESIAN_POINT('Origin',(5.03820703915916,46.2,8.86884828095323));
#1318=CARTESIAN_POINT('Origin',(5.03820703915916,46.2,8.86884828095323));
#1319=CARTESIAN_POINT('',(3.01320703915916,46.2,8.86884828095323));
#1320=CARTESIAN_POINT('Origin',(5.03820703915916,46.2,8.86884828095323));
#1321=CARTESIAN_POINT('Origin',(-10.199751433195,45.5,-0.0712088550392067));
#1322=CARTESIAN_POINT('',(-12.799751433195,45.5,-0.0712088550392064));
#1323=CARTESIAN_POINT('Origin',(-10.199751433195,45.5,-0.0712088550392067));
#1324=CARTESIAN_POINT('',(-12.799751433195,46.2,-0.0712088550392064));
#1325=CARTESIAN_POINT('',(-12.799751433195,45.5,-0.0712088550392064));
#1326=CARTESIAN_POINT('Origin',(-10.199751433195,46.2,-0.0712088550392067));
#1327=CARTESIAN_POINT('Origin',(-10.199751433195,46.2,-0.0712088550392065));
#1328=CARTESIAN_POINT('',(-12.224751433195,46.2,-0.0712088550392069));
#1329=CARTESIAN_POINT('Origin',(-10.199751433195,46.2,-0.0712088550392067));
#1330=CARTESIAN_POINT('Origin',(5.16154439403587,45.5,-8.79763942591403));
#1331=CARTESIAN_POINT('',(2.56154439403587,45.5,-8.79763942591403));
#1332=CARTESIAN_POINT('Origin',(5.16154439403587,45.5,-8.79763942591403));
#1333=CARTESIAN_POINT('',(2.56154439403587,46.2,-8.79763942591403));
#1334=CARTESIAN_POINT('',(2.56154439403587,45.5,-8.79763942591403));
#1335=CARTESIAN_POINT('Origin',(5.16154439403587,46.2,-8.79763942591403));
#1336=CARTESIAN_POINT('Origin',(5.16154439403587,46.2,-8.79763942591403));
#1337=CARTESIAN_POINT('',(3.13654439403587,46.2,-8.79763942591403));
#1338=CARTESIAN_POINT('Origin',(5.16154439403587,46.2,-8.79763942591403));
#1339=CARTESIAN_POINT('Origin',(5.03820703915916,44.5,8.86884828095323));
#1340=CARTESIAN_POINT('',(3.01320703915916,59.5,8.86884828095323));
#1341=CARTESIAN_POINT('',(3.01320703915916,44.5,8.86884828095323));
#1342=CARTESIAN_POINT('Origin',(5.03820703915916,59.5,8.86884828095323));
#1343=CARTESIAN_POINT('Origin',(-10.199751433195,44.5,-0.0712088550392067));
#1344=CARTESIAN_POINT('',(-12.224751433195,59.5,-0.0712088550392069));
#1345=CARTESIAN_POINT('',(-12.224751433195,44.5,-0.0712088550392064));
#1346=CARTESIAN_POINT('Origin',(-10.199751433195,59.5,-0.0712088550392067));
#1347=CARTESIAN_POINT('Origin',(5.16154439403587,44.5,-8.79763942591403));
#1348=CARTESIAN_POINT('',(3.13654439403587,59.5,-8.79763942591403));
#1349=CARTESIAN_POINT('',(3.13654439403587,44.5,-8.79763942591403));
#1350=CARTESIAN_POINT('Origin',(5.16154439403587,59.5,-8.79763942591403));
#1351=CARTESIAN_POINT('Origin',(0.0872657537245114,50.5,-12.4996953838174));
#1352=CARTESIAN_POINT('',(-1.61273424627549,50.5,-12.4996953838174));
#1353=CARTESIAN_POINT('Origin',(0.0872657537245117,50.5,-12.4996953838174));
#1354=CARTESIAN_POINT('Origin',(10.7814208650907,50.5,6.32542205151455));
#1355=CARTESIAN_POINT('',(7.68142086509072,50.5,6.32542205151455));
#1356=CARTESIAN_POINT('Origin',(10.7814208650907,50.5,6.32542205151455));
#1357=CARTESIAN_POINT('',(7.68142086509072,59.5,6.32542205151455));
#1358=CARTESIAN_POINT('',(7.68142086509072,50.5,6.32542205151455));
#1359=CARTESIAN_POINT('Origin',(10.7814208650907,59.5,6.32542205151455));
#1360=CARTESIAN_POINT('Origin',(10.7814208650907,50.5,6.32542205151455));
#1361=CARTESIAN_POINT('',(9.08142086509072,50.5,6.32542205151455));
#1362=CARTESIAN_POINT('Origin',(10.7814208650907,50.5,6.32542205151455));
#1363=CARTESIAN_POINT('Origin',(-0.0872657537245215,50.5,12.4996953838174));
#1364=CARTESIAN_POINT('',(-3.18726575372452,50.5,12.4996953838174));
#1365=CARTESIAN_POINT('Origin',(-0.0872657537245215,50.5,12.4996953838174));
#1366=CARTESIAN_POINT('',(-3.18726575372452,59.5,12.4996953838174));
#1367=CARTESIAN_POINT('',(-3.18726575372452,50.5,12.4996953838174));
#1368=CARTESIAN_POINT('Origin',(-0.0872657537245215,59.5,12.4996953838174));
#1369=CARTESIAN_POINT('Origin',(-0.0872657537245214,50.5,12.4996953838174));
#1370=CARTESIAN_POINT('',(-1.78726575372452,50.5,12.4996953838174));
#1371=CARTESIAN_POINT('Origin',(-0.0872657537245215,50.5,12.4996953838174));
#1372=CARTESIAN_POINT('Origin',(-10.8686866188152,50.5,6.17427333230289));
#1373=CARTESIAN_POINT('',(-12.5686866188152,50.5,6.17427333230289));
#1374=CARTESIAN_POINT('Origin',(-10.8686866188152,50.5,6.17427333230289));
#1375=CARTESIAN_POINT('Origin',(-10.7814208650907,50.5,-6.32542205151455));
#1376=CARTESIAN_POINT('',(-13.8814208650907,50.5,-6.32542205151455));
#1377=CARTESIAN_POINT('Origin',(-10.7814208650907,50.5,-6.32542205151455));
#1378=CARTESIAN_POINT('',(-13.8814208650907,59.5,-6.32542205151455));
#1379=CARTESIAN_POINT('',(-13.8814208650907,50.5,-6.32542205151455));
#1380=CARTESIAN_POINT('Origin',(-10.7814208650907,59.5,-6.32542205151455));
#1381=CARTESIAN_POINT('Origin',(-10.7814208650907,50.5,-6.32542205151455));
#1382=CARTESIAN_POINT('',(-12.4814208650907,50.5,-6.32542205151455));
#1383=CARTESIAN_POINT('Origin',(-10.7814208650907,50.5,-6.32542205151455));
#1384=CARTESIAN_POINT('Origin',(10.8686866188152,50.5,-6.17427333230289));
#1385=CARTESIAN_POINT('',(7.76868661881524,50.5,-6.17427333230289));
#1386=CARTESIAN_POINT('Origin',(10.8686866188152,50.5,-6.17427333230289));
#1387=CARTESIAN_POINT('',(7.76868661881524,59.5,-6.17427333230289));
#1388=CARTESIAN_POINT('',(7.76868661881524,50.5,-6.17427333230289));
#1389=CARTESIAN_POINT('Origin',(10.8686866188152,59.5,-6.17427333230289));
#1390=CARTESIAN_POINT('Origin',(10.8686866188152,50.5,-6.17427333230289));
#1391=CARTESIAN_POINT('',(9.16868661881524,50.5,-6.17427333230289));
#1392=CARTESIAN_POINT('Origin',(10.8686866188152,50.5,-6.17427333230289));
#1393=CARTESIAN_POINT('Origin',(0.0872657537245117,44.5,-12.4996953838174));
#1394=CARTESIAN_POINT('',(-1.61273424627549,45.5,-12.4996953838174));
#1395=CARTESIAN_POINT('Origin',(0.0872657537245117,45.5,-12.4996953838174));
#1396=CARTESIAN_POINT('',(-1.61273424627549,44.5,-12.4996953838174));
#1397=CARTESIAN_POINT('Origin',(10.7814208650907,44.5,6.32542205151455));
#1398=CARTESIAN_POINT('',(9.08142086509072,45.5,6.32542205151455));
#1399=CARTESIAN_POINT('Origin',(10.7814208650907,45.5,6.32542205151455));
#1400=CARTESIAN_POINT('',(9.08142086509072,44.5,6.32542205151455));
#1401=CARTESIAN_POINT('Origin',(-0.0872657537245215,44.5,12.4996953838174));
#1402=CARTESIAN_POINT('',(-1.78726575372452,45.5,12.4996953838174));
#1403=CARTESIAN_POINT('Origin',(-0.0872657537245215,45.5,12.4996953838174));
#1404=CARTESIAN_POINT('',(-1.78726575372452,44.5,12.4996953838174));
#1405=CARTESIAN_POINT('Origin',(-10.8686866188152,44.5,6.17427333230289));
#1406=CARTESIAN_POINT('',(-12.5686866188152,45.5,6.17427333230289));
#1407=CARTESIAN_POINT('Origin',(-10.8686866188152,45.5,6.17427333230289));
#1408=CARTESIAN_POINT('',(-12.5686866188152,44.5,6.17427333230289));
#1409=CARTESIAN_POINT('Origin',(-10.7814208650907,44.5,-6.32542205151455));
#1410=CARTESIAN_POINT('',(-12.4814208650907,45.5,-6.32542205151455));
#1411=CARTESIAN_POINT('Origin',(-10.7814208650907,45.5,-6.32542205151455));
#1412=CARTESIAN_POINT('',(-12.4814208650907,44.5,-6.32542205151455));
#1413=CARTESIAN_POINT('Origin',(10.8686866188152,44.5,-6.17427333230289));
#1414=CARTESIAN_POINT('',(9.16868661881524,45.5,-6.17427333230289));
#1415=CARTESIAN_POINT('Origin',(10.8686866188152,45.5,-6.17427333230289));
#1416=CARTESIAN_POINT('',(9.16868661881524,44.5,-6.17427333230289));
#1417=CARTESIAN_POINT('Origin',(0.,44.5,0.));
#1418=CARTESIAN_POINT('',(-6.,45.5,7.34788079488412E-16));
#1419=CARTESIAN_POINT('Origin',(0.,45.5,0.));
#1420=CARTESIAN_POINT('',(-6.,59.5,-7.34788079488412E-16));
#1421=CARTESIAN_POINT('',(-6.,44.5,7.34788079488412E-16));
#1422=CARTESIAN_POINT('Origin',(0.,59.5,0.));
#1423=CARTESIAN_POINT('Origin',(0.,51.5,0.));
#1424=CARTESIAN_POINT('',(-28.,51.5,3.42901103761259E-15));
#1425=CARTESIAN_POINT('Origin',(0.,51.5,0.));
#1426=CARTESIAN_POINT('Origin',(0.,51.5,0.));
#1427=CARTESIAN_POINT('',(-28.,59.5,3.42901103761259E-15));
#1428=CARTESIAN_POINT('Origin',(0.,59.5,0.));
#1429=CARTESIAN_POINT('',(-28.,51.5,3.42901103761259E-15));
#1430=CARTESIAN_POINT('Origin',(0.,59.5,0.));
#1431=CARTESIAN_POINT('Origin',(0.,45.5,0.));
#1432=UNCERTAINTY_MEASURE_WITH_UNIT(LENGTH_MEASURE(0.01),#1436,
'DISTANCE_ACCURACY_VALUE',
'Maximum model space distance between geometric entities at asserted c
onnectivities');
#1433=UNCERTAINTY_MEASURE_WITH_UNIT(LENGTH_MEASURE(0.01),#1436,
'DISTANCE_ACCURACY_VALUE',
'Maximum model space distance between geometric entities at asserted c
onnectivities');
#1434=(
GEOMETRIC_REPRESENTATION_CONTEXT(3)
GLOBAL_UNCERTAINTY_ASSIGNED_CONTEXT((#1432))
GLOBAL_UNIT_ASSIGNED_CONTEXT((#1436,#1438,#1439))
REPRESENTATION_CONTEXT('','3D')
);
#1435=(
GEOMETRIC_REPRESENTATION_CONTEXT(3)
GLOBAL_UNCERTAINTY_ASSIGNED_CONTEXT((#1433))
GLOBAL_UNIT_ASSIGNED_CONTEXT((#1436,#1438,#1439))
REPRESENTATION_CONTEXT('','3D')
);
#1436=(
LENGTH_UNIT()
NAMED_UNIT(*)
SI_UNIT(.MILLI.,.METRE.)
);
#1437=(
LENGTH_UNIT()
NAMED_UNIT(*)
SI_UNIT($,.METRE.)
);
#1438=(
NAMED_UNIT(*)
PLANE_ANGLE_UNIT()
SI_UNIT($,.RADIAN.)
);
#1439=(
NAMED_UNIT(*)
SI_UNIT($,.STERADIAN.)
SOLID_ANGLE_UNIT()
);
#1440=SHAPE_DEFINITION_REPRESENTATION(#1441,#1442);
#1441=PRODUCT_DEFINITION_SHAPE('',$,#1444);
#1442=SHAPE_REPRESENTATION('',(#816),#1434);
#1443=PRODUCT_DEFINITION_CONTEXT('part definition',#1448,'design');
#1444=PRODUCT_DEFINITION('2026-08-08-19-52-18-858',
'Shoulder_Output_Hub_L',#1445,#1443);
#1445=PRODUCT_DEFINITION_FORMATION('',$,#1450);
#1446=PRODUCT_RELATED_PRODUCT_CATEGORY('Shoulder_Output_Hub_L',
'Shoulder_Output_Hub_L',(#1450));
#1447=APPLICATION_PROTOCOL_DEFINITION('international standard',
'automotive_design',2009,#1448);
#1448=APPLICATION_CONTEXT(
'Core Data for Automotive Mechanical Design Process');
#1449=PRODUCT_CONTEXT('part definition',#1448,'mechanical');
#1450=PRODUCT('2026-08-08-19-52-18-858','Shoulder_Output_Hub_L',$,(#1449));
#1451=PRESENTATION_STYLE_ASSIGNMENT((#1453));
#1452=PRESENTATION_STYLE_ASSIGNMENT((#1454));
#1453=SURFACE_STYLE_USAGE(.BOTH.,#1455);
#1454=SURFACE_STYLE_USAGE(.BOTH.,#1456);
#1455=SURFACE_SIDE_STYLE('',(#1457));
#1456=SURFACE_SIDE_STYLE('',(#1458));
#1457=SURFACE_STYLE_FILL_AREA(#1459);
#1458=SURFACE_STYLE_FILL_AREA(#1460);
#1459=FILL_AREA_STYLE('Steel - Satin',(#1461));
#1460=FILL_AREA_STYLE('Aluminum - Satin',(#1462));
#1461=FILL_AREA_STYLE_COLOUR('Steel - Satin',#1463);
#1462=FILL_AREA_STYLE_COLOUR('Aluminum - Satin',#1464);
#1463=COLOUR_RGB('Steel - Satin',0.627450980392157,0.627450980392157,0.627450980392157);
#1464=COLOUR_RGB('Aluminum - Satin',0.96078431372549,0.96078431372549,0.964705882352941);
ENDSEC;
END-ISO-10303-21;
