ISO-10303-21;
HEADER;
/* Generated by software containing ST-Developer
 * from STEP Tools, Inc. (www.steptools.com) 
 */

FILE_DESCRIPTION(
/* description */ (''),
/* implementation_level */ '2;1');

FILE_NAME(
/* name */ 'Knee_Stop_Arc_L.step',
/* time_stamp */ '2026-08-08T19:52:18-07:00',
/* author */ (''),
/* organization */ (''),
/* preprocessor_version */ 'ST-DEVELOPER v20.1',
/* originating_system */ 'Autodesk Translation Framework v15.8.0.0',
/* authorisation */ '');

FILE_SCHEMA (('AUTOMOTIVE_DESIGN { 1 0 10303 214 3 1 1 }'));
ENDSEC;

DATA;
#10=MECHANICAL_DESIGN_GEOMETRIC_PRESENTATION_REPRESENTATION('',(#13),#832);
#11=SHAPE_REPRESENTATION_RELATIONSHIP('SRR','None',#839,#12);
#12=ADVANCED_BREP_SHAPE_REPRESENTATION('',(#14),#831);
#13=STYLED_ITEM('',(#848),#14);
#14=MANIFOLD_SOLID_BREP('Knee_Stop_Arc_L',#480);
#15=FACE_BOUND('',#70,.T.);
#16=FACE_BOUND('',#71,.T.);
#17=FACE_BOUND('',#72,.T.);
#18=FACE_BOUND('',#73,.T.);
#19=FACE_BOUND('',#89,.T.);
#20=FACE_BOUND('',#90,.T.);
#21=FACE_BOUND('',#91,.T.);
#22=FACE_BOUND('',#92,.T.);
#23=PLANE('',#503);
#24=PLANE('',#507);
#25=PLANE('',#511);
#26=PLANE('',#512);
#27=PLANE('',#513);
#28=PLANE('',#524);
#29=PLANE('',#527);
#30=PLANE('',#528);
#31=PLANE('',#531);
#32=PLANE('',#540);
#33=PLANE('',#543);
#34=PLANE('',#546);
#35=FACE_OUTER_BOUND('',#60,.T.);
#36=FACE_OUTER_BOUND('',#61,.T.);
#37=FACE_OUTER_BOUND('',#62,.T.);
#38=FACE_OUTER_BOUND('',#63,.T.);
#39=FACE_OUTER_BOUND('',#64,.T.);
#40=FACE_OUTER_BOUND('',#65,.T.);
#41=FACE_OUTER_BOUND('',#66,.T.);
#42=FACE_OUTER_BOUND('',#67,.T.);
#43=FACE_OUTER_BOUND('',#68,.T.);
#44=FACE_OUTER_BOUND('',#69,.T.);
#45=FACE_OUTER_BOUND('',#74,.T.);
#46=FACE_OUTER_BOUND('',#75,.T.);
#47=FACE_OUTER_BOUND('',#76,.T.);
#48=FACE_OUTER_BOUND('',#77,.T.);
#49=FACE_OUTER_BOUND('',#78,.T.);
#50=FACE_OUTER_BOUND('',#79,.T.);
#51=FACE_OUTER_BOUND('',#80,.T.);
#52=FACE_OUTER_BOUND('',#81,.T.);
#53=FACE_OUTER_BOUND('',#82,.T.);
#54=FACE_OUTER_BOUND('',#83,.T.);
#55=FACE_OUTER_BOUND('',#84,.T.);
#56=FACE_OUTER_BOUND('',#85,.T.);
#57=FACE_OUTER_BOUND('',#86,.T.);
#58=FACE_OUTER_BOUND('',#87,.T.);
#59=FACE_OUTER_BOUND('',#88,.T.);
#60=EDGE_LOOP('',(#308,#309,#310,#311));
#61=EDGE_LOOP('',(#312,#313,#314,#315));
#62=EDGE_LOOP('',(#316,#317,#318,#319));
#63=EDGE_LOOP('',(#320,#321,#322,#323));
#64=EDGE_LOOP('',(#324,#325,#326,#327));
#65=EDGE_LOOP('',(#328,#329,#330,#331));
#66=EDGE_LOOP('',(#332,#333,#334,#335));
#67=EDGE_LOOP('',(#336,#337,#338,#339));
#68=EDGE_LOOP('',(#340,#341,#342,#343,#344));
#69=EDGE_LOOP('',(#345,#346,#347,#348));
#70=EDGE_LOOP('',(#349));
#71=EDGE_LOOP('',(#350));
#72=EDGE_LOOP('',(#351));
#73=EDGE_LOOP('',(#352,#353,#354,#355,#356,#357,#358,#359,#360,#361,#362,
#363,#364,#365,#366,#367));
#74=EDGE_LOOP('',(#368,#369,#370,#371));
#75=EDGE_LOOP('',(#372,#373,#374,#375));
#76=EDGE_LOOP('',(#376,#377,#378,#379));
#77=EDGE_LOOP('',(#380,#381,#382,#383));
#78=EDGE_LOOP('',(#384,#385,#386,#387));
#79=EDGE_LOOP('',(#388,#389,#390,#391,#392));
#80=EDGE_LOOP('',(#393,#394,#395,#396));
#81=EDGE_LOOP('',(#397,#398,#399,#400,#401,#402,#403));
#82=EDGE_LOOP('',(#404,#405,#406,#407));
#83=EDGE_LOOP('',(#408,#409,#410,#411,#412,#413,#414));
#84=EDGE_LOOP('',(#415,#416,#417,#418));
#85=EDGE_LOOP('',(#419,#420,#421,#422));
#86=EDGE_LOOP('',(#423,#424,#425,#426));
#87=EDGE_LOOP('',(#427,#428,#429,#430));
#88=EDGE_LOOP('',(#431,#432,#433,#434));
#89=EDGE_LOOP('',(#435));
#90=EDGE_LOOP('',(#436));
#91=EDGE_LOOP('',(#437));
#92=EDGE_LOOP('',(#438,#439,#440,#441));
#93=LINE('',#699,#132);
#94=LINE('',#705,#133);
#95=LINE('',#711,#134);
#96=LINE('',#716,#135);
#97=LINE('',#718,#136);
#98=LINE('',#720,#137);
#99=LINE('',#721,#138);
#100=LINE('',#727,#139);
#101=LINE('',#730,#140);
#102=LINE('',#732,#141);
#103=LINE('',#733,#142);
#104=LINE('',#739,#143);
#105=LINE('',#741,#144);
#106=LINE('',#742,#145);
#107=LINE('',#743,#146);
#108=LINE('',#750,#147);
#109=LINE('',#753,#148);
#110=LINE('',#760,#149);
#111=LINE('',#764,#150);
#112=LINE('',#767,#151);
#113=LINE('',#776,#152);
#114=LINE('',#778,#153);
#115=LINE('',#779,#154);
#116=LINE('',#783,#155);
#117=LINE('',#786,#156);
#118=LINE('',#787,#157);
#119=LINE('',#789,#158);
#120=LINE('',#791,#159);
#121=LINE('',#792,#160);
#122=LINE('',#798,#161);
#123=LINE('',#801,#162);
#124=LINE('',#805,#163);
#125=LINE('',#809,#164);
#126=LINE('',#815,#165);
#127=LINE('',#816,#166);
#128=LINE('',#817,#167);
#129=LINE('',#821,#168);
#130=LINE('',#824,#169);
#131=LINE('',#825,#170);
#132=VECTOR('',#553,1.7);
#133=VECTOR('',#560,1.7);
#134=VECTOR('',#567,1.7);
#135=VECTOR('',#572,10.);
#136=VECTOR('',#573,10.);
#137=VECTOR('',#574,10.);
#138=VECTOR('',#575,10.);
#139=VECTOR('',#582,10.);
#140=VECTOR('',#585,10.);
#141=VECTOR('',#586,10.);
#142=VECTOR('',#587,10.);
#143=VECTOR('',#594,10.);
#144=VECTOR('',#597,10.);
#145=VECTOR('',#598,10.);
#146=VECTOR('',#599,10.);
#147=VECTOR('',#606,10.);
#148=VECTOR('',#609,10.);
#149=VECTOR('',#614,10.);
#150=VECTOR('',#617,10.);
#151=VECTOR('',#620,10.);
#152=VECTOR('',#631,10.);
#153=VECTOR('',#632,10.);
#154=VECTOR('',#633,10.);
#155=VECTOR('',#638,10.);
#156=VECTOR('',#641,10.);
#157=VECTOR('',#642,10.);
#158=VECTOR('',#645,10.);
#159=VECTOR('',#646,10.);
#160=VECTOR('',#647,10.);
#161=VECTOR('',#656,10.);
#162=VECTOR('',#659,10.);
#163=VECTOR('',#664,10.);
#164=VECTOR('',#669,10.);
#165=VECTOR('',#676,10.);
#166=VECTOR('',#677,10.);
#167=VECTOR('',#678,10.);
#168=VECTOR('',#683,10.);
#169=VECTOR('',#686,10.);
#170=VECTOR('',#687,10.);
#171=CIRCLE('',#495,1.7);
#172=CIRCLE('',#496,1.7);
#173=CIRCLE('',#498,1.7);
#174=CIRCLE('',#499,1.7);
#175=CIRCLE('',#501,1.7);
#176=CIRCLE('',#502,1.7);
#177=CIRCLE('',#505,33.099999999999);
#178=CIRCLE('',#506,33.099999999999);
#179=CIRCLE('',#509,26.900000000018);
#180=CIRCLE('',#510,26.900000000018);
#181=CIRCLE('',#514,35.5);
#182=CIRCLE('',#515,11.);
#183=CIRCLE('',#516,26.8999999999997);
#184=CIRCLE('',#517,3.1);
#185=CIRCLE('',#518,26.900000000002);
#186=CIRCLE('',#519,33.0999999999999);
#187=CIRCLE('',#520,3.1);
#188=CIRCLE('',#521,33.0999999999998);
#189=CIRCLE('',#522,3.1);
#190=CIRCLE('',#523,3.1);
#191=CIRCLE('',#526,33.0999999999999);
#192=CIRCLE('',#530,26.900000000002);
#193=CIRCLE('',#533,33.0999999999998);
#194=CIRCLE('',#535,3.1);
#195=CIRCLE('',#537,26.8999999999997);
#196=CIRCLE('',#539,3.1);
#197=CIRCLE('',#542,11.);
#198=CIRCLE('',#545,35.5);
#199=VERTEX_POINT('',#696);
#200=VERTEX_POINT('',#698);
#201=VERTEX_POINT('',#702);
#202=VERTEX_POINT('',#704);
#203=VERTEX_POINT('',#708);
#204=VERTEX_POINT('',#710);
#205=VERTEX_POINT('',#714);
#206=VERTEX_POINT('',#715);
#207=VERTEX_POINT('',#717);
#208=VERTEX_POINT('',#719);
#209=VERTEX_POINT('',#723);
#210=VERTEX_POINT('',#725);
#211=VERTEX_POINT('',#729);
#212=VERTEX_POINT('',#731);
#213=VERTEX_POINT('',#735);
#214=VERTEX_POINT('',#737);
#215=VERTEX_POINT('',#746);
#216=VERTEX_POINT('',#747);
#217=VERTEX_POINT('',#749);
#218=VERTEX_POINT('',#751);
#219=VERTEX_POINT('',#754);
#220=VERTEX_POINT('',#755);
#221=VERTEX_POINT('',#757);
#222=VERTEX_POINT('',#759);
#223=VERTEX_POINT('',#761);
#224=VERTEX_POINT('',#763);
#225=VERTEX_POINT('',#765);
#226=VERTEX_POINT('',#768);
#227=VERTEX_POINT('',#770);
#228=VERTEX_POINT('',#775);
#229=VERTEX_POINT('',#777);
#230=VERTEX_POINT('',#781);
#231=VERTEX_POINT('',#785);
#232=VERTEX_POINT('',#790);
#233=VERTEX_POINT('',#797);
#234=VERTEX_POINT('',#799);
#235=VERTEX_POINT('',#803);
#236=VERTEX_POINT('',#807);
#237=VERTEX_POINT('',#813);
#238=VERTEX_POINT('',#814);
#239=VERTEX_POINT('',#819);
#240=VERTEX_POINT('',#823);
#241=EDGE_CURVE('',#199,#199,#171,.T.);
#242=EDGE_CURVE('',#199,#200,#93,.T.);
#243=EDGE_CURVE('',#200,#200,#172,.T.);
#244=EDGE_CURVE('',#201,#201,#173,.T.);
#245=EDGE_CURVE('',#201,#202,#94,.T.);
#246=EDGE_CURVE('',#202,#202,#174,.T.);
#247=EDGE_CURVE('',#203,#203,#175,.T.);
#248=EDGE_CURVE('',#203,#204,#95,.T.);
#249=EDGE_CURVE('',#204,#204,#176,.T.);
#250=EDGE_CURVE('',#205,#206,#96,.T.);
#251=EDGE_CURVE('',#206,#207,#97,.T.);
#252=EDGE_CURVE('',#207,#208,#98,.T.);
#253=EDGE_CURVE('',#205,#208,#99,.T.);
#254=EDGE_CURVE('',#208,#209,#177,.T.);
#255=EDGE_CURVE('',#210,#207,#178,.T.);
#256=EDGE_CURVE('',#210,#209,#100,.T.);
#257=EDGE_CURVE('',#209,#211,#101,.T.);
#258=EDGE_CURVE('',#210,#212,#102,.T.);
#259=EDGE_CURVE('',#212,#211,#103,.T.);
#260=EDGE_CURVE('',#211,#213,#179,.T.);
#261=EDGE_CURVE('',#212,#214,#180,.T.);
#262=EDGE_CURVE('',#214,#213,#104,.T.);
#263=EDGE_CURVE('',#205,#206,#105,.T.);
#264=EDGE_CURVE('',#213,#205,#106,.T.);
#265=EDGE_CURVE('',#214,#206,#107,.T.);
#266=EDGE_CURVE('',#215,#216,#181,.T.);
#267=EDGE_CURVE('',#216,#217,#108,.T.);
#268=EDGE_CURVE('',#217,#218,#182,.T.);
#269=EDGE_CURVE('',#218,#215,#109,.T.);
#270=EDGE_CURVE('',#219,#220,#183,.T.);
#271=EDGE_CURVE('',#220,#221,#184,.T.);
#272=EDGE_CURVE('',#221,#222,#110,.T.);
#273=EDGE_CURVE('',#222,#223,#185,.T.);
#274=EDGE_CURVE('',#223,#224,#111,.T.);
#275=EDGE_CURVE('',#224,#225,#186,.T.);
#276=EDGE_CURVE('',#225,#221,#112,.T.);
#277=EDGE_CURVE('',#221,#226,#187,.T.);
#278=EDGE_CURVE('',#226,#227,#188,.T.);
#279=EDGE_CURVE('',#227,#205,#189,.T.);
#280=EDGE_CURVE('',#205,#219,#190,.T.);
#281=EDGE_CURVE('',#228,#223,#113,.T.);
#282=EDGE_CURVE('',#228,#229,#114,.T.);
#283=EDGE_CURVE('',#229,#224,#115,.T.);
#284=EDGE_CURVE('',#230,#229,#191,.T.);
#285=EDGE_CURVE('',#230,#225,#116,.T.);
#286=EDGE_CURVE('',#230,#231,#117,.T.);
#287=EDGE_CURVE('',#221,#231,#118,.T.);
#288=EDGE_CURVE('',#221,#231,#119,.T.);
#289=EDGE_CURVE('',#231,#232,#120,.T.);
#290=EDGE_CURVE('',#232,#222,#121,.T.);
#291=EDGE_CURVE('',#232,#228,#192,.T.);
#292=EDGE_CURVE('',#233,#226,#122,.T.);
#293=EDGE_CURVE('',#234,#233,#193,.T.);
#294=EDGE_CURVE('',#234,#227,#123,.T.);
#295=EDGE_CURVE('',#235,#234,#194,.T.);
#296=EDGE_CURVE('',#235,#219,#124,.T.);
#297=EDGE_CURVE('',#236,#235,#195,.T.);
#298=EDGE_CURVE('',#236,#220,#125,.T.);
#299=EDGE_CURVE('',#233,#236,#196,.T.);
#300=EDGE_CURVE('',#237,#238,#126,.T.);
#301=EDGE_CURVE('',#237,#215,#127,.T.);
#302=EDGE_CURVE('',#238,#218,#128,.T.);
#303=EDGE_CURVE('',#238,#239,#197,.T.);
#304=EDGE_CURVE('',#239,#217,#129,.T.);
#305=EDGE_CURVE('',#239,#240,#130,.T.);
#306=EDGE_CURVE('',#240,#216,#131,.T.);
#307=EDGE_CURVE('',#237,#240,#198,.T.);
#308=ORIENTED_EDGE('',*,*,#241,.F.);
#309=ORIENTED_EDGE('',*,*,#242,.T.);
#310=ORIENTED_EDGE('',*,*,#243,.F.);
#311=ORIENTED_EDGE('',*,*,#242,.F.);
#312=ORIENTED_EDGE('',*,*,#244,.F.);
#313=ORIENTED_EDGE('',*,*,#245,.T.);
#314=ORIENTED_EDGE('',*,*,#246,.F.);
#315=ORIENTED_EDGE('',*,*,#245,.F.);
#316=ORIENTED_EDGE('',*,*,#247,.F.);
#317=ORIENTED_EDGE('',*,*,#248,.T.);
#318=ORIENTED_EDGE('',*,*,#249,.F.);
#319=ORIENTED_EDGE('',*,*,#248,.F.);
#320=ORIENTED_EDGE('',*,*,#250,.T.);
#321=ORIENTED_EDGE('',*,*,#251,.T.);
#322=ORIENTED_EDGE('',*,*,#252,.T.);
#323=ORIENTED_EDGE('',*,*,#253,.F.);
#324=ORIENTED_EDGE('',*,*,#254,.F.);
#325=ORIENTED_EDGE('',*,*,#252,.F.);
#326=ORIENTED_EDGE('',*,*,#255,.F.);
#327=ORIENTED_EDGE('',*,*,#256,.T.);
#328=ORIENTED_EDGE('',*,*,#257,.F.);
#329=ORIENTED_EDGE('',*,*,#256,.F.);
#330=ORIENTED_EDGE('',*,*,#258,.T.);
#331=ORIENTED_EDGE('',*,*,#259,.T.);
#332=ORIENTED_EDGE('',*,*,#260,.F.);
#333=ORIENTED_EDGE('',*,*,#259,.F.);
#334=ORIENTED_EDGE('',*,*,#261,.T.);
#335=ORIENTED_EDGE('',*,*,#262,.T.);
#336=ORIENTED_EDGE('',*,*,#263,.F.);
#337=ORIENTED_EDGE('',*,*,#264,.F.);
#338=ORIENTED_EDGE('',*,*,#262,.F.);
#339=ORIENTED_EDGE('',*,*,#265,.T.);
#340=ORIENTED_EDGE('',*,*,#255,.T.);
#341=ORIENTED_EDGE('',*,*,#251,.F.);
#342=ORIENTED_EDGE('',*,*,#265,.F.);
#343=ORIENTED_EDGE('',*,*,#261,.F.);
#344=ORIENTED_EDGE('',*,*,#258,.F.);
#345=ORIENTED_EDGE('',*,*,#266,.T.);
#346=ORIENTED_EDGE('',*,*,#267,.T.);
#347=ORIENTED_EDGE('',*,*,#268,.T.);
#348=ORIENTED_EDGE('',*,*,#269,.T.);
#349=ORIENTED_EDGE('',*,*,#243,.T.);
#350=ORIENTED_EDGE('',*,*,#246,.T.);
#351=ORIENTED_EDGE('',*,*,#249,.T.);
#352=ORIENTED_EDGE('',*,*,#270,.T.);
#353=ORIENTED_EDGE('',*,*,#271,.T.);
#354=ORIENTED_EDGE('',*,*,#272,.T.);
#355=ORIENTED_EDGE('',*,*,#273,.T.);
#356=ORIENTED_EDGE('',*,*,#274,.T.);
#357=ORIENTED_EDGE('',*,*,#275,.T.);
#358=ORIENTED_EDGE('',*,*,#276,.T.);
#359=ORIENTED_EDGE('',*,*,#277,.T.);
#360=ORIENTED_EDGE('',*,*,#278,.T.);
#361=ORIENTED_EDGE('',*,*,#279,.T.);
#362=ORIENTED_EDGE('',*,*,#253,.T.);
#363=ORIENTED_EDGE('',*,*,#254,.T.);
#364=ORIENTED_EDGE('',*,*,#257,.T.);
#365=ORIENTED_EDGE('',*,*,#260,.T.);
#366=ORIENTED_EDGE('',*,*,#264,.T.);
#367=ORIENTED_EDGE('',*,*,#280,.T.);
#368=ORIENTED_EDGE('',*,*,#274,.F.);
#369=ORIENTED_EDGE('',*,*,#281,.F.);
#370=ORIENTED_EDGE('',*,*,#282,.T.);
#371=ORIENTED_EDGE('',*,*,#283,.T.);
#372=ORIENTED_EDGE('',*,*,#275,.F.);
#373=ORIENTED_EDGE('',*,*,#283,.F.);
#374=ORIENTED_EDGE('',*,*,#284,.F.);
#375=ORIENTED_EDGE('',*,*,#285,.T.);
#376=ORIENTED_EDGE('',*,*,#276,.F.);
#377=ORIENTED_EDGE('',*,*,#285,.F.);
#378=ORIENTED_EDGE('',*,*,#286,.T.);
#379=ORIENTED_EDGE('',*,*,#287,.F.);
#380=ORIENTED_EDGE('',*,*,#272,.F.);
#381=ORIENTED_EDGE('',*,*,#288,.T.);
#382=ORIENTED_EDGE('',*,*,#289,.T.);
#383=ORIENTED_EDGE('',*,*,#290,.T.);
#384=ORIENTED_EDGE('',*,*,#273,.F.);
#385=ORIENTED_EDGE('',*,*,#290,.F.);
#386=ORIENTED_EDGE('',*,*,#291,.T.);
#387=ORIENTED_EDGE('',*,*,#281,.T.);
#388=ORIENTED_EDGE('',*,*,#284,.T.);
#389=ORIENTED_EDGE('',*,*,#282,.F.);
#390=ORIENTED_EDGE('',*,*,#291,.F.);
#391=ORIENTED_EDGE('',*,*,#289,.F.);
#392=ORIENTED_EDGE('',*,*,#286,.F.);
#393=ORIENTED_EDGE('',*,*,#278,.F.);
#394=ORIENTED_EDGE('',*,*,#292,.F.);
#395=ORIENTED_EDGE('',*,*,#293,.F.);
#396=ORIENTED_EDGE('',*,*,#294,.T.);
#397=ORIENTED_EDGE('',*,*,#279,.F.);
#398=ORIENTED_EDGE('',*,*,#294,.F.);
#399=ORIENTED_EDGE('',*,*,#295,.F.);
#400=ORIENTED_EDGE('',*,*,#296,.T.);
#401=ORIENTED_EDGE('',*,*,#280,.F.);
#402=ORIENTED_EDGE('',*,*,#263,.T.);
#403=ORIENTED_EDGE('',*,*,#250,.F.);
#404=ORIENTED_EDGE('',*,*,#270,.F.);
#405=ORIENTED_EDGE('',*,*,#296,.F.);
#406=ORIENTED_EDGE('',*,*,#297,.F.);
#407=ORIENTED_EDGE('',*,*,#298,.T.);
#408=ORIENTED_EDGE('',*,*,#271,.F.);
#409=ORIENTED_EDGE('',*,*,#298,.F.);
#410=ORIENTED_EDGE('',*,*,#299,.F.);
#411=ORIENTED_EDGE('',*,*,#292,.T.);
#412=ORIENTED_EDGE('',*,*,#277,.F.);
#413=ORIENTED_EDGE('',*,*,#287,.T.);
#414=ORIENTED_EDGE('',*,*,#288,.F.);
#415=ORIENTED_EDGE('',*,*,#300,.F.);
#416=ORIENTED_EDGE('',*,*,#301,.T.);
#417=ORIENTED_EDGE('',*,*,#269,.F.);
#418=ORIENTED_EDGE('',*,*,#302,.F.);
#419=ORIENTED_EDGE('',*,*,#303,.F.);
#420=ORIENTED_EDGE('',*,*,#302,.T.);
#421=ORIENTED_EDGE('',*,*,#268,.F.);
#422=ORIENTED_EDGE('',*,*,#304,.F.);
#423=ORIENTED_EDGE('',*,*,#305,.F.);
#424=ORIENTED_EDGE('',*,*,#304,.T.);
#425=ORIENTED_EDGE('',*,*,#267,.F.);
#426=ORIENTED_EDGE('',*,*,#306,.F.);
#427=ORIENTED_EDGE('',*,*,#307,.T.);
#428=ORIENTED_EDGE('',*,*,#306,.T.);
#429=ORIENTED_EDGE('',*,*,#266,.F.);
#430=ORIENTED_EDGE('',*,*,#301,.F.);
#431=ORIENTED_EDGE('',*,*,#307,.F.);
#432=ORIENTED_EDGE('',*,*,#300,.T.);
#433=ORIENTED_EDGE('',*,*,#303,.T.);
#434=ORIENTED_EDGE('',*,*,#305,.T.);
#435=ORIENTED_EDGE('',*,*,#241,.T.);
#436=ORIENTED_EDGE('',*,*,#244,.T.);
#437=ORIENTED_EDGE('',*,*,#247,.T.);
#438=ORIENTED_EDGE('',*,*,#297,.T.);
#439=ORIENTED_EDGE('',*,*,#295,.T.);
#440=ORIENTED_EDGE('',*,*,#293,.T.);
#441=ORIENTED_EDGE('',*,*,#299,.T.);
#442=CYLINDRICAL_SURFACE('',#494,1.7);
#443=CYLINDRICAL_SURFACE('',#497,1.7);
#444=CYLINDRICAL_SURFACE('',#500,1.7);
#445=CYLINDRICAL_SURFACE('',#504,33.099999999999);
#446=CYLINDRICAL_SURFACE('',#508,26.900000000018);
#447=CYLINDRICAL_SURFACE('',#525,33.0999999999999);
#448=CYLINDRICAL_SURFACE('',#529,26.900000000002);
#449=CYLINDRICAL_SURFACE('',#532,33.0999999999998);
#450=CYLINDRICAL_SURFACE('',#534,3.1);
#451=CYLINDRICAL_SURFACE('',#536,26.8999999999997);
#452=CYLINDRICAL_SURFACE('',#538,3.1);
#453=CYLINDRICAL_SURFACE('',#541,11.);
#454=CYLINDRICAL_SURFACE('',#544,35.5);
#455=ADVANCED_FACE('',(#35),#442,.F.);
#456=ADVANCED_FACE('',(#36),#443,.F.);
#457=ADVANCED_FACE('',(#37),#444,.F.);
#458=ADVANCED_FACE('',(#38),#23,.F.);
#459=ADVANCED_FACE('',(#39),#445,.F.);
#460=ADVANCED_FACE('',(#40),#24,.F.);
#461=ADVANCED_FACE('',(#41),#446,.T.);
#462=ADVANCED_FACE('',(#42),#25,.F.);
#463=ADVANCED_FACE('',(#43),#26,.T.);
#464=ADVANCED_FACE('',(#44,#15,#16,#17,#18),#27,.T.);
#465=ADVANCED_FACE('',(#45),#28,.F.);
#466=ADVANCED_FACE('',(#46),#447,.F.);
#467=ADVANCED_FACE('',(#47),#29,.F.);
#468=ADVANCED_FACE('',(#48),#30,.F.);
#469=ADVANCED_FACE('',(#49),#448,.T.);
#470=ADVANCED_FACE('',(#50),#31,.T.);
#471=ADVANCED_FACE('',(#51),#449,.F.);
#472=ADVANCED_FACE('',(#52),#450,.F.);
#473=ADVANCED_FACE('',(#53),#451,.T.);
#474=ADVANCED_FACE('',(#54),#452,.F.);
#475=ADVANCED_FACE('',(#55),#32,.T.);
#476=ADVANCED_FACE('',(#56),#453,.F.);
#477=ADVANCED_FACE('',(#57),#33,.T.);
#478=ADVANCED_FACE('',(#58),#454,.T.);
#479=ADVANCED_FACE('',(#59,#19,#20,#21,#22),#34,.F.);
#480=CLOSED_SHELL('',(#455,#456,#457,#458,#459,#460,#461,#462,#463,#464,
#465,#466,#467,#468,#469,#470,#471,#472,#473,#474,#475,#476,#477,#478,#479));
#481=DERIVED_UNIT_ELEMENT(#483,1.);
#482=DERIVED_UNIT_ELEMENT(#834,-3.);
#483=(
MASS_UNIT()
NAMED_UNIT(*)
SI_UNIT(.KILO.,.GRAM.)
);
#484=DERIVED_UNIT((#481,#482));
#485=MEASURE_REPRESENTATION_ITEM('density measure',
POSITIVE_RATIO_MEASURE(7850.),#484);
#486=PROPERTY_DEFINITION_REPRESENTATION(#491,#488);
#487=PROPERTY_DEFINITION_REPRESENTATION(#492,#489);
#488=REPRESENTATION('material name',(#490),#831);
#489=REPRESENTATION('density',(#485),#831);
#490=DESCRIPTIVE_REPRESENTATION_ITEM('Steel','Steel');
#491=PROPERTY_DEFINITION('material property','material name',#841);
#492=PROPERTY_DEFINITION('material property','density of part',#841);
#493=AXIS2_PLACEMENT_3D('',#694,#547,#548);
#494=AXIS2_PLACEMENT_3D('',#695,#549,#550);
#495=AXIS2_PLACEMENT_3D('',#697,#551,#552);
#496=AXIS2_PLACEMENT_3D('',#700,#554,#555);
#497=AXIS2_PLACEMENT_3D('',#701,#556,#557);
#498=AXIS2_PLACEMENT_3D('',#703,#558,#559);
#499=AXIS2_PLACEMENT_3D('',#706,#561,#562);
#500=AXIS2_PLACEMENT_3D('',#707,#563,#564);
#501=AXIS2_PLACEMENT_3D('',#709,#565,#566);
#502=AXIS2_PLACEMENT_3D('',#712,#568,#569);
#503=AXIS2_PLACEMENT_3D('',#713,#570,#571);
#504=AXIS2_PLACEMENT_3D('',#722,#576,#577);
#505=AXIS2_PLACEMENT_3D('',#724,#578,#579);
#506=AXIS2_PLACEMENT_3D('',#726,#580,#581);
#507=AXIS2_PLACEMENT_3D('',#728,#583,#584);
#508=AXIS2_PLACEMENT_3D('',#734,#588,#589);
#509=AXIS2_PLACEMENT_3D('',#736,#590,#591);
#510=AXIS2_PLACEMENT_3D('',#738,#592,#593);
#511=AXIS2_PLACEMENT_3D('',#740,#595,#596);
#512=AXIS2_PLACEMENT_3D('',#744,#600,#601);
#513=AXIS2_PLACEMENT_3D('',#745,#602,#603);
#514=AXIS2_PLACEMENT_3D('',#748,#604,#605);
#515=AXIS2_PLACEMENT_3D('',#752,#607,#608);
#516=AXIS2_PLACEMENT_3D('',#756,#610,#611);
#517=AXIS2_PLACEMENT_3D('',#758,#612,#613);
#518=AXIS2_PLACEMENT_3D('',#762,#615,#616);
#519=AXIS2_PLACEMENT_3D('',#766,#618,#619);
#520=AXIS2_PLACEMENT_3D('',#769,#621,#622);
#521=AXIS2_PLACEMENT_3D('',#771,#623,#624);
#522=AXIS2_PLACEMENT_3D('',#772,#625,#626);
#523=AXIS2_PLACEMENT_3D('',#773,#627,#628);
#524=AXIS2_PLACEMENT_3D('',#774,#629,#630);
#525=AXIS2_PLACEMENT_3D('',#780,#634,#635);
#526=AXIS2_PLACEMENT_3D('',#782,#636,#637);
#527=AXIS2_PLACEMENT_3D('',#784,#639,#640);
#528=AXIS2_PLACEMENT_3D('',#788,#643,#644);
#529=AXIS2_PLACEMENT_3D('',#793,#648,#649);
#530=AXIS2_PLACEMENT_3D('',#794,#650,#651);
#531=AXIS2_PLACEMENT_3D('',#795,#652,#653);
#532=AXIS2_PLACEMENT_3D('',#796,#654,#655);
#533=AXIS2_PLACEMENT_3D('',#800,#657,#658);
#534=AXIS2_PLACEMENT_3D('',#802,#660,#661);
#535=AXIS2_PLACEMENT_3D('',#804,#662,#663);
#536=AXIS2_PLACEMENT_3D('',#806,#665,#666);
#537=AXIS2_PLACEMENT_3D('',#808,#667,#668);
#538=AXIS2_PLACEMENT_3D('',#810,#670,#671);
#539=AXIS2_PLACEMENT_3D('',#811,#672,#673);
#540=AXIS2_PLACEMENT_3D('',#812,#674,#675);
#541=AXIS2_PLACEMENT_3D('',#818,#679,#680);
#542=AXIS2_PLACEMENT_3D('',#820,#681,#682);
#543=AXIS2_PLACEMENT_3D('',#822,#684,#685);
#544=AXIS2_PLACEMENT_3D('',#826,#688,#689);
#545=AXIS2_PLACEMENT_3D('',#827,#690,#691);
#546=AXIS2_PLACEMENT_3D('',#828,#692,#693);
#547=DIRECTION('axis',(0.,0.,1.));
#548=DIRECTION('refdir',(1.,0.,0.));
#549=DIRECTION('center_axis',(0.,1.,0.));
#550=DIRECTION('ref_axis',(1.,0.,0.));
#551=DIRECTION('center_axis',(0.,1.,0.));
#552=DIRECTION('ref_axis',(1.,0.,0.));
#553=DIRECTION('',(0.,1.,0.));
#554=DIRECTION('center_axis',(0.,-1.,0.));
#555=DIRECTION('ref_axis',(1.,0.,0.));
#556=DIRECTION('center_axis',(0.,1.,0.));
#557=DIRECTION('ref_axis',(1.,0.,0.));
#558=DIRECTION('center_axis',(0.,1.,0.));
#559=DIRECTION('ref_axis',(1.,0.,0.));
#560=DIRECTION('',(0.,1.,0.));
#561=DIRECTION('center_axis',(0.,-1.,0.));
#562=DIRECTION('ref_axis',(1.,0.,0.));
#563=DIRECTION('center_axis',(0.,1.,0.));
#564=DIRECTION('ref_axis',(1.,0.,0.));
#565=DIRECTION('center_axis',(0.,1.,0.));
#566=DIRECTION('ref_axis',(1.,0.,0.));
#567=DIRECTION('',(0.,1.,0.));
#568=DIRECTION('center_axis',(0.,-1.,0.));
#569=DIRECTION('ref_axis',(1.,0.,0.));
#570=DIRECTION('center_axis',(-0.986375190789404,0.,0.164511346098582));
#571=DIRECTION('ref_axis',(0.164511346098582,0.,0.986375190789404));
#572=DIRECTION('',(0.,-1.,0.));
#573=DIRECTION('',(-0.164511346098582,0.,-0.986375190789404));
#574=DIRECTION('',(0.,1.,0.));
#575=DIRECTION('',(-0.164511346098582,0.,-0.986375190789404));
#576=DIRECTION('center_axis',(0.,1.,0.));
#577=DIRECTION('ref_axis',(-0.0913151428179188,0.,-0.995822044690789));
#578=DIRECTION('center_axis',(0.,-1.,0.));
#579=DIRECTION('ref_axis',(-0.0913151428179188,0.,-0.995822044690789));
#580=DIRECTION('center_axis',(0.,1.,0.));
#581=DIRECTION('ref_axis',(-0.0913151428179188,0.,-0.995822044690789));
#582=DIRECTION('',(0.,1.,0.));
#583=DIRECTION('center_axis',(0.995822044690788,0.,-0.091315142817922));
#584=DIRECTION('ref_axis',(-0.091315142817922,0.,-0.995822044690788));
#585=DIRECTION('',(0.091315142817922,0.,0.995822044690788));
#586=DIRECTION('',(0.091315142817922,0.,0.995822044690788));
#587=DIRECTION('',(0.,1.,0.));
#588=DIRECTION('center_axis',(0.,1.,0.));
#589=DIRECTION('ref_axis',(-0.0913151428179421,0.,-0.995822044690787));
#590=DIRECTION('center_axis',(0.,1.,0.));
#591=DIRECTION('ref_axis',(-0.0913151428179421,0.,-0.995822044690787));
#592=DIRECTION('center_axis',(0.,1.,0.));
#593=DIRECTION('ref_axis',(-0.0913151428179421,0.,-0.995822044690787));
#594=DIRECTION('',(0.,1.,0.));
#595=DIRECTION('center_axis',(-0.986375190789404,0.,0.164511346098582));
#596=DIRECTION('ref_axis',(0.164511346098582,0.,0.986375190789404));
#597=DIRECTION('',(0.,-1.,0.));
#598=DIRECTION('',(-0.164511346098582,0.,-0.986375190789404));
#599=DIRECTION('',(-0.164511346098582,0.,-0.986375190789404));
#600=DIRECTION('center_axis',(0.,1.,0.));
#601=DIRECTION('ref_axis',(1.,0.,0.));
#602=DIRECTION('center_axis',(0.,1.,0.));
#603=DIRECTION('ref_axis',(1.,0.,0.));
#604=DIRECTION('center_axis',(0.,1.,0.));
#605=DIRECTION('ref_axis',(0.529919264233204,0.,-0.848048096156426));
#606=DIRECTION('',(0.937616746027975,0.,0.347670587723367));
#607=DIRECTION('center_axis',(0.,-1.,0.));
#608=DIRECTION('ref_axis',(0.529919264233206,0.,-0.848048096156425));
#609=DIRECTION('',(0.529919264233205,0.,-0.848048096156426));
#610=DIRECTION('center_axis',(0.,1.,0.));
#611=DIRECTION('ref_axis',(-0.265556117486806,0.,-0.964095404234111));
#612=DIRECTION('center_axis',(0.,-1.,0.));
#613=DIRECTION('ref_axis',(1.,0.,0.));
#614=DIRECTION('',(0.832255663518188,0.,0.554392018829547));
#615=DIRECTION('center_axis',(0.,1.,0.));
#616=DIRECTION('ref_axis',(-0.832255663518191,0.,-0.554392018829543));
#617=DIRECTION('',(-0.89613891113069,0.,-0.443773649462765));
#618=DIRECTION('center_axis',(0.,-1.,0.));
#619=DIRECTION('ref_axis',(-0.832255663518186,0.,-0.55439201882955));
#620=DIRECTION('',(0.832255663518188,0.,0.554392018829547));
#621=DIRECTION('center_axis',(0.,-1.,0.));
#622=DIRECTION('ref_axis',(1.,0.,0.));
#623=DIRECTION('center_axis',(0.,-1.,0.));
#624=DIRECTION('ref_axis',(-0.265556117486808,0.,-0.96409540423411));
#625=DIRECTION('center_axis',(0.,-1.,0.));
#626=DIRECTION('ref_axis',(1.,0.,0.));
#627=DIRECTION('center_axis',(0.,-1.,0.));
#628=DIRECTION('ref_axis',(1.,0.,0.));
#629=DIRECTION('center_axis',(-0.443773649462765,0.,0.89613891113069));
#630=DIRECTION('ref_axis',(0.89613891113069,0.,0.443773649462765));
#631=DIRECTION('',(0.,1.,0.));
#632=DIRECTION('',(-0.89613891113069,0.,-0.443773649462765));
#633=DIRECTION('',(0.,1.,0.));
#634=DIRECTION('center_axis',(0.,1.,0.));
#635=DIRECTION('ref_axis',(-0.832255663518186,0.,-0.55439201882955));
#636=DIRECTION('center_axis',(0.,1.,0.));
#637=DIRECTION('ref_axis',(-0.832255663518186,0.,-0.55439201882955));
#638=DIRECTION('',(0.,1.,0.));
#639=DIRECTION('center_axis',(0.554392018829547,0.,-0.832255663518188));
#640=DIRECTION('ref_axis',(-0.832255663518188,0.,-0.554392018829547));
#641=DIRECTION('',(0.832255663518188,0.,0.554392018829547));
#642=DIRECTION('',(0.,-1.,0.));
#643=DIRECTION('center_axis',(0.554392018829547,0.,-0.832255663518188));
#644=DIRECTION('ref_axis',(-0.832255663518188,0.,-0.554392018829547));
#645=DIRECTION('',(0.,-1.,0.));
#646=DIRECTION('',(0.832255663518188,0.,0.554392018829547));
#647=DIRECTION('',(0.,1.,0.));
#648=DIRECTION('center_axis',(0.,1.,0.));
#649=DIRECTION('ref_axis',(-0.832255663518191,0.,-0.554392018829543));
#650=DIRECTION('center_axis',(0.,1.,0.));
#651=DIRECTION('ref_axis',(-0.832255663518191,0.,-0.554392018829543));
#652=DIRECTION('center_axis',(0.,1.,0.));
#653=DIRECTION('ref_axis',(1.,0.,0.));
#654=DIRECTION('center_axis',(0.,1.,0.));
#655=DIRECTION('ref_axis',(-0.265556117486808,0.,-0.96409540423411));
#656=DIRECTION('',(0.,1.,0.));
#657=DIRECTION('center_axis',(0.,1.,0.));
#658=DIRECTION('ref_axis',(-0.265556117486808,0.,-0.96409540423411));
#659=DIRECTION('',(0.,1.,0.));
#660=DIRECTION('center_axis',(0.,1.,0.));
#661=DIRECTION('ref_axis',(1.,0.,0.));
#662=DIRECTION('center_axis',(0.,1.,0.));
#663=DIRECTION('ref_axis',(1.,0.,0.));
#664=DIRECTION('',(0.,1.,0.));
#665=DIRECTION('center_axis',(0.,1.,0.));
#666=DIRECTION('ref_axis',(-0.265556117486806,0.,-0.964095404234111));
#667=DIRECTION('center_axis',(0.,-1.,0.));
#668=DIRECTION('ref_axis',(-0.265556117486806,0.,-0.964095404234111));
#669=DIRECTION('',(0.,1.,0.));
#670=DIRECTION('center_axis',(0.,1.,0.));
#671=DIRECTION('ref_axis',(-0.637423989748685,0.,0.770513242775793));
#672=DIRECTION('center_axis',(0.,1.,0.));
#673=DIRECTION('ref_axis',(1.,0.,0.));
#674=DIRECTION('center_axis',(0.848048096156426,0.,0.529919264233205));
#675=DIRECTION('ref_axis',(0.529919264233205,0.,-0.848048096156426));
#676=DIRECTION('',(-0.529919264233205,0.,0.848048096156426));
#677=DIRECTION('',(0.,1.,0.));
#678=DIRECTION('',(0.,1.,0.));
#679=DIRECTION('center_axis',(0.,1.,0.));
#680=DIRECTION('ref_axis',(0.529919264233206,0.,-0.848048096156425));
#681=DIRECTION('center_axis',(0.,1.,0.));
#682=DIRECTION('ref_axis',(0.529919264233206,0.,-0.848048096156425));
#683=DIRECTION('',(0.,1.,0.));
#684=DIRECTION('center_axis',(-0.347670587723367,0.,0.937616746027975));
#685=DIRECTION('ref_axis',(0.937616746027975,0.,0.347670587723367));
#686=DIRECTION('',(-0.937616746027975,0.,-0.347670587723367));
#687=DIRECTION('',(0.,1.,0.));
#688=DIRECTION('center_axis',(0.,1.,0.));
#689=DIRECTION('ref_axis',(0.529919264233204,0.,-0.848048096156426));
#690=DIRECTION('center_axis',(0.,1.,0.));
#691=DIRECTION('ref_axis',(0.529919264233204,0.,-0.848048096156426));
#692=DIRECTION('center_axis',(0.,1.,0.));
#693=DIRECTION('ref_axis',(1.,0.,0.));
#694=CARTESIAN_POINT('',(0.,0.,0.));
#695=CARTESIAN_POINT('Origin',(82.2835190289793,89.3,-88.6251798091694));
#696=CARTESIAN_POINT('',(80.5835190289793,90.3,-88.6251798091694));
#697=CARTESIAN_POINT('Origin',(82.2835190289793,90.3,-88.6251798091694));
#698=CARTESIAN_POINT('',(80.5835190289793,93.3,-88.6251798091694));
#699=CARTESIAN_POINT('',(80.5835190289793,89.3,-88.6251798091694));
#700=CARTESIAN_POINT('Origin',(82.2835190289793,93.3,-88.6251798091694));
#701=CARTESIAN_POINT('Origin',(89.3206105092734,89.3,-91.9066294575678));
#702=CARTESIAN_POINT('',(87.6206105092734,90.3,-91.9066294575678));
#703=CARTESIAN_POINT('Origin',(89.3206105092734,90.3,-91.9066294575678));
#704=CARTESIAN_POINT('',(87.6206105092734,93.3,-91.9066294575678));
#705=CARTESIAN_POINT('',(87.6206105092734,89.3,-91.9066294575678));
#706=CARTESIAN_POINT('Origin',(89.3206105092734,93.3,-91.9066294575678));
#707=CARTESIAN_POINT('Origin',(97.0556353241624,89.3,-91.2299024741733));
#708=CARTESIAN_POINT('',(95.3556353241624,90.3,-91.2299024741733));
#709=CARTESIAN_POINT('Origin',(97.0556353241624,90.3,-91.2299024741733));
#710=CARTESIAN_POINT('',(95.3556353241624,93.3,-91.2299024741733));
#711=CARTESIAN_POINT('',(95.3556353241624,89.3,-91.2299024741733));
#712=CARTESIAN_POINT('Origin',(97.0556353241624,93.3,-91.2299024741733));
#713=CARTESIAN_POINT('Origin',(86.4800076184142,91.8,-109.783531977514));
#714=CARTESIAN_POINT('',(87.0164127411202,93.3,-106.567360462314));
#715=CARTESIAN_POINT('',(87.0164127411202,91.8,-106.567360462314));
#716=CARTESIAN_POINT('',(87.0164127411202,89.3,-106.567360462314));
#717=CARTESIAN_POINT('',(86.4800076184142,91.8,-109.783531977514));
#718=CARTESIAN_POINT('',(87.4999779642255,91.8,-103.66800579462));
#719=CARTESIAN_POINT('',(86.4800076184142,93.3,-109.783531977514));
#720=CARTESIAN_POINT('',(86.4800076184142,91.8,-109.783531977514));
#721=CARTESIAN_POINT('',(87.5094536153028,93.3,-103.611191797525));
#722=CARTESIAN_POINT('Origin',(91.9253331742772,91.8,-77.1345131623857));
#723=CARTESIAN_POINT('',(88.9028019470042,93.3,-110.09622284165));
#724=CARTESIAN_POINT('Origin',(91.9253331742772,93.3,-77.1345131623857));
#725=CARTESIAN_POINT('',(88.9028019470042,91.8,-110.09622284165));
#726=CARTESIAN_POINT('Origin',(91.9253331742772,91.8,-77.1345131623857));
#727=CARTESIAN_POINT('',(88.9028019470042,91.8,-110.09622284165));
#728=CARTESIAN_POINT('Origin',(89.4689558324753,91.8,-103.922126164567));
#729=CARTESIAN_POINT('',(89.4689558324753,93.3,-103.922126164567));
#730=CARTESIAN_POINT('',(89.7729962473946,93.3,-100.606464180034));
#731=CARTESIAN_POINT('',(89.4689558324753,91.8,-103.922126164567));
#732=CARTESIAN_POINT('',(88.9028019470042,91.8,-110.09622284165));
#733=CARTESIAN_POINT('',(89.4689558324753,91.8,-103.922126164567));
#734=CARTESIAN_POINT('Origin',(91.9253331742796,91.8,-77.1345131623668));
#735=CARTESIAN_POINT('',(87.4999779642255,93.3,-103.66800579462));
#736=CARTESIAN_POINT('Origin',(91.9253331742796,93.3,-77.1345131623668));
#737=CARTESIAN_POINT('',(87.4999779642255,91.8,-103.66800579462));
#738=CARTESIAN_POINT('Origin',(91.9253331742796,91.8,-77.1345131623668));
#739=CARTESIAN_POINT('',(87.4999779642255,91.8,-103.66800579462));
#740=CARTESIAN_POINT('Origin',(86.4800076184142,91.8,-109.783531977514));
#741=CARTESIAN_POINT('',(87.0164127411202,89.3,-106.567360462314));
#742=CARTESIAN_POINT('',(87.5094536153028,93.3,-103.611191797525));
#743=CARTESIAN_POINT('',(87.4999779642255,91.8,-103.66800579462));
#744=CARTESIAN_POINT('Origin',(87.9744817254448,91.8,-106.882114318135));
#745=CARTESIAN_POINT('Origin',(84.6887028724202,93.3,-96.7967013948632));
#746=CARTESIAN_POINT('',(110.737467054556,93.3,-107.240220575938));
#747=CARTESIAN_POINT('',(58.6399386902842,93.3,-89.4768190265642));
#748=CARTESIAN_POINT('Origin',(91.9253331742774,93.3,-77.1345131623847));
#749=CARTESIAN_POINT('',(81.6115489679696,93.3,-80.9588896273418));
#750=CARTESIAN_POINT('',(81.6115489679696,93.3,-80.9588896273418));
#751=CARTESIAN_POINT('',(97.7544450808426,93.3,-86.4630422201054));
#752=CARTESIAN_POINT('Origin',(91.9253331742773,93.3,-77.1345131623847));
#753=CARTESIAN_POINT('',(110.737467054556,93.3,-107.240220575938));
#754=CARTESIAN_POINT('',(84.7818736138822,93.3,-103.068679536282));
#755=CARTESIAN_POINT('',(71.1985269436086,93.3,-94.2812184866245));
#756=CARTESIAN_POINT('Origin',(91.9253331742772,93.3,-77.134513162385));
#757=CARTESIAN_POINT('',(67.0913206326321,93.3,-93.677240297939));
#758=CARTESIAN_POINT('Origin',(68.8099358910037,93.3,-96.2572328548454));
#759=CARTESIAN_POINT('',(69.5376558256381,93.3,-92.0476584688996));
#760=CARTESIAN_POINT('',(73.6892438649943,93.3,-89.2821533778826));
#761=CARTESIAN_POINT('',(67.8191964648618,93.3,-89.0720243329331));
#762=CARTESIAN_POINT('Origin',(91.9253331742791,93.3,-77.1345131623838));
#763=CARTESIAN_POINT('',(62.2631352158515,93.3,-91.8234209596023));
#764=CARTESIAN_POINT('',(70.2788347469073,93.3,-87.8539959187842));
#765=CARTESIAN_POINT('',(64.3776707118254,93.3,-95.4848889856428));
#766=CARTESIAN_POINT('Origin',(91.9253331742773,93.3,-77.1345131623847));
#767=CARTESIAN_POINT('',(73.6892438649943,93.3,-89.2821533778826));
#768=CARTESIAN_POINT('',(66.4213448383987,93.3,-98.2332472230663));
#769=CARTESIAN_POINT('Origin',(68.8099358910037,93.3,-96.2572328548454));
#770=CARTESIAN_POINT('',(83.135425685464,93.3,-109.046071042534));
#771=CARTESIAN_POINT('Origin',(91.9253331742773,93.3,-77.1345131623849));
#772=CARTESIAN_POINT('Origin',(83.9586496496731,93.3,-106.057375289408));
#773=CARTESIAN_POINT('Origin',(83.9586496496731,93.3,-106.057375289408));
#774=CARTESIAN_POINT('Origin',(62.2631352158515,91.8,-91.8234209596023));
#775=CARTESIAN_POINT('',(67.8191964648618,91.8,-89.0720243329331));
#776=CARTESIAN_POINT('',(67.8191964648618,91.8,-89.0720243329331));
#777=CARTESIAN_POINT('',(62.2631352158515,91.8,-91.8234209596023));
#778=CARTESIAN_POINT('',(67.8191964648618,91.8,-89.0720243329331));
#779=CARTESIAN_POINT('',(62.2631352158515,91.8,-91.8234209596023));
#780=CARTESIAN_POINT('Origin',(91.9253331742773,91.8,-77.1345131623847));
#781=CARTESIAN_POINT('',(64.3776707118254,91.8,-95.4848889856428));
#782=CARTESIAN_POINT('Origin',(91.9253331742773,91.8,-77.1345131623847));
#783=CARTESIAN_POINT('',(64.3776707118254,91.8,-95.4848889856428));
#784=CARTESIAN_POINT('Origin',(69.5376558256381,91.8,-92.0476584688996));
#785=CARTESIAN_POINT('',(67.0913206326321,91.8,-93.677240297939));
#786=CARTESIAN_POINT('',(64.3776707118254,91.8,-95.4848889856428));
#787=CARTESIAN_POINT('',(67.0913206326321,89.3,-93.677240297939));
#788=CARTESIAN_POINT('Origin',(69.5376558256381,91.8,-92.0476584688996));
#789=CARTESIAN_POINT('',(67.0913206326321,89.3,-93.677240297939));
#790=CARTESIAN_POINT('',(69.5376558256381,91.8,-92.0476584688996));
#791=CARTESIAN_POINT('',(64.3776707118254,91.8,-95.4848889856428));
#792=CARTESIAN_POINT('',(69.5376558256381,91.8,-92.0476584688996));
#793=CARTESIAN_POINT('Origin',(91.9253331742791,91.8,-77.1345131623838));
#794=CARTESIAN_POINT('Origin',(91.9253331742791,91.8,-77.1345131623838));
#795=CARTESIAN_POINT('Origin',(65.9003955207448,91.8,-92.278456659288));
#796=CARTESIAN_POINT('Origin',(91.9253331742773,89.3,-77.1345131623849));
#797=CARTESIAN_POINT('',(66.4213448383987,90.3,-98.2332472230663));
#798=CARTESIAN_POINT('',(66.4213448383987,89.3,-98.2332472230663));
#799=CARTESIAN_POINT('',(83.135425685464,90.3,-109.046071042534));
#800=CARTESIAN_POINT('Origin',(91.9253331742773,90.3,-77.1345131623849));
#801=CARTESIAN_POINT('',(83.135425685464,89.3,-109.046071042534));
#802=CARTESIAN_POINT('Origin',(83.9586496496731,89.3,-106.057375289408));
#803=CARTESIAN_POINT('',(84.7818736138822,90.3,-103.068679536282));
#804=CARTESIAN_POINT('Origin',(83.9586496496731,90.3,-106.057375289408));
#805=CARTESIAN_POINT('',(84.7818736138822,89.3,-103.068679536282));
#806=CARTESIAN_POINT('Origin',(91.9253331742772,89.3,-77.134513162385));
#807=CARTESIAN_POINT('',(71.1985269436086,90.3,-94.2812184866245));
#808=CARTESIAN_POINT('Origin',(91.9253331742772,90.3,-77.134513162385));
#809=CARTESIAN_POINT('',(71.1985269436086,89.3,-94.2812184866245));
#810=CARTESIAN_POINT('Origin',(68.8099358910037,89.3,-96.2572328548454));
#811=CARTESIAN_POINT('Origin',(68.8099358910037,90.3,-96.2572328548454));
#812=CARTESIAN_POINT('Origin',(97.7544450808426,90.3,-86.4630422201054));
#813=CARTESIAN_POINT('',(110.737467054556,90.3,-107.240220575938));
#814=CARTESIAN_POINT('',(97.7544450808426,90.3,-86.4630422201054));
#815=CARTESIAN_POINT('',(110.737467054556,90.3,-107.240220575938));
#816=CARTESIAN_POINT('',(110.737467054556,90.3,-107.240220575938));
#817=CARTESIAN_POINT('',(97.7544450808426,90.3,-86.4630422201054));
#818=CARTESIAN_POINT('Origin',(91.9253331742773,90.3,-77.1345131623847));
#819=CARTESIAN_POINT('',(81.6115489679696,90.3,-80.9588896273418));
#820=CARTESIAN_POINT('Origin',(91.9253331742773,90.3,-77.1345131623847));
#821=CARTESIAN_POINT('',(81.6115489679696,90.3,-80.9588896273418));
#822=CARTESIAN_POINT('Origin',(58.6399386902842,90.3,-89.4768190265642));
#823=CARTESIAN_POINT('',(58.6399386902842,90.3,-89.4768190265642));
#824=CARTESIAN_POINT('',(81.6115489679696,90.3,-80.9588896273418));
#825=CARTESIAN_POINT('',(58.6399386902842,90.3,-89.4768190265642));
#826=CARTESIAN_POINT('Origin',(91.9253331742774,90.3,-77.1345131623847));
#827=CARTESIAN_POINT('Origin',(91.9253331742774,90.3,-77.1345131623847));
#828=CARTESIAN_POINT('Origin',(84.6887028724202,90.3,-96.7967013948632));
#829=UNCERTAINTY_MEASURE_WITH_UNIT(LENGTH_MEASURE(0.01),#833,
'DISTANCE_ACCURACY_VALUE',
'Maximum model space distance between geometric entities at asserted c
onnectivities');
#830=UNCERTAINTY_MEASURE_WITH_UNIT(LENGTH_MEASURE(0.01),#833,
'DISTANCE_ACCURACY_VALUE',
'Maximum model space distance between geometric entities at asserted c
onnectivities');
#831=(
GEOMETRIC_REPRESENTATION_CONTEXT(3)
GLOBAL_UNCERTAINTY_ASSIGNED_CONTEXT((#829))
GLOBAL_UNIT_ASSIGNED_CONTEXT((#833,#835,#836))
REPRESENTATION_CONTEXT('','3D')
);
#832=(
GEOMETRIC_REPRESENTATION_CONTEXT(3)
GLOBAL_UNCERTAINTY_ASSIGNED_CONTEXT((#830))
GLOBAL_UNIT_ASSIGNED_CONTEXT((#833,#835,#836))
REPRESENTATION_CONTEXT('','3D')
);
#833=(
LENGTH_UNIT()
NAMED_UNIT(*)
SI_UNIT(.MILLI.,.METRE.)
);
#834=(
LENGTH_UNIT()
NAMED_UNIT(*)
SI_UNIT($,.METRE.)
);
#835=(
NAMED_UNIT(*)
PLANE_ANGLE_UNIT()
SI_UNIT($,.RADIAN.)
);
#836=(
NAMED_UNIT(*)
SI_UNIT($,.STERADIAN.)
SOLID_ANGLE_UNIT()
);
#837=SHAPE_DEFINITION_REPRESENTATION(#838,#839);
#838=PRODUCT_DEFINITION_SHAPE('',$,#841);
#839=SHAPE_REPRESENTATION('',(#493),#831);
#840=PRODUCT_DEFINITION_CONTEXT('part definition',#845,'design');
#841=PRODUCT_DEFINITION('2026-08-08-19-52-18-700','Knee_Stop_Arc_L',#842,
#840);
#842=PRODUCT_DEFINITION_FORMATION('',$,#847);
#843=PRODUCT_RELATED_PRODUCT_CATEGORY('Knee_Stop_Arc_L',
'Knee_Stop_Arc_L',(#847));
#844=APPLICATION_PROTOCOL_DEFINITION('international standard',
'automotive_design',2009,#845);
#845=APPLICATION_CONTEXT(
'Core Data for Automotive Mechanical Design Process');
#846=PRODUCT_CONTEXT('part definition',#845,'mechanical');
#847=PRODUCT('2026-08-08-19-52-18-700','Knee_Stop_Arc_L',$,(#846));
#848=PRESENTATION_STYLE_ASSIGNMENT((#849));
#849=SURFACE_STYLE_USAGE(.BOTH.,#850);
#850=SURFACE_SIDE_STYLE('',(#851));
#851=SURFACE_STYLE_FILL_AREA(#852);
#852=FILL_AREA_STYLE('Steel - Satin',(#853));
#853=FILL_AREA_STYLE_COLOUR('Steel - Satin',#854);
#854=COLOUR_RGB('Steel - Satin',0.627450980392157,0.627450980392157,0.627450980392157);
ENDSEC;
END-ISO-10303-21;
