ISO-10303-21;
HEADER;
/* Generated by software containing ST-Developer
 * from STEP Tools, Inc. (www.steptools.com) 
 */

FILE_DESCRIPTION(
/* description */ (''),
/* implementation_level */ '2;1');

FILE_NAME(
/* name */ 'Wheel_Hub_L.step',
/* time_stamp */ '2026-08-08T19:52:19-07:00',
/* author */ (''),
/* organization */ (''),
/* preprocessor_version */ 'ST-DEVELOPER v20.1',
/* originating_system */ 'Autodesk Translation Framework v15.8.0.0',
/* authorisation */ '');

FILE_SCHEMA (('AUTOMOTIVE_DESIGN { 1 0 10303 214 3 1 1 }'));
ENDSEC;

DATA;
#10=MECHANICAL_DESIGN_GEOMETRIC_PRESENTATION_REPRESENTATION('',(#13),#656);
#11=SHAPE_REPRESENTATION_RELATIONSHIP('SRR','None',#663,#12);
#12=ADVANCED_BREP_SHAPE_REPRESENTATION('',(#14),#655);
#13=STYLED_ITEM('',(#673),#14);
#14=MANIFOLD_SOLID_BREP('Wheel_Hub_L',#372);
#15=FACE_BOUND('',#75,.T.);
#16=FACE_BOUND('',#78,.T.);
#17=FACE_BOUND('',#81,.T.);
#18=FACE_BOUND('',#87,.T.);
#19=FACE_BOUND('',#88,.T.);
#20=FACE_BOUND('',#89,.T.);
#21=FACE_BOUND('',#90,.T.);
#22=FACE_BOUND('',#93,.T.);
#23=FACE_BOUND('',#94,.T.);
#24=FACE_BOUND('',#95,.T.);
#25=FACE_BOUND('',#96,.T.);
#26=FACE_BOUND('',#97,.T.);
#27=FACE_BOUND('',#98,.T.);
#28=FACE_BOUND('',#99,.T.);
#29=FACE_BOUND('',#100,.T.);
#30=FACE_BOUND('',#101,.T.);
#31=FACE_BOUND('',#102,.T.);
#32=FACE_BOUND('',#104,.T.);
#33=FACE_BOUND('',#105,.T.);
#34=FACE_BOUND('',#106,.T.);
#35=FACE_BOUND('',#107,.T.);
#36=FACE_BOUND('',#108,.T.);
#37=FACE_BOUND('',#109,.T.);
#38=FACE_BOUND('',#110,.T.);
#39=PLANE('',#410);
#40=PLANE('',#415);
#41=PLANE('',#420);
#42=PLANE('',#431);
#43=PLANE('',#435);
#44=PLANE('',#436);
#45=FACE_OUTER_BOUND('',#66,.T.);
#46=FACE_OUTER_BOUND('',#67,.T.);
#47=FACE_OUTER_BOUND('',#68,.T.);
#48=FACE_OUTER_BOUND('',#69,.T.);
#49=FACE_OUTER_BOUND('',#70,.T.);
#50=FACE_OUTER_BOUND('',#71,.T.);
#51=FACE_OUTER_BOUND('',#72,.T.);
#52=FACE_OUTER_BOUND('',#73,.T.);
#53=FACE_OUTER_BOUND('',#74,.T.);
#54=FACE_OUTER_BOUND('',#76,.T.);
#55=FACE_OUTER_BOUND('',#77,.T.);
#56=FACE_OUTER_BOUND('',#79,.T.);
#57=FACE_OUTER_BOUND('',#80,.T.);
#58=FACE_OUTER_BOUND('',#82,.T.);
#59=FACE_OUTER_BOUND('',#83,.T.);
#60=FACE_OUTER_BOUND('',#84,.T.);
#61=FACE_OUTER_BOUND('',#85,.T.);
#62=FACE_OUTER_BOUND('',#86,.T.);
#63=FACE_OUTER_BOUND('',#91,.T.);
#64=FACE_OUTER_BOUND('',#92,.T.);
#65=FACE_OUTER_BOUND('',#103,.T.);
#66=EDGE_LOOP('',(#246,#247,#248,#249));
#67=EDGE_LOOP('',(#250,#251,#252,#253));
#68=EDGE_LOOP('',(#254,#255,#256,#257));
#69=EDGE_LOOP('',(#258,#259,#260,#261));
#70=EDGE_LOOP('',(#262,#263,#264,#265));
#71=EDGE_LOOP('',(#266,#267,#268,#269));
#72=EDGE_LOOP('',(#270,#271,#272,#273));
#73=EDGE_LOOP('',(#274,#275,#276,#277));
#74=EDGE_LOOP('',(#278));
#75=EDGE_LOOP('',(#279));
#76=EDGE_LOOP('',(#280,#281,#282,#283));
#77=EDGE_LOOP('',(#284));
#78=EDGE_LOOP('',(#285));
#79=EDGE_LOOP('',(#286,#287,#288,#289));
#80=EDGE_LOOP('',(#290));
#81=EDGE_LOOP('',(#291));
#82=EDGE_LOOP('',(#292,#293,#294,#295));
#83=EDGE_LOOP('',(#296,#297,#298,#299));
#84=EDGE_LOOP('',(#300,#301,#302,#303));
#85=EDGE_LOOP('',(#304,#305,#306,#307));
#86=EDGE_LOOP('',(#308));
#87=EDGE_LOOP('',(#309));
#88=EDGE_LOOP('',(#310));
#89=EDGE_LOOP('',(#311));
#90=EDGE_LOOP('',(#312));
#91=EDGE_LOOP('',(#313,#314,#315,#316));
#92=EDGE_LOOP('',(#317));
#93=EDGE_LOOP('',(#318));
#94=EDGE_LOOP('',(#319));
#95=EDGE_LOOP('',(#320));
#96=EDGE_LOOP('',(#321));
#97=EDGE_LOOP('',(#322));
#98=EDGE_LOOP('',(#323));
#99=EDGE_LOOP('',(#324));
#100=EDGE_LOOP('',(#325));
#101=EDGE_LOOP('',(#326));
#102=EDGE_LOOP('',(#327));
#103=EDGE_LOOP('',(#328));
#104=EDGE_LOOP('',(#329));
#105=EDGE_LOOP('',(#330));
#106=EDGE_LOOP('',(#331));
#107=EDGE_LOOP('',(#332));
#108=EDGE_LOOP('',(#333));
#109=EDGE_LOOP('',(#334));
#110=EDGE_LOOP('',(#335));
#111=LINE('',#561,#126);
#112=LINE('',#567,#127);
#113=LINE('',#573,#128);
#114=LINE('',#579,#129);
#115=LINE('',#585,#130);
#116=LINE('',#591,#131);
#117=LINE('',#597,#132);
#118=LINE('',#603,#133);
#119=LINE('',#612,#134);
#120=LINE('',#621,#135);
#121=LINE('',#629,#136);
#122=LINE('',#633,#137);
#123=LINE('',#637,#138);
#124=LINE('',#642,#139);
#125=LINE('',#649,#140);
#126=VECTOR('',#443,6.);
#127=VECTOR('',#450,1.65);
#128=VECTOR('',#457,1.65);
#129=VECTOR('',#464,1.65);
#130=VECTOR('',#471,1.65);
#131=VECTOR('',#478,1.65);
#132=VECTOR('',#485,1.65);
#133=VECTOR('',#492,3.25);
#134=VECTOR('',#503,3.25);
#135=VECTOR('',#514,3.25);
#136=VECTOR('',#525,1.7);
#137=VECTOR('',#530,1.7);
#138=VECTOR('',#535,1.7);
#139=VECTOR('',#540,18.65);
#140=VECTOR('',#549,28.);
#141=CIRCLE('',#387,6.);
#142=CIRCLE('',#388,6.);
#143=CIRCLE('',#390,1.65);
#144=CIRCLE('',#391,1.65);
#145=CIRCLE('',#393,1.65);
#146=CIRCLE('',#394,1.65);
#147=CIRCLE('',#396,1.65);
#148=CIRCLE('',#397,1.65);
#149=CIRCLE('',#399,1.65);
#150=CIRCLE('',#400,1.65);
#151=CIRCLE('',#402,1.65);
#152=CIRCLE('',#403,1.65);
#153=CIRCLE('',#405,1.65);
#154=CIRCLE('',#406,1.65);
#155=CIRCLE('',#408,3.25);
#156=CIRCLE('',#409,3.25);
#157=CIRCLE('',#411,1.7);
#158=CIRCLE('',#413,3.25);
#159=CIRCLE('',#414,3.25);
#160=CIRCLE('',#416,1.7);
#161=CIRCLE('',#418,3.25);
#162=CIRCLE('',#419,3.25);
#163=CIRCLE('',#421,1.7);
#164=CIRCLE('',#423,1.7);
#165=CIRCLE('',#425,1.7);
#166=CIRCLE('',#427,1.7);
#167=CIRCLE('',#429,18.65);
#168=CIRCLE('',#430,18.65);
#169=CIRCLE('',#433,28.);
#170=CIRCLE('',#434,28.);
#171=VERTEX_POINT('',#558);
#172=VERTEX_POINT('',#560);
#173=VERTEX_POINT('',#564);
#174=VERTEX_POINT('',#566);
#175=VERTEX_POINT('',#570);
#176=VERTEX_POINT('',#572);
#177=VERTEX_POINT('',#576);
#178=VERTEX_POINT('',#578);
#179=VERTEX_POINT('',#582);
#180=VERTEX_POINT('',#584);
#181=VERTEX_POINT('',#588);
#182=VERTEX_POINT('',#590);
#183=VERTEX_POINT('',#594);
#184=VERTEX_POINT('',#596);
#185=VERTEX_POINT('',#600);
#186=VERTEX_POINT('',#602);
#187=VERTEX_POINT('',#606);
#188=VERTEX_POINT('',#609);
#189=VERTEX_POINT('',#611);
#190=VERTEX_POINT('',#615);
#191=VERTEX_POINT('',#618);
#192=VERTEX_POINT('',#620);
#193=VERTEX_POINT('',#624);
#194=VERTEX_POINT('',#627);
#195=VERTEX_POINT('',#631);
#196=VERTEX_POINT('',#635);
#197=VERTEX_POINT('',#639);
#198=VERTEX_POINT('',#641);
#199=VERTEX_POINT('',#646);
#200=VERTEX_POINT('',#648);
#201=EDGE_CURVE('',#171,#171,#141,.T.);
#202=EDGE_CURVE('',#171,#172,#111,.T.);
#203=EDGE_CURVE('',#172,#172,#142,.T.);
#204=EDGE_CURVE('',#173,#173,#143,.T.);
#205=EDGE_CURVE('',#173,#174,#112,.T.);
#206=EDGE_CURVE('',#174,#174,#144,.T.);
#207=EDGE_CURVE('',#175,#175,#145,.T.);
#208=EDGE_CURVE('',#175,#176,#113,.T.);
#209=EDGE_CURVE('',#176,#176,#146,.T.);
#210=EDGE_CURVE('',#177,#177,#147,.T.);
#211=EDGE_CURVE('',#177,#178,#114,.T.);
#212=EDGE_CURVE('',#178,#178,#148,.T.);
#213=EDGE_CURVE('',#179,#179,#149,.T.);
#214=EDGE_CURVE('',#179,#180,#115,.T.);
#215=EDGE_CURVE('',#180,#180,#150,.T.);
#216=EDGE_CURVE('',#181,#181,#151,.T.);
#217=EDGE_CURVE('',#181,#182,#116,.T.);
#218=EDGE_CURVE('',#182,#182,#152,.T.);
#219=EDGE_CURVE('',#183,#183,#153,.T.);
#220=EDGE_CURVE('',#183,#184,#117,.T.);
#221=EDGE_CURVE('',#184,#184,#154,.T.);
#222=EDGE_CURVE('',#185,#185,#155,.T.);
#223=EDGE_CURVE('',#185,#186,#118,.T.);
#224=EDGE_CURVE('',#186,#186,#156,.T.);
#225=EDGE_CURVE('',#187,#187,#157,.T.);
#226=EDGE_CURVE('',#188,#188,#158,.T.);
#227=EDGE_CURVE('',#188,#189,#119,.T.);
#228=EDGE_CURVE('',#189,#189,#159,.T.);
#229=EDGE_CURVE('',#190,#190,#160,.T.);
#230=EDGE_CURVE('',#191,#191,#161,.T.);
#231=EDGE_CURVE('',#191,#192,#120,.T.);
#232=EDGE_CURVE('',#192,#192,#162,.T.);
#233=EDGE_CURVE('',#193,#193,#163,.T.);
#234=EDGE_CURVE('',#194,#194,#164,.T.);
#235=EDGE_CURVE('',#194,#187,#121,.T.);
#236=EDGE_CURVE('',#195,#195,#165,.T.);
#237=EDGE_CURVE('',#195,#190,#122,.T.);
#238=EDGE_CURVE('',#196,#196,#166,.T.);
#239=EDGE_CURVE('',#196,#193,#123,.T.);
#240=EDGE_CURVE('',#197,#197,#167,.T.);
#241=EDGE_CURVE('',#197,#198,#124,.T.);
#242=EDGE_CURVE('',#198,#198,#168,.T.);
#243=EDGE_CURVE('',#199,#199,#169,.T.);
#244=EDGE_CURVE('',#199,#200,#125,.T.);
#245=EDGE_CURVE('',#200,#200,#170,.T.);
#246=ORIENTED_EDGE('',*,*,#201,.F.);
#247=ORIENTED_EDGE('',*,*,#202,.T.);
#248=ORIENTED_EDGE('',*,*,#203,.F.);
#249=ORIENTED_EDGE('',*,*,#202,.F.);
#250=ORIENTED_EDGE('',*,*,#204,.F.);
#251=ORIENTED_EDGE('',*,*,#205,.T.);
#252=ORIENTED_EDGE('',*,*,#206,.F.);
#253=ORIENTED_EDGE('',*,*,#205,.F.);
#254=ORIENTED_EDGE('',*,*,#207,.F.);
#255=ORIENTED_EDGE('',*,*,#208,.T.);
#256=ORIENTED_EDGE('',*,*,#209,.F.);
#257=ORIENTED_EDGE('',*,*,#208,.F.);
#258=ORIENTED_EDGE('',*,*,#210,.F.);
#259=ORIENTED_EDGE('',*,*,#211,.T.);
#260=ORIENTED_EDGE('',*,*,#212,.F.);
#261=ORIENTED_EDGE('',*,*,#211,.F.);
#262=ORIENTED_EDGE('',*,*,#213,.F.);
#263=ORIENTED_EDGE('',*,*,#214,.T.);
#264=ORIENTED_EDGE('',*,*,#215,.F.);
#265=ORIENTED_EDGE('',*,*,#214,.F.);
#266=ORIENTED_EDGE('',*,*,#216,.F.);
#267=ORIENTED_EDGE('',*,*,#217,.T.);
#268=ORIENTED_EDGE('',*,*,#218,.F.);
#269=ORIENTED_EDGE('',*,*,#217,.F.);
#270=ORIENTED_EDGE('',*,*,#219,.F.);
#271=ORIENTED_EDGE('',*,*,#220,.T.);
#272=ORIENTED_EDGE('',*,*,#221,.F.);
#273=ORIENTED_EDGE('',*,*,#220,.F.);
#274=ORIENTED_EDGE('',*,*,#222,.F.);
#275=ORIENTED_EDGE('',*,*,#223,.T.);
#276=ORIENTED_EDGE('',*,*,#224,.F.);
#277=ORIENTED_EDGE('',*,*,#223,.F.);
#278=ORIENTED_EDGE('',*,*,#222,.T.);
#279=ORIENTED_EDGE('',*,*,#225,.F.);
#280=ORIENTED_EDGE('',*,*,#226,.F.);
#281=ORIENTED_EDGE('',*,*,#227,.T.);
#282=ORIENTED_EDGE('',*,*,#228,.F.);
#283=ORIENTED_EDGE('',*,*,#227,.F.);
#284=ORIENTED_EDGE('',*,*,#226,.T.);
#285=ORIENTED_EDGE('',*,*,#229,.F.);
#286=ORIENTED_EDGE('',*,*,#230,.F.);
#287=ORIENTED_EDGE('',*,*,#231,.T.);
#288=ORIENTED_EDGE('',*,*,#232,.F.);
#289=ORIENTED_EDGE('',*,*,#231,.F.);
#290=ORIENTED_EDGE('',*,*,#230,.T.);
#291=ORIENTED_EDGE('',*,*,#233,.F.);
#292=ORIENTED_EDGE('',*,*,#234,.F.);
#293=ORIENTED_EDGE('',*,*,#235,.T.);
#294=ORIENTED_EDGE('',*,*,#225,.T.);
#295=ORIENTED_EDGE('',*,*,#235,.F.);
#296=ORIENTED_EDGE('',*,*,#236,.F.);
#297=ORIENTED_EDGE('',*,*,#237,.T.);
#298=ORIENTED_EDGE('',*,*,#229,.T.);
#299=ORIENTED_EDGE('',*,*,#237,.F.);
#300=ORIENTED_EDGE('',*,*,#238,.F.);
#301=ORIENTED_EDGE('',*,*,#239,.T.);
#302=ORIENTED_EDGE('',*,*,#233,.T.);
#303=ORIENTED_EDGE('',*,*,#239,.F.);
#304=ORIENTED_EDGE('',*,*,#240,.F.);
#305=ORIENTED_EDGE('',*,*,#241,.T.);
#306=ORIENTED_EDGE('',*,*,#242,.T.);
#307=ORIENTED_EDGE('',*,*,#241,.F.);
#308=ORIENTED_EDGE('',*,*,#242,.F.);
#309=ORIENTED_EDGE('',*,*,#201,.T.);
#310=ORIENTED_EDGE('',*,*,#234,.T.);
#311=ORIENTED_EDGE('',*,*,#236,.T.);
#312=ORIENTED_EDGE('',*,*,#238,.T.);
#313=ORIENTED_EDGE('',*,*,#243,.F.);
#314=ORIENTED_EDGE('',*,*,#244,.T.);
#315=ORIENTED_EDGE('',*,*,#245,.T.);
#316=ORIENTED_EDGE('',*,*,#244,.F.);
#317=ORIENTED_EDGE('',*,*,#243,.T.);
#318=ORIENTED_EDGE('',*,*,#206,.T.);
#319=ORIENTED_EDGE('',*,*,#209,.T.);
#320=ORIENTED_EDGE('',*,*,#212,.T.);
#321=ORIENTED_EDGE('',*,*,#215,.T.);
#322=ORIENTED_EDGE('',*,*,#218,.T.);
#323=ORIENTED_EDGE('',*,*,#221,.T.);
#324=ORIENTED_EDGE('',*,*,#232,.T.);
#325=ORIENTED_EDGE('',*,*,#228,.T.);
#326=ORIENTED_EDGE('',*,*,#224,.T.);
#327=ORIENTED_EDGE('',*,*,#203,.T.);
#328=ORIENTED_EDGE('',*,*,#245,.F.);
#329=ORIENTED_EDGE('',*,*,#240,.T.);
#330=ORIENTED_EDGE('',*,*,#219,.T.);
#331=ORIENTED_EDGE('',*,*,#216,.T.);
#332=ORIENTED_EDGE('',*,*,#213,.T.);
#333=ORIENTED_EDGE('',*,*,#210,.T.);
#334=ORIENTED_EDGE('',*,*,#207,.T.);
#335=ORIENTED_EDGE('',*,*,#204,.T.);
#336=CYLINDRICAL_SURFACE('',#386,6.);
#337=CYLINDRICAL_SURFACE('',#389,1.65);
#338=CYLINDRICAL_SURFACE('',#392,1.65);
#339=CYLINDRICAL_SURFACE('',#395,1.65);
#340=CYLINDRICAL_SURFACE('',#398,1.65);
#341=CYLINDRICAL_SURFACE('',#401,1.65);
#342=CYLINDRICAL_SURFACE('',#404,1.65);
#343=CYLINDRICAL_SURFACE('',#407,3.25);
#344=CYLINDRICAL_SURFACE('',#412,3.25);
#345=CYLINDRICAL_SURFACE('',#417,3.25);
#346=CYLINDRICAL_SURFACE('',#422,1.7);
#347=CYLINDRICAL_SURFACE('',#424,1.7);
#348=CYLINDRICAL_SURFACE('',#426,1.7);
#349=CYLINDRICAL_SURFACE('',#428,18.65);
#350=CYLINDRICAL_SURFACE('',#432,28.);
#351=ADVANCED_FACE('',(#45),#336,.F.);
#352=ADVANCED_FACE('',(#46),#337,.F.);
#353=ADVANCED_FACE('',(#47),#338,.F.);
#354=ADVANCED_FACE('',(#48),#339,.F.);
#355=ADVANCED_FACE('',(#49),#340,.F.);
#356=ADVANCED_FACE('',(#50),#341,.F.);
#357=ADVANCED_FACE('',(#51),#342,.F.);
#358=ADVANCED_FACE('',(#52),#343,.F.);
#359=ADVANCED_FACE('',(#53,#15),#39,.T.);
#360=ADVANCED_FACE('',(#54),#344,.F.);
#361=ADVANCED_FACE('',(#55,#16),#40,.T.);
#362=ADVANCED_FACE('',(#56),#345,.F.);
#363=ADVANCED_FACE('',(#57,#17),#41,.T.);
#364=ADVANCED_FACE('',(#58),#346,.F.);
#365=ADVANCED_FACE('',(#59),#347,.F.);
#366=ADVANCED_FACE('',(#60),#348,.F.);
#367=ADVANCED_FACE('',(#61),#349,.F.);
#368=ADVANCED_FACE('',(#62,#18,#19,#20,#21),#42,.F.);
#369=ADVANCED_FACE('',(#63),#350,.T.);
#370=ADVANCED_FACE('',(#64,#22,#23,#24,#25,#26,#27,#28,#29,#30,#31),#43,
 .T.);
#371=ADVANCED_FACE('',(#65,#32,#33,#34,#35,#36,#37,#38),#44,.F.);
#372=CLOSED_SHELL('',(#351,#352,#353,#354,#355,#356,#357,#358,#359,#360,
#361,#362,#363,#364,#365,#366,#367,#368,#369,#370,#371));
#373=DERIVED_UNIT_ELEMENT(#375,1.);
#374=DERIVED_UNIT_ELEMENT(#658,-3.);
#375=(
MASS_UNIT()
NAMED_UNIT(*)
SI_UNIT(.KILO.,.GRAM.)
);
#376=DERIVED_UNIT((#373,#374));
#377=MEASURE_REPRESENTATION_ITEM('density measure',
POSITIVE_RATIO_MEASURE(7850.),#376);
#378=PROPERTY_DEFINITION_REPRESENTATION(#383,#380);
#379=PROPERTY_DEFINITION_REPRESENTATION(#384,#381);
#380=REPRESENTATION('material name',(#382),#655);
#381=REPRESENTATION('density',(#377),#655);
#382=DESCRIPTIVE_REPRESENTATION_ITEM('Steel','Steel');
#383=PROPERTY_DEFINITION('material property','material name',#665);
#384=PROPERTY_DEFINITION('material property','density of part',#665);
#385=AXIS2_PLACEMENT_3D('',#556,#437,#438);
#386=AXIS2_PLACEMENT_3D('',#557,#439,#440);
#387=AXIS2_PLACEMENT_3D('',#559,#441,#442);
#388=AXIS2_PLACEMENT_3D('',#562,#444,#445);
#389=AXIS2_PLACEMENT_3D('',#563,#446,#447);
#390=AXIS2_PLACEMENT_3D('',#565,#448,#449);
#391=AXIS2_PLACEMENT_3D('',#568,#451,#452);
#392=AXIS2_PLACEMENT_3D('',#569,#453,#454);
#393=AXIS2_PLACEMENT_3D('',#571,#455,#456);
#394=AXIS2_PLACEMENT_3D('',#574,#458,#459);
#395=AXIS2_PLACEMENT_3D('',#575,#460,#461);
#396=AXIS2_PLACEMENT_3D('',#577,#462,#463);
#397=AXIS2_PLACEMENT_3D('',#580,#465,#466);
#398=AXIS2_PLACEMENT_3D('',#581,#467,#468);
#399=AXIS2_PLACEMENT_3D('',#583,#469,#470);
#400=AXIS2_PLACEMENT_3D('',#586,#472,#473);
#401=AXIS2_PLACEMENT_3D('',#587,#474,#475);
#402=AXIS2_PLACEMENT_3D('',#589,#476,#477);
#403=AXIS2_PLACEMENT_3D('',#592,#479,#480);
#404=AXIS2_PLACEMENT_3D('',#593,#481,#482);
#405=AXIS2_PLACEMENT_3D('',#595,#483,#484);
#406=AXIS2_PLACEMENT_3D('',#598,#486,#487);
#407=AXIS2_PLACEMENT_3D('',#599,#488,#489);
#408=AXIS2_PLACEMENT_3D('',#601,#490,#491);
#409=AXIS2_PLACEMENT_3D('',#604,#493,#494);
#410=AXIS2_PLACEMENT_3D('',#605,#495,#496);
#411=AXIS2_PLACEMENT_3D('',#607,#497,#498);
#412=AXIS2_PLACEMENT_3D('',#608,#499,#500);
#413=AXIS2_PLACEMENT_3D('',#610,#501,#502);
#414=AXIS2_PLACEMENT_3D('',#613,#504,#505);
#415=AXIS2_PLACEMENT_3D('',#614,#506,#507);
#416=AXIS2_PLACEMENT_3D('',#616,#508,#509);
#417=AXIS2_PLACEMENT_3D('',#617,#510,#511);
#418=AXIS2_PLACEMENT_3D('',#619,#512,#513);
#419=AXIS2_PLACEMENT_3D('',#622,#515,#516);
#420=AXIS2_PLACEMENT_3D('',#623,#517,#518);
#421=AXIS2_PLACEMENT_3D('',#625,#519,#520);
#422=AXIS2_PLACEMENT_3D('',#626,#521,#522);
#423=AXIS2_PLACEMENT_3D('',#628,#523,#524);
#424=AXIS2_PLACEMENT_3D('',#630,#526,#527);
#425=AXIS2_PLACEMENT_3D('',#632,#528,#529);
#426=AXIS2_PLACEMENT_3D('',#634,#531,#532);
#427=AXIS2_PLACEMENT_3D('',#636,#533,#534);
#428=AXIS2_PLACEMENT_3D('',#638,#536,#537);
#429=AXIS2_PLACEMENT_3D('',#640,#538,#539);
#430=AXIS2_PLACEMENT_3D('',#643,#541,#542);
#431=AXIS2_PLACEMENT_3D('',#644,#543,#544);
#432=AXIS2_PLACEMENT_3D('',#645,#545,#546);
#433=AXIS2_PLACEMENT_3D('',#647,#547,#548);
#434=AXIS2_PLACEMENT_3D('',#650,#550,#551);
#435=AXIS2_PLACEMENT_3D('',#651,#552,#553);
#436=AXIS2_PLACEMENT_3D('',#652,#554,#555);
#437=DIRECTION('axis',(0.,0.,1.));
#438=DIRECTION('refdir',(1.,0.,0.));
#439=DIRECTION('center_axis',(0.,1.,0.));
#440=DIRECTION('ref_axis',(1.,0.,0.));
#441=DIRECTION('center_axis',(0.,1.,0.));
#442=DIRECTION('ref_axis',(1.,0.,0.));
#443=DIRECTION('',(0.,1.,0.));
#444=DIRECTION('center_axis',(0.,-1.,0.));
#445=DIRECTION('ref_axis',(1.,0.,0.));
#446=DIRECTION('center_axis',(0.,1.,0.));
#447=DIRECTION('ref_axis',(1.,0.,0.));
#448=DIRECTION('center_axis',(0.,1.,0.));
#449=DIRECTION('ref_axis',(1.,0.,0.));
#450=DIRECTION('',(0.,1.,0.));
#451=DIRECTION('center_axis',(0.,-1.,0.));
#452=DIRECTION('ref_axis',(1.,0.,0.));
#453=DIRECTION('center_axis',(0.,1.,0.));
#454=DIRECTION('ref_axis',(1.,0.,0.));
#455=DIRECTION('center_axis',(0.,1.,0.));
#456=DIRECTION('ref_axis',(1.,0.,0.));
#457=DIRECTION('',(0.,1.,0.));
#458=DIRECTION('center_axis',(0.,-1.,0.));
#459=DIRECTION('ref_axis',(1.,0.,0.));
#460=DIRECTION('center_axis',(0.,1.,0.));
#461=DIRECTION('ref_axis',(1.,0.,0.));
#462=DIRECTION('center_axis',(0.,1.,0.));
#463=DIRECTION('ref_axis',(1.,0.,0.));
#464=DIRECTION('',(0.,1.,0.));
#465=DIRECTION('center_axis',(0.,-1.,0.));
#466=DIRECTION('ref_axis',(1.,0.,0.));
#467=DIRECTION('center_axis',(0.,1.,0.));
#468=DIRECTION('ref_axis',(1.,0.,0.));
#469=DIRECTION('center_axis',(0.,1.,0.));
#470=DIRECTION('ref_axis',(1.,0.,0.));
#471=DIRECTION('',(0.,1.,0.));
#472=DIRECTION('center_axis',(0.,-1.,0.));
#473=DIRECTION('ref_axis',(1.,0.,0.));
#474=DIRECTION('center_axis',(0.,1.,0.));
#475=DIRECTION('ref_axis',(1.,0.,0.));
#476=DIRECTION('center_axis',(0.,1.,0.));
#477=DIRECTION('ref_axis',(1.,0.,0.));
#478=DIRECTION('',(0.,1.,0.));
#479=DIRECTION('center_axis',(0.,-1.,0.));
#480=DIRECTION('ref_axis',(1.,0.,0.));
#481=DIRECTION('center_axis',(0.,1.,0.));
#482=DIRECTION('ref_axis',(1.,0.,0.));
#483=DIRECTION('center_axis',(0.,1.,0.));
#484=DIRECTION('ref_axis',(1.,0.,0.));
#485=DIRECTION('',(0.,1.,0.));
#486=DIRECTION('center_axis',(0.,-1.,0.));
#487=DIRECTION('ref_axis',(1.,0.,0.));
#488=DIRECTION('center_axis',(0.,1.,0.));
#489=DIRECTION('ref_axis',(1.,0.,0.));
#490=DIRECTION('center_axis',(0.,1.,0.));
#491=DIRECTION('ref_axis',(1.,0.,0.));
#492=DIRECTION('',(0.,1.,0.));
#493=DIRECTION('center_axis',(0.,-1.,0.));
#494=DIRECTION('ref_axis',(1.,0.,0.));
#495=DIRECTION('center_axis',(0.,1.,0.));
#496=DIRECTION('ref_axis',(1.,0.,0.));
#497=DIRECTION('center_axis',(0.,1.,0.));
#498=DIRECTION('ref_axis',(1.,0.,0.));
#499=DIRECTION('center_axis',(0.,1.,0.));
#500=DIRECTION('ref_axis',(1.,0.,0.));
#501=DIRECTION('center_axis',(0.,1.,0.));
#502=DIRECTION('ref_axis',(1.,0.,0.));
#503=DIRECTION('',(0.,1.,0.));
#504=DIRECTION('center_axis',(0.,-1.,0.));
#505=DIRECTION('ref_axis',(1.,0.,0.));
#506=DIRECTION('center_axis',(0.,1.,0.));
#507=DIRECTION('ref_axis',(1.,0.,0.));
#508=DIRECTION('center_axis',(0.,1.,0.));
#509=DIRECTION('ref_axis',(1.,0.,0.));
#510=DIRECTION('center_axis',(0.,1.,0.));
#511=DIRECTION('ref_axis',(1.,0.,0.));
#512=DIRECTION('center_axis',(0.,1.,0.));
#513=DIRECTION('ref_axis',(1.,0.,0.));
#514=DIRECTION('',(0.,1.,0.));
#515=DIRECTION('center_axis',(0.,-1.,0.));
#516=DIRECTION('ref_axis',(1.,0.,0.));
#517=DIRECTION('center_axis',(0.,1.,0.));
#518=DIRECTION('ref_axis',(1.,0.,0.));
#519=DIRECTION('center_axis',(0.,1.,0.));
#520=DIRECTION('ref_axis',(1.,0.,0.));
#521=DIRECTION('center_axis',(0.,1.,0.));
#522=DIRECTION('ref_axis',(1.,0.,0.));
#523=DIRECTION('center_axis',(0.,1.,0.));
#524=DIRECTION('ref_axis',(1.,0.,0.));
#525=DIRECTION('',(0.,1.,0.));
#526=DIRECTION('center_axis',(0.,1.,0.));
#527=DIRECTION('ref_axis',(1.,0.,0.));
#528=DIRECTION('center_axis',(0.,1.,0.));
#529=DIRECTION('ref_axis',(1.,0.,0.));
#530=DIRECTION('',(0.,1.,0.));
#531=DIRECTION('center_axis',(0.,1.,0.));
#532=DIRECTION('ref_axis',(1.,0.,0.));
#533=DIRECTION('center_axis',(0.,1.,0.));
#534=DIRECTION('ref_axis',(1.,0.,0.));
#535=DIRECTION('',(0.,1.,0.));
#536=DIRECTION('center_axis',(0.,1.,0.));
#537=DIRECTION('ref_axis',(1.,0.,0.));
#538=DIRECTION('center_axis',(0.,1.,0.));
#539=DIRECTION('ref_axis',(1.,0.,0.));
#540=DIRECTION('',(0.,1.,0.));
#541=DIRECTION('center_axis',(0.,1.,0.));
#542=DIRECTION('ref_axis',(1.,0.,0.));
#543=DIRECTION('center_axis',(0.,1.,0.));
#544=DIRECTION('ref_axis',(1.,0.,0.));
#545=DIRECTION('center_axis',(0.,1.,0.));
#546=DIRECTION('ref_axis',(1.,0.,0.));
#547=DIRECTION('center_axis',(0.,1.,0.));
#548=DIRECTION('ref_axis',(1.,0.,0.));
#549=DIRECTION('',(0.,-1.,0.));
#550=DIRECTION('center_axis',(0.,1.,0.));
#551=DIRECTION('ref_axis',(1.,0.,0.));
#552=DIRECTION('center_axis',(0.,1.,0.));
#553=DIRECTION('ref_axis',(1.,0.,0.));
#554=DIRECTION('center_axis',(0.,1.,0.));
#555=DIRECTION('ref_axis',(1.,0.,0.));
#556=CARTESIAN_POINT('',(0.,0.,0.));
#557=CARTESIAN_POINT('Origin',(0.,93.5,-154.269026324769));
#558=CARTESIAN_POINT('',(-6.,95.3,-154.269026324769));
#559=CARTESIAN_POINT('Origin',(0.,95.3,-154.269026324769));
#560=CARTESIAN_POINT('',(-6.,100.5,-154.269026324769));
#561=CARTESIAN_POINT('',(-6.,93.5,-154.269026324769));
#562=CARTESIAN_POINT('Origin',(0.,100.5,-154.269026324769));
#563=CARTESIAN_POINT('Origin',(-11.5,94.5,-174.187610611812));
#564=CARTESIAN_POINT('',(-13.15,94.5,-174.187610611812));
#565=CARTESIAN_POINT('Origin',(-11.5,94.5,-174.187610611812));
#566=CARTESIAN_POINT('',(-13.15,100.5,-174.187610611812));
#567=CARTESIAN_POINT('',(-13.15,94.5,-174.187610611812));
#568=CARTESIAN_POINT('Origin',(-11.5,100.5,-174.187610611812));
#569=CARTESIAN_POINT('Origin',(23.,94.5,-154.269026324769));
#570=CARTESIAN_POINT('',(21.35,94.5,-154.269026324769));
#571=CARTESIAN_POINT('Origin',(23.,94.5,-154.269026324769));
#572=CARTESIAN_POINT('',(21.35,100.5,-154.269026324769));
#573=CARTESIAN_POINT('',(21.35,94.5,-154.269026324769));
#574=CARTESIAN_POINT('Origin',(23.,100.5,-154.269026324769));
#575=CARTESIAN_POINT('Origin',(11.5,94.5,-134.350442037727));
#576=CARTESIAN_POINT('',(9.85,94.5,-134.350442037727));
#577=CARTESIAN_POINT('Origin',(11.5,94.5,-134.350442037727));
#578=CARTESIAN_POINT('',(9.85,100.5,-134.350442037727));
#579=CARTESIAN_POINT('',(9.85,94.5,-134.350442037727));
#580=CARTESIAN_POINT('Origin',(11.5,100.5,-134.350442037727));
#581=CARTESIAN_POINT('Origin',(-11.5,94.5,-134.350442037727));
#582=CARTESIAN_POINT('',(-13.15,94.5,-134.350442037727));
#583=CARTESIAN_POINT('Origin',(-11.5,94.5,-134.350442037727));
#584=CARTESIAN_POINT('',(-13.15,100.5,-134.350442037727));
#585=CARTESIAN_POINT('',(-13.15,94.5,-134.350442037727));
#586=CARTESIAN_POINT('Origin',(-11.5,100.5,-134.350442037727));
#587=CARTESIAN_POINT('Origin',(-23.,94.5,-154.269026324769));
#588=CARTESIAN_POINT('',(-24.65,94.5,-154.269026324769));
#589=CARTESIAN_POINT('Origin',(-23.,94.5,-154.269026324769));
#590=CARTESIAN_POINT('',(-24.65,100.5,-154.269026324769));
#591=CARTESIAN_POINT('',(-24.65,94.5,-154.269026324769));
#592=CARTESIAN_POINT('Origin',(-23.,100.5,-154.269026324769));
#593=CARTESIAN_POINT('Origin',(11.5,94.5,-174.187610611812));
#594=CARTESIAN_POINT('',(9.85,94.5,-174.187610611812));
#595=CARTESIAN_POINT('Origin',(11.5,94.5,-174.187610611812));
#596=CARTESIAN_POINT('',(9.85,100.5,-174.187610611812));
#597=CARTESIAN_POINT('',(9.85,94.5,-174.187610611812));
#598=CARTESIAN_POINT('Origin',(11.5,100.5,-174.187610611812));
#599=CARTESIAN_POINT('Origin',(11.8414732100254,98.,-160.752043540252));
#600=CARTESIAN_POINT('',(8.59147321002545,98.,-160.752043540252));
#601=CARTESIAN_POINT('Origin',(11.8414732100254,98.,-160.752043540252));
#602=CARTESIAN_POINT('',(8.59147321002545,100.5,-160.752043540252));
#603=CARTESIAN_POINT('',(8.59147321002545,98.,-160.752043540252));
#604=CARTESIAN_POINT('Origin',(11.8414732100254,100.5,-160.752043540252));
#605=CARTESIAN_POINT('Origin',(11.8414732100254,98.,-160.752043540252));
#606=CARTESIAN_POINT('',(10.1414732100254,98.,-160.752043540252));
#607=CARTESIAN_POINT('Origin',(11.8414732100254,98.,-160.752043540252));
#608=CARTESIAN_POINT('Origin',(-0.306279003232546,98.,-140.772501098913));
#609=CARTESIAN_POINT('',(-3.55627900323255,98.,-140.772501098913));
#610=CARTESIAN_POINT('Origin',(-0.306279003232546,98.,-140.772501098913));
#611=CARTESIAN_POINT('',(-3.55627900323255,100.5,-140.772501098913));
#612=CARTESIAN_POINT('',(-3.55627900323255,98.,-140.772501098913));
#613=CARTESIAN_POINT('Origin',(-0.306279003232546,100.5,-140.772501098913));
#614=CARTESIAN_POINT('Origin',(-0.306279003232546,98.,-140.772501098913));
#615=CARTESIAN_POINT('',(-2.00627900323255,98.,-140.772501098913));
#616=CARTESIAN_POINT('Origin',(-0.306279003232546,98.,-140.772501098913));
#617=CARTESIAN_POINT('Origin',(-11.5351942067929,98.,-161.282534335143));
#618=CARTESIAN_POINT('',(-14.7851942067929,98.,-161.282534335143));
#619=CARTESIAN_POINT('Origin',(-11.5351942067929,98.,-161.282534335143));
#620=CARTESIAN_POINT('',(-14.7851942067929,100.5,-161.282534335143));
#621=CARTESIAN_POINT('',(-14.7851942067929,98.,-161.282534335143));
#622=CARTESIAN_POINT('Origin',(-11.5351942067929,100.5,-161.282534335143));
#623=CARTESIAN_POINT('Origin',(-11.5351942067929,98.,-161.282534335143));
#624=CARTESIAN_POINT('',(-13.2351942067929,98.,-161.282534335143));
#625=CARTESIAN_POINT('Origin',(-11.5351942067929,98.,-161.282534335143));
#626=CARTESIAN_POINT('Origin',(11.8414732100254,93.5,-160.752043540252));
#627=CARTESIAN_POINT('',(10.1414732100254,95.3,-160.752043540252));
#628=CARTESIAN_POINT('Origin',(11.8414732100254,95.3,-160.752043540252));
#629=CARTESIAN_POINT('',(10.1414732100254,93.5,-160.752043540252));
#630=CARTESIAN_POINT('Origin',(-0.306279003232546,93.5,-140.772501098913));
#631=CARTESIAN_POINT('',(-2.00627900323255,95.3,-140.772501098913));
#632=CARTESIAN_POINT('Origin',(-0.306279003232546,95.3,-140.772501098913));
#633=CARTESIAN_POINT('',(-2.00627900323255,93.5,-140.772501098913));
#634=CARTESIAN_POINT('Origin',(-11.5351942067929,93.5,-161.282534335143));
#635=CARTESIAN_POINT('',(-13.2351942067929,95.3,-161.282534335143));
#636=CARTESIAN_POINT('Origin',(-11.5351942067929,95.3,-161.282534335143));
#637=CARTESIAN_POINT('',(-13.2351942067929,93.5,-161.282534335143));
#638=CARTESIAN_POINT('Origin',(0.,94.5,-154.269026324769));
#639=CARTESIAN_POINT('',(-18.65,94.5,-154.269026324769));
#640=CARTESIAN_POINT('Origin',(0.,94.5,-154.269026324769));
#641=CARTESIAN_POINT('',(-18.65,95.3,-154.269026324769));
#642=CARTESIAN_POINT('',(-18.65,94.5,-154.269026324769));
#643=CARTESIAN_POINT('Origin',(0.,95.3,-154.269026324769));
#644=CARTESIAN_POINT('Origin',(0.,95.3,-154.269026324769));
#645=CARTESIAN_POINT('Origin',(0.,94.5,-154.269026324769));
#646=CARTESIAN_POINT('',(-28.,100.5,-154.269026324769));
#647=CARTESIAN_POINT('Origin',(0.,100.5,-154.269026324769));
#648=CARTESIAN_POINT('',(-28.,94.5,-154.269026324769));
#649=CARTESIAN_POINT('',(-28.,94.5,-154.269026324769));
#650=CARTESIAN_POINT('Origin',(0.,94.5,-154.269026324769));
#651=CARTESIAN_POINT('Origin',(0.,100.5,-154.269026324769));
#652=CARTESIAN_POINT('Origin',(0.,94.5,-154.269026324769));
#653=UNCERTAINTY_MEASURE_WITH_UNIT(LENGTH_MEASURE(0.01),#657,
'DISTANCE_ACCURACY_VALUE',
'Maximum model space distance between geometric entities at asserted c
onnectivities');
#654=UNCERTAINTY_MEASURE_WITH_UNIT(LENGTH_MEASURE(0.01),#657,
'DISTANCE_ACCURACY_VALUE',
'Maximum model space distance between geometric entities at asserted c
onnectivities');
#655=(
GEOMETRIC_REPRESENTATION_CONTEXT(3)
GLOBAL_UNCERTAINTY_ASSIGNED_CONTEXT((#653))
GLOBAL_UNIT_ASSIGNED_CONTEXT((#657,#659,#660))
REPRESENTATION_CONTEXT('','3D')
);
#656=(
GEOMETRIC_REPRESENTATION_CONTEXT(3)
GLOBAL_UNCERTAINTY_ASSIGNED_CONTEXT((#654))
GLOBAL_UNIT_ASSIGNED_CONTEXT((#657,#659,#660))
REPRESENTATION_CONTEXT('','3D')
);
#657=(
LENGTH_UNIT()
NAMED_UNIT(*)
SI_UNIT(.MILLI.,.METRE.)
);
#658=(
LENGTH_UNIT()
NAMED_UNIT(*)
SI_UNIT($,.METRE.)
);
#659=(
NAMED_UNIT(*)
PLANE_ANGLE_UNIT()
SI_UNIT($,.RADIAN.)
);
#660=(
NAMED_UNIT(*)
SI_UNIT($,.STERADIAN.)
SOLID_ANGLE_UNIT()
);
#661=SHAPE_DEFINITION_REPRESENTATION(#662,#663);
#662=PRODUCT_DEFINITION_SHAPE('',$,#665);
#663=SHAPE_REPRESENTATION('',(#385),#655);
#664=PRODUCT_DEFINITION_CONTEXT('part definition',#669,'design');
#665=PRODUCT_DEFINITION('2026-08-08-19-52-19-011','Wheel_Hub_L',#666,#664);
#666=PRODUCT_DEFINITION_FORMATION('',$,#671);
#667=PRODUCT_RELATED_PRODUCT_CATEGORY('Wheel_Hub_L','Wheel_Hub_L',(#671));
#668=APPLICATION_PROTOCOL_DEFINITION('international standard',
'automotive_design',2009,#669);
#669=APPLICATION_CONTEXT(
'Core Data for Automotive Mechanical Design Process');
#670=PRODUCT_CONTEXT('part definition',#669,'mechanical');
#671=PRODUCT('2026-08-08-19-52-19-011','Wheel_Hub_L',$,(#670));
#672=PRESENTATION_STYLE_ASSIGNMENT((#674));
#673=PRESENTATION_STYLE_ASSIGNMENT((#675));
#674=SURFACE_STYLE_USAGE(.BOTH.,#676);
#675=SURFACE_STYLE_USAGE(.BOTH.,#677);
#676=SURFACE_SIDE_STYLE('',(#678));
#677=SURFACE_SIDE_STYLE('',(#679));
#678=SURFACE_STYLE_FILL_AREA(#680);
#679=SURFACE_STYLE_FILL_AREA(#681);
#680=FILL_AREA_STYLE('Steel - Satin',(#682));
#681=FILL_AREA_STYLE('Aluminum - Satin',(#683));
#682=FILL_AREA_STYLE_COLOUR('Steel - Satin',#684);
#683=FILL_AREA_STYLE_COLOUR('Aluminum - Satin',#685);
#684=COLOUR_RGB('Steel - Satin',0.627450980392157,0.627450980392157,0.627450980392157);
#685=COLOUR_RGB('Aluminum - Satin',0.96078431372549,0.96078431372549,0.964705882352941);
ENDSEC;
END-ISO-10303-21;
